<svg xmlns="http://www.w3.org/2000/svg" width="40" height="40" viewBox="0 0 40 40" fill="none">
    <rect x="1" y="1" width="38" height="38" rx="19" stroke="#2062AF" stroke-width="2"/>
    <svg xmlns="http://www.w3.org/2000/svg" xmlns:xlink="http://www.w3.org/1999/xlink" viewBox="0 0 14.212 15.989" x="11" y="9.874683366169434" width="18" height="20.250633267661133"><defs><linearGradient id="a" x1="-10.229" x2="-10.229" y1="13.597" y2="14.597" gradientUnits="objectBoundingBox"><stop offset=".387" stop-color="#d1d3d4" stop-opacity="0"/><stop offset="1" stop-color="#d1d3d4"/></linearGradient><linearGradient xlink:href="#a" id="c" x1="-9.516" x2="-9.516" y1="14.078" y2="15.078"/><linearGradient id="b" x1="-5.39" x2="-4.39" y1="6.703" y2="6.703" gradientUnits="objectBoundingBox"><stop offset="0" stop-color="#e8e7e5"/><stop offset="1" stop-color="#fff"/></linearGradient><linearGradient xlink:href="#b" id="d" x1="-4.964" x2="-3.964" y1="30.297" y2="30.297"/></defs><path fill="#2062af" d="m12.88 14.435-5.773 1.554-5.774-1.554L0 0h14.212Z"/><path fill="#3c9cd7" d="M7.106 1.168v13.579h.013l4.672-1.256 1.078-12.325Z"/><path fill="#fff" d="M7.105 4.777 2.973 6.498l.137 1.7 4-1.713 4.25-1.817.176-1.743Z"/><path fill="url(#a)" d="m171.677 241.377.137 1.7 4-1.713v-1.713Z" transform="translate(-168.709 -234.879)"/><path fill="url(#c)" d="m273.595 196.167-4.427 1.843v1.713l4.25-1.817Z" transform="translate(-262.066 -193.233)"/><path fill="url(#b)" d="m171.827 280.258.137 1.7 6.131.019-.137 2.272-2.017.571-1.942-.49-.114-1.41h-1.8l.235 2.723 3.643 1.077 3.624-1.058.471-5.405Z" transform="translate(-168.852 -273.758)"/><path d="M7.105 6.5H2.973l.137 1.7 4 .013Zm0 4.558h-.019l-1.942-.49-.114-1.41H3.222l.235 2.723L7.1 12.958Z" opacity=".05"/><path fill="url(#d)" d="M162.9 196.167h8.931l-.176 1.743h-8.539Z" transform="translate(-160.302 -193.233)"/><path d="M7.098 2.934h-4.5l.216 1.743h4.29Z" opacity=".05"/></svg>
</svg>