<svg xmlns="http://www.w3.org/2000/svg" width="40" height="40" viewBox="0 0 40 40" fill="none">
    <rect x="1" y="1" width="38" height="38" rx="19" stroke="#2396ED" stroke-width="2"/>
    <svg xmlns="http://www.w3.org/2000/svg" width="24.91220556745182" height="18" viewBox="0 0 19.39 14.01" x="8.789507494646681" y="11"><path d="M18.995,5.341a3.447,3.447,0,0,0-2.22-.265,3.044,3.044,0,0,0-1.238-2.007l-.419-.3-.291.436a3.589,3.589,0,0,0-.491,2.121,2.53,2.53,0,0,0,.382,1.156,3.034,3.034,0,0,1-1.474.341H.088l-.036.152a6.806,6.806,0,0,0,1.365,4.944A6.1,6.1,0,0,0,6.42,14c4.768,0,8.3-2.291,9.954-6.439a2.74,2.74,0,0,0,2.766-1.421c.018-.038.055-.114.182-.4l.073-.152ZM10.605,0h-2V1.893h2Zm0,2.272h-2V4.167h2Zm-2.365,0h-2V4.167h2Zm-2.365,0h-2V4.167h2ZM3.509,4.546h-2V6.439h2Zm2.365,0h-2V6.439h2Zm2.365,0h-2V6.439h2Zm2.365,0h-2V6.439h2Zm2.365,0h-2V6.439h2Z" transform="translate(-0.005)" fill="#2396ed"/></svg>
</svg>