<svg xmlns="http://www.w3.org/2000/svg" width="40" height="40" viewBox="0 0 40 40" fill="none">
    <rect x="1" y="1" width="38" height="38" rx="19" stroke="#54C5F8" stroke-width="2"/>
    <svg xmlns="http://www.w3.org/2000/svg" viewBox="0 0 32.302 40" x="9.65" y="8.855179245867129" width="18" height="22.289641508265742"><defs><radialGradient id="c" cx=".028" cy=".068" r="1.223" gradientTransform="matrix(1.238 0 0 -1 -2.189 -5.539)" gradientUnits="objectBoundingBox"><stop offset="0" stop-color="#fff" stop-opacity=".102"/><stop offset="1" stop-color="#fff" stop-opacity="0"/></radialGradient><linearGradient id="b" x1=".197" x2=".699" y1="1.193" y2=".448" gradientUnits="objectBoundingBox"><stop offset="0" stop-color="#1a237e" stop-opacity=".4"/><stop offset="1" stop-color="#1a237e" stop-opacity="0"/></linearGradient><clipPath id="a"><path d="M32.302 18.457 21.535 29.224 32.302 40h-12.3L9.227 29.224l10.771-10.767ZM19.998 0l-20 20 6.154 6.154L32.302 0h-12.3Z"/></clipPath></defs><g clip-path="url(#a)"><path fill="#39cefd" d="m9.229 29.229 6.15 6.154 16.923-16.925h-12.3Z"/></g><g clip-path="url(#a)"><path fill="#39cefd" d="M19.998 0h12.3L6.154 26.151 0 19.998Z"/></g><g clip-path="url(#a)"><path fill="#03569b" d="m15.38 35.384 4.617 4.613h12.3L21.538 29.229Z"/></g><g clip-path="url(#a)"><path fill="url(#b)" d="M41.169 51.037 38.2 48.045 32.042 54.2Z" transform="translate(-16.662 -18.816)"/></g><g clip-path="url(#a)"><path fill="#16b9fd" d="m9.229 29.227 6.154-6.154 6.154 6.154-6.153 6.151Z"/></g><path fill="url(#c)" d="M39.733 19.733 28.966 30.5l10.767 10.776h-12.3L16.658 30.5l10.771-10.767ZM27.429 1.276l-20 20 6.154 6.154 26.15-26.154h-12.3Z" transform="translate(-7.431 -1.276)"/></svg>
</svg>