<svg xmlns="http://www.w3.org/2000/svg" width="40" height="40" viewBox="0 0 40 40" fill="none">
    <rect x="1" y="1" width="38" height="38" rx="19" stroke="#F05133" stroke-width="2"/>
    <svg xmlns="http://www.w3.org/2000/svg" viewBox="0 0 91.888 91.886" x="10.999804105086737" y="11" width="18.000391789826526" height="18"><path fill="#f05133" d="M90.155 41.85 50.036 1.733a5.918 5.918 0 0 0-8.369 0l-8.33 8.332 10.567 10.567a7.028 7.028 0 0 1 8.9 8.96l10.185 10.185a7.035 7.035 0 1 1-4.217 3.971l-9.5-9.5v25a7.03 7.03 0 1 1-5.789-.2V33.811a7.045 7.045 0 0 1-3.823-9.235L29.245 14.157 1.733 41.664a5.92 5.92 0 0 0 0 8.371l40.121 40.118a5.918 5.918 0 0 0 8.369 0l39.932-39.932a5.92 5.92 0 0 0 0-8.371Z"/></svg>
</svg>