<svg xmlns="http://www.w3.org/2000/svg" width="40" height="40" viewBox="0 0 40 40" fill="none">
    <rect x="1" y="1" width="38" height="38" rx="19" stroke="#00ACD7" stroke-width="2"/>
    <svg xmlns="http://www.w3.org/2000/svg" width="30" height="11.216875411997362" viewBox="0 0 30.34 11.344" x="5" y="14.391562294001318"><g transform="translate(0 0.05)"><g transform="translate(2.23 2.848)"><g transform="translate(0 0)"><path d="M15.159,20.046c-.059,0-.074-.029-.045-.074l.31-.4a.211.211,0,0,1,.162-.074h5.271c.059,0,.074.045.045.088l-.251.384a.225.225,0,0,1-.147.088Z" transform="translate(-15.1 -19.5)" fill="#00acd7"/></g></g><g transform="translate(0 4.205)"><g transform="translate(0 0)"><path d="M.059,29.246c-.059,0-.074-.029-.045-.074l.309-.4A.211.211,0,0,1,.486,28.7H7.22a.068.068,0,0,1,.074.088l-.118.355a.129.129,0,0,1-.133.088Z" transform="translate(0 -28.699)" fill="#00acd7"/></g></g><g transform="translate(3.573 5.565)"><g transform="translate(0 0)"><path d="M24.259,38.447c-.059,0-.074-.045-.045-.088l.206-.369a.2.2,0,0,1,.147-.088h2.953c.059,0,.088.045.088.1l-.029.355a.111.111,0,0,1-.1.1Z" transform="translate(-24.2 -37.901)" fill="#00acd7"/></g></g><g transform="translate(8.053 -0.05)"><g transform="translate(0 0)"><path d="M65.43,3.128c-.93.236-1.565.414-2.481.647-.222.059-.236.074-.428-.147a1.976,1.976,0,0,0-.694-.561,2.567,2.567,0,0,0-2.671.222A3.14,3.14,0,0,0,57.644,6.1a2.315,2.315,0,0,0,1.993,2.318,2.725,2.725,0,0,0,2.509-.971c.133-.162.251-.34.4-.546H59.7c-.31,0-.384-.192-.281-.443.192-.458.546-1.225.753-1.61a.4.4,0,0,1,.369-.236h5.378c-.029.4-.029.8-.088,1.2A6.3,6.3,0,0,1,64.613,8.7,6.151,6.151,0,0,1,60.4,11.207a5.231,5.231,0,0,1-3.972-.971,4.638,4.638,0,0,1-1.874-3.285,5.8,5.8,0,0,1,1.255-4.327A6.556,6.556,0,0,1,59.947.071a5.089,5.089,0,0,1,3.913.724,4.629,4.629,0,0,1,1.713,2.083C65.662,3.009,65.6,3.084,65.43,3.128Z" transform="translate(-54.518 0.05)" fill="#00acd7"/><g transform="translate(10.526 0.132)"><path d="M131.069,12.082a5.539,5.539,0,0,1-3.6-1.3,4.631,4.631,0,0,1-1.594-2.85,5.637,5.637,0,0,1,1.2-4.46A6.19,6.19,0,0,1,131.2,1.007a5.478,5.478,0,0,1,4.209.753,4.6,4.6,0,0,1,2.082,3.293,5.7,5.7,0,0,1-1.7,5.006,6.766,6.766,0,0,1-3.544,1.89C131.851,12.023,131.453,12.038,131.069,12.082Zm3.514-5.966a4.251,4.251,0,0,0-.045-.486,2.432,2.432,0,0,0-3.012-1.964,3.226,3.226,0,0,0-2.584,2.57A2.428,2.428,0,0,0,130.3,9.027a2.707,2.707,0,0,0,2.407-.088,3.232,3.232,0,0,0,1.875-2.822Z" transform="translate(-125.799 -0.87)" fill="#00acd7"/></g></g></g></g></svg>
</svg>