<svg xmlns="http://www.w3.org/2000/svg" width="40" height="40" viewBox="0 0 40 40" fill="none">
    <rect x="1" y="1" width="38" height="38" rx="19" stroke="#E44D26" stroke-width="2"/>
    <svg xmlns="http://www.w3.org/2000/svg" viewBox="0 0 14.109 15.999" x="11" y="9.794386561769082" width="18" height="20.411226876461836"><path fill="#e44d26" d="M1.283 14.4 0 0h14.109l-1.283 14.4L7.043 16"/><path fill="#f16529" d="M7.055 14.775V1.183h5.768l-1.1 12.29"/><path fill="#ebebeb" d="M2.622 2.945h4.433v1.766h-2.5l.163 1.808h2.334v1.762H3.101m.078.887h1.774l.125 1.411 1.976.529v1.843L3.429 11.94"/><path fill="#fff" d="M11.473 2.945H7.047v1.766h4.263m-.16 1.808h-4.1v1.766h2.178l-.206 2.295-1.971.529v1.836l3.617-1"/></svg>
</svg>