<svg xmlns="http://www.w3.org/2000/svg" width="40" height="40" viewBox="0 0 40 40" fill="none">
    <rect x="1" y="1" width="38" height="38" rx="19" stroke="#1565C0" stroke-width="2"/>
    <svg xmlns="http://www.w3.org/2000/svg" viewBox="0 0 12 16" x="11" y="8" width="18" height="24"><path fill="#f44336" d="M5.86 8.36a12.331 12.331 0 0 1-1.09-2.182C4.092 4.478 8.896 2.947 6.948 0c.844 2.036-3.031 3.294-3.391 4.989C3.228 6.548 5.858 8.36 5.86 8.36Z"/><path fill="#f44336" d="M5.951 5.308c-.077 1.006.892 1.543.92 2.278a1.615 1.615 0 0 1-.579 1.1 2.047 2.047 0 0 0 1.432-1.127c.378-1.014-.734-1.708-.619-2.519.107-.775 2.412-2.217 2.412-2.217s-3.392.222-3.566 2.485Z"/><g fill="#1565c0"><path d="M9.233 8.422a.99.99 0 0 1 1.293.8c0 1.16-1.608 2.257-1.608 2.257s2.49-.3 2.49-2.2c0-1.257-1.218-1.572-2.175-.857Zm-1.182.936s.776-.553.983-.761c-1.905.4-6.255.459-6.255.108 0-.324 1.4-.655 1.4-.655s-3.109-.045-3.109.872c.003.956 4.073 1.025 6.981.436Z"/><path d="M7.574 10.229c-1.8.6-5.126.408-4.142-.4-.479 0-1.19.385-1.19.756 0 .743 3.593 1.316 6.252.229Z"/><path d="M3.874 11.496c-.654 0-1.078.422-1.078.729 0 .956 3.9 1.053 5.451.082l-.983-.653c-1.159.503-4.059.578-3.39-.158Z"/><path d="M10.912 13.053c0-.374-.422-.551-.573-.635.891 2.149-8.927 1.982-8.927.714 0-.288.723-.571 1.391-.437l-.568-.336C.9 12.15 0 12.735 0 13.207c0 2.201 10.912 2.095 10.912-.154Z"/><path d="M12 13.838c-1.661 1.642-5.861 2.239-10.092 1.227 4.231 1.801 10.072.787 10.092-1.227Z"/></g></svg>
</svg>