<svg xmlns="http://www.w3.org/2000/svg" width="40" height="40" viewBox="0 0 40 40" fill="none">
    <rect x="1" y="1" width="38" height="38" rx="19" stroke="#F7DF1E" stroke-width="2"/>
    <svg xmlns="http://www.w3.org/2000/svg" viewBox="0 0 15.998 15.998" x="11" y="11" width="18" height="18"><rect width="15.998" height="15.998" fill="#f7df1e" rx="1"/><path d="M10.915 12.694a1.663 1.663 0 0 0 1.506.927c.633 0 1.036-.317 1.036-.753 0-.523-.415-.708-1.112-1.014l-.382-.163c-1.1-.47-1.828-1.057-1.828-2.3a2.04 2.04 0 0 1 2.236-2.017 2.257 2.257 0 0 1 2.171 1.223l-1.188.763a1.039 1.039 0 0 0-.983-.655.664.664 0 0 0-.73.655c0 .457.283.643.939.927l.382.163c1.3.557 2.029 1.123 2.029 2.4 0 1.371-1.08 2.128-2.53 2.128a2.933 2.933 0 0 1-2.783-1.561Zm-5.394.133c.24.425.457.785.983.785.5 0 .818-.2.818-.96V7.461h1.527v5.212a2.073 2.073 0 0 1-2.285 2.3 2.37 2.37 0 0 1-2.285-1.394Z" fill="black"/></svg>
</svg>