<svg xmlns="http://www.w3.org/2000/svg" width="40" height="40" viewBox="0 0 40 40" fill="none">
    <rect x="1" y="1" width="38" height="38" rx="19" stroke="#10AA50" stroke-width="2"/>
    <svg xmlns="http://www.w3.org/2000/svg" viewBox="0 0 130.443 290.61" x="13.26711056054506" y="5" width="13.465778878909878" height="30"><path fill="#10aa50" d="M128.119 115.65c-15.31-67.54-47.22-85.52-55.36-98.23A144.571 144.571 0 0 1 63.859 0c-.43 6-1.22 9.78-6.32 14.33C47.299 23.46 3.809 58.9.149 135.64c-3.41 71.55 52.6 115.67 60 120.23 5.69 2.8 12.62.06 16-2.51 27-18.53 63.89-67.93 52-137.71"/><path fill="#b8c4c2" d="M66.179 217.77c-1.41 17.71-2.42 28-6 38.12 0 0 2.35 16.86 4 34.72h5.84a324.735 324.735 0 0 1 6.37-37.39c-7.56-3.72-9.92-19.91-10.21-35.45Z"/><path fill="#12924f" d="M76.379 253.23c-7.64-3.53-9.85-20.06-10.19-35.46a725.842 725.842 0 0 0 1.65-76.35c-.4-13.36.19-123.74-3.29-139.9a134.29 134.29 0 0 0 8.21 15.89c8.14 12.72 40.06 30.7 55.36 98.24 11.92 69.66-24.77 118.93-51.74 137.58Z"/></svg>
</svg>