<svg xmlns="http://www.w3.org/2000/svg" width="40" height="40" viewBox="0 0 40 40" fill="none">
    <rect x="1" y="1" width="38" height="38" rx="19" stroke="#000000" stroke-width="2"/>
    <svg xmlns="http://www.w3.org/2000/svg" viewBox="0 0 512 512" x="11" y="11" width="18" height="18"><path d="M386.4 35.508C217.06-64.061 1.885 57.55.012 253.882-1.816 445.6 201.075 569.427 370.033 485.045L185.56 213.636v168c0 18.614-35.619 18.614-35.619 0V156.421c0-14.776 27.447-15.988 35.225-3.144l210.263 317.3C553.381 368.835 551.247 132.436 386.4 35.508Zm-23.757 317.939-35.732-54.577V149.458c0-13.932 35.732-13.932 35.732 0Z" fill="#000000"/></svg>
</svg>