<svg xmlns="http://www.w3.org/2000/svg" width="40" height="40" viewBox="0 0 40 40" fill="none">
    <rect x="1" y="1" width="38" height="38" rx="19" stroke="#6CC04A" stroke-width="2"/>
    <svg xmlns="http://www.w3.org/2000/svg" viewBox="0 0 14.047 15.996" x="11" y="9.751263615006762" width="18" height="20.497472769986476"><defs><linearGradient id="a" x1=".682" x2=".278" y1=".175" y2=".898" gradientUnits="objectBoundingBox"><stop offset="0" stop-color="#41873f"/><stop offset=".329" stop-color="#418b3d"/><stop offset=".635" stop-color="#419637"/><stop offset=".932" stop-color="#3fa92d"/><stop offset="1" stop-color="#3fae2a"/></linearGradient><linearGradient id="b" x1=".433" x2="1.592" y1=".552" y2="-.183" gradientUnits="objectBoundingBox"><stop offset=".138" stop-color="#41873f"/><stop offset=".403" stop-color="#54a044"/><stop offset=".714" stop-color="#66b848"/><stop offset=".908" stop-color="#6cc04a"/></linearGradient><linearGradient id="c" x1="-.044" x2="1.015" y1=".5" y2=".5" gradientUnits="objectBoundingBox"><stop offset=".092" stop-color="#6cc04a"/><stop offset=".286" stop-color="#66b848"/><stop offset=".597" stop-color="#54a044"/><stop offset=".862" stop-color="#41873f"/></linearGradient></defs><path fill="url(#a)" d="M7.388.1a.767.767 0 0 0-.758 0L.371 3.713A.743.743 0 0 0 0 4.367v7.24a.775.775 0 0 0 .371.655l6.255 3.611a.767.767 0 0 0 .759 0l6.259-3.613a.743.743 0 0 0 .371-.655V4.367a.775.775 0 0 0-.371-.655Z" transform="translate(0 .005)"/><path fill="url(#b)" d="M15.971 4.16 9.683.549A1.028 1.028 0 0 0 9.49.475L2.443 12.546a.784.784 0 0 0 .208.178l6.284 3.613a.724.724 0 0 0 .579.074l6.615-12.1a.78.78 0 0 0-.163-.149Z" transform="translate(-2.309 -.445)"/><path fill="url(#c)" d="M20.091 12.22a.845.845 0 0 0 .371-.475L13.565-.03a.755.755 0 0 0-.535.089l-6.244 3.6 6.734 12.279a1.038 1.038 0 0 0 .282-.089l6.284-3.627Z" transform="translate(-6.416 .045)"/></svg>
</svg>