<svg xmlns="http://www.w3.org/2000/svg" width="40" height="40" viewBox="0 0 40 40" fill="none">
    <rect x="1" y="1" width="38" height="38" rx="19" stroke="#00DC82" stroke-width="2"/>
    <svg xmlns="http://www.w3.org/2000/svg" viewBox="0 0 258.684 172.456" x="6.499999999999998" y="9.2" width="27.000000000000004" height="18"><path fill="#00dc82" d="M144.864 172.456h95.713a17.526 17.526 0 0 0 8.622-2.587c2.645-1.514 5.372-3.414 6.9-6.036a15.663 15.663 0 0 0 0-17.245L191.426 35.354a15.718 15.718 0 0 0-6.036-6.036 20.843 20.843 0 0 0-9.485-2.587 17.528 17.528 0 0 0-8.623 2.587 15.72 15.72 0 0 0-6.036 6.036l-16.384 28.455L112.1 8.621c-1.528-2.622-3.39-5.383-6.036-6.9s-5.569-1.724-8.623-1.724-5.977.211-8.623 1.724a20.453 20.453 0 0 0-6.9 6.9L1.724 146.588C.2 149.209 0 152.182 0 155.209s.2 6 1.725 8.624 4.252 4.522 6.9 6.036a17.526 17.526 0 0 0 8.623 2.587h60.36c23.917 0 41.325-10.729 53.461-31.042l29.317-50.875 15.521-26.731 47.425 81.054h-62.947Zm-68.121-27.593H34.491L97.438 36.215l31.9 54.324-21.133 36.841c-8.06 13.18-17.248 17.483-31.466 17.483Z"/></svg>
</svg>