<svg xmlns="http://www.w3.org/2000/svg" width="40" height="40" viewBox="0 0 40 40" fill="none">
    <rect x="1" y="1" width="38" height="38" rx="19" stroke="#35668F" stroke-width="2"/>
    <svg xmlns="http://www.w3.org/2000/svg" viewBox="0 0 15.995 15.996" x="11" y="10.999437324163802" width="18" height="18.001125351672396"><path d="M12.15 4.903Z"/><path fill="#f2bb30" d="M13.795 11.827c1.11 0 1.521-.774 1.907-1.935a6.526 6.526 0 0 0 0-3.877c-.275-1.1-.8-1.935-1.907-1.935h-1.427v1.692a2.449 2.449 0 0 1-2.385 2.421H6.168a1.945 1.945 0 0 0-1.907 1.939v3.635c0 1.035.9 1.642 1.907 1.939a6.421 6.421 0 0 0 3.813 0c.96-.279 1.907-.84 1.907-1.939v-1.454h-3.81v-.485h5.72Zm-3.577 1.454a.727.727 0 1 1-.718.725.722.722 0 0 1 .718-.725Z"/><path fill="#35668f" d="M2.3 11.828h1.31v-1.742a2.425 2.425 0 0 1 2.38-2.372H9.8a1.922 1.922 0 0 0 1.91-1.939V2.138A2.13 2.13 0 0 0 9.8.153a11.756 11.756 0 0 0-3.813 0c-1.614.285-1.906.881-1.906 1.984v1.462H7.9v.486H2.653a2.383 2.383 0 0 0-2.385 1.93 7.154 7.154 0 0 0 0 3.877c.271 1.129.918 1.936 2.032 1.936Zm3.452-9.205a.727.727 0 1 1 .717-.724.722.722 0 0 1-.717.724Z"/></svg>
</svg>