<svg xmlns="http://www.w3.org/2000/svg" width="40" height="40" viewBox="0 0 40 40" fill="none">
    <rect x="1" y="1" width="38" height="38" rx="19" stroke="#61DAFB" stroke-width="2"/>
    <svg xmlns="http://www.w3.org/2000/svg" width="18" height="19.26704347826087" viewBox="0 0 23 24.619" x="11" y="10.366478260869565"><g transform="translate(11.5 12.309)"><circle cx="2.05" cy="2.05" r="2.05" transform="translate(-2.05 -2.05)" fill="#61dafb"/><path d="M11-.5A23.089,23.089,0,0,1,18.957.763C21.242,1.636,22.5,2.856,22.5,4.2s-1.258,2.564-3.543,3.437A23.089,23.089,0,0,1,11,8.9,23.089,23.089,0,0,1,3.043,7.637C.758,6.764-.5,5.544-.5,4.2S.758,1.636,3.043.763A23.089,23.089,0,0,1,11-.5Zm0,8.4a22.08,22.08,0,0,0,7.6-1.2c1.843-.7,2.9-1.616,2.9-2.5s-1.057-1.8-2.9-2.5A22.08,22.08,0,0,0,11,.5,22.08,22.08,0,0,0,3.4,1.7C1.557,2.4.5,3.313.5,4.2S1.557,6,3.4,6.7A22.08,22.08,0,0,0,11,7.9Z" transform="translate(-11 -4.2)" fill="#61dafb"/><path d="M11-.5A23.089,23.089,0,0,1,18.957.763C21.242,1.636,22.5,2.856,22.5,4.2s-1.258,2.564-3.543,3.437A23.089,23.089,0,0,1,11,8.9,23.089,23.089,0,0,1,3.043,7.637C.758,6.764-.5,5.544-.5,4.2S.758,1.636,3.043.763A23.089,23.089,0,0,1,11-.5Zm0,8.4a22.08,22.08,0,0,0,7.6-1.2c1.843-.7,2.9-1.616,2.9-2.5s-1.057-1.8-2.9-2.5A22.08,22.08,0,0,0,11,.5,22.08,22.08,0,0,0,3.4,1.7C1.557,2.4.5,3.313.5,4.2S1.557,6,3.4,6.7A22.08,22.08,0,0,0,11,7.9Z" transform="translate(-1.863 -11.626) rotate(60)" fill="#61dafb"/><path d="M11-.5A23.089,23.089,0,0,1,18.957.763C21.242,1.636,22.5,2.856,22.5,4.2s-1.258,2.564-3.543,3.437A23.089,23.089,0,0,1,11,8.9,23.089,23.089,0,0,1,3.043,7.637C.758,6.764-.5,5.544-.5,4.2S.758,1.636,3.043.763A23.089,23.089,0,0,1,11-.5Zm0,8.4a22.08,22.08,0,0,0,7.6-1.2c1.843-.7,2.9-1.616,2.9-2.5s-1.057-1.8-2.9-2.5A22.08,22.08,0,0,0,11,.5,22.08,22.08,0,0,0,3.4,1.7C1.557,2.4.5,3.313.5,4.2S1.557,6,3.4,6.7A22.08,22.08,0,0,0,11,7.9Z" transform="translate(9.137 -7.426) rotate(120)" fill="#61dafb"/></g></svg>
</svg>