<svg xmlns="http://www.w3.org/2000/svg" width="40" height="40" viewBox="0 0 40 40" fill="none">
    <rect x="1" y="1" width="38" height="38" rx="19" stroke="#DC382C" stroke-width="2"/>
    <svg xmlns="http://www.w3.org/2000/svg" viewBox="0 0 16.336 14" x="9.498285714285714" y="11" width="21.00342857142857" height="18"><defs><clipPath id="a"><path fill="none" d="M0 0h16.336v14H0z"/></clipPath></defs><g clip-path="url(#a)"><path fill="#a32422" d="M15.694 10.794c-.87.455-5.387 2.313-6.36 2.823a2.126 2.126 0 0 1-2.255.132c-.761-.365-5.55-2.311-6.418-2.728-.438-.205-.661-.383-.661-.544V8.824S6.257 7.466 7.267 7.1a2.544 2.544 0 0 1 2.217-.06c.858.315 6 1.243 6.85 1.551v1.629c0 .17-.2.335-.64.572Z"/><path fill="#dc382c" d="M15.694 9.148c-.87.453-5.387 2.311-6.36 2.812a2.148 2.148 0 0 1-2.255.134C6.318 11.731 1.528 9.783.66 9.372s-.885-.7-.033-1.032 5.63-2.2 6.64-2.572a2.533 2.533 0 0 1 2.217-.06c.858.316 5.355 2.1 6.2 2.413s.884.567.01 1.019Z"/><path fill="#a32422" d="M15.694 8.102c-.87.454-5.387 2.311-6.36 2.812a2.135 2.135 0 0 1-2.25.132c-.761-.365-5.555-2.3-6.423-2.716C.223 8.122 0 7.948 0 7.783V6.136s6.257-1.361 7.267-1.728a2.528 2.528 0 0 1 2.217-.057c.858.319 6 1.238 6.85 1.549v1.629c0 .169-.195.339-.64.573Z"/><path fill="#dc382c" d="M15.693 6.445c-.87.455-5.387 2.312-6.36 2.813a2.146 2.146 0 0 1-2.255.134c-.761-.364-5.551-2.3-6.419-2.719s-.884-.7-.033-1.03 5.63-2.208 6.64-2.566a2.585 2.585 0 0 1 2.217-.069c.858.311 5.355 2.113 6.2 2.416s.884.568.01 1.019Z"/><path fill="#a32422" d="M15.694 5.306c-.87.455-5.387 2.313-6.36 2.813a2.143 2.143 0 0 1-2.25.134C6.323 7.89 1.529 5.948.661 5.534.223 5.334 0 5.157 0 4.992V3.34s6.257-1.358 7.267-1.723a2.548 2.548 0 0 1 2.217-.061c.858.315 6 1.243 6.848 1.553v1.629c.002.168-.193.339-.638.568Z"/><path fill="#dc382c" d="M15.694 3.659c-.87.446-5.387 2.315-6.36 2.812a2.161 2.161 0 0 1-2.255.134c-.761-.362-5.55-2.307-6.418-2.719s-.885-.7-.033-1.032S6.257.647 7.267.283a2.552 2.552 0 0 1 2.217-.06c.858.315 5.355 2.1 6.2 2.413s.884.568.01 1.02Z"/></g><path fill="#fff" d="M8.424 1.314 9.499.96l-.292.7 1.1.411-1.414.147-.318.763-.511-.851-1.635-.149 1.221-.44-.367-.676 1.141.449ZM8.492 5.768l-2.642-1.1 3.785-.581-1.142 1.678ZM4.829 2.493c1.116 0 2.023.351 2.023.781s-.909.781-2.023.781-2.024-.351-2.024-.781.907-.781 2.024-.781Z"/><path fill="#741113" d="m11.981 2.277 2.239.885-2.237.885v-1.77Z"/><path fill="#ac2724" d="M11.98 2.277v1.77l-.243.095-2.236-.885Z"/></svg>
</svg>