<svg xmlns="http://www.w3.org/2000/svg" width="40" height="40" viewBox="0 0 40 40" fill="none">
    <rect x="1" y="1" width="38" height="38" rx="19" stroke="#FF3333" stroke-width="2"/>
    <svg xmlns="http://www.w3.org/2000/svg" viewBox="0 0 95.379 124.321" x="11" y="8.269021482716322" width="18" height="23.461957034567355"><path fill="#f33" d="M5.582 0a1.892 1.892 0 0 0-1.89 1.89v98.726a71.868 71.868 0 0 0-2.957 9.273 26.9 26.9 0 0 0-.731 6.047 9.514 9.514 0 0 0 1.441 4.736 7.589 7.589 0 0 0 3.449 2.968 11.845 11.845 0 0 0 9.04-.467 1.927 1.927 0 0 0 .275-.219h79.17a1.907 1.907 0 0 0 1.695-2.76L74.131 78.738a1.9 1.9 0 0 1 .738-2.5 40.8 40.8 0 0 0 15.468-55.043h.006l-.043-.07c-.07-.124-.128-.254-.2-.377-.016-.017-.036-.032-.052-.049-.28-.5-.57-.99-.883-1.49.036.044.075.085.111.129q-.887-1.414-1.887-2.752l-.017-.026h-.006A40.739 40.739 0 0 0 55.184 0Zm62.422 9.818a28.928 28.928 0 0 1 2.941.166c.471.053.941.12 1.41.2.094.015.2.038.327.06.382.068.76.14 1.135.223.067.015.145.035.238.057.392.09.781.186 1.164.293.114.031.237.071.373.11.342.1.68.2 1.014.315.118.04.242.086.375.133.357.125.71.253 1.056.39l.223.093c.378.154.752.313 1.12.482l.265.125c.365.173.724.351 1.08.539.068.036.144.08.228.125.33.178.656.36.975.55.136.082.274.169.416.257.286.177.569.357.848.545q.591.4 1.16.824a26.3 26.3 0 0 1 2.195 1.846l.156.15a29.391 29.391 0 0 0-14.689-4.753c-6.7-.277-13.016 2.085-15.527 7.957-2.567 5.99-.408 12.289 3.088 16.916.248.327.516.627.776.937 5.309-7.633 8.984-12.82 8.984-12.82l.47-.658.38.715a128.629 128.629 0 0 1 5.83 11.652 6.652 6.652 0 0 1 .384 3.258c-.73 3.978-4.217 6.583-6.673 8.652C66.79 51.629 62.783 54.9 57.664 59.8c-10.277 9.84-20.601 25.071-28.757 38.064-4.078 6.5-7.612 12.434-10.311 16.85-1.35 2.208-2.493 4.036-3.385 5.356-.446.66-.83 1.194-1.14 1.578a3.84 3.84 0 0 1-.634.654 10.138 10.138 0 0 1-7.98.518 6.672 6.672 0 0 1-3.02-2.42 9.258 9.258 0 0 1-1.432-4.312 27.171 27.171 0 0 1 .743-6.176c1.5-6.371 5.488-16.573 14.228-33.327v-.006q1.95-3.736 4.223-7.92l.006-.01c5.47-10.058 10.054-18.422 13.982-25.37l.014-.024c2.613-4.62 4.939-8.616 7.046-12.064l.006-.007a116.071 116.071 0 0 1 8.256-12.12l.008-.008a39.78 39.78 0 0 1 3.457-3.807 24.065 24.065 0 0 1 2.174-1.855 16.3 16.3 0 0 1 6.515-3.012 29.7 29.7 0 0 1 6.329-.549Zm1.67 16.992c-.232.325-3.705 5.23-8.656 12.346a21.731 21.731 0 0 0 4.433 3.776c2.357 1.349 4.451 2.171 6.41 1.408 1.653-.647 2.23-2.005 2.567-3.533.65-5.334-2.69-10.13-4.754-14Z"/></svg>
</svg>