<svg xmlns="http://www.w3.org/2000/svg" width="40" height="40" viewBox="0 0 40 40" fill="none">
    <rect x="1" y="1" width="38" height="38" rx="19" stroke="#F05138" stroke-width="2"/>
    <svg xmlns="http://www.w3.org/2000/svg" viewBox="0 0 16 16" x="11" y="11" width="18" height="18"><path fill="#f05138" d="M16 4.432c0-.161 0-.322-.007-.483A7 7 0 0 0 15.9 2.9a3.544 3.544 0 0 0-.329-1A3.36 3.36 0 0 0 14.1.43a3.546 3.546 0 0 0-1-.33 7 7 0 0 0-1.049-.092C11.89 0 11.729 0 11.568 0H4.432c-.161 0-.322 0-.483.007-.088 0-.176.005-.263.01A6.1 6.1 0 0 0 2.9.1a3.656 3.656 0 0 0-.76.219q-.121.05-.24.111a3.355 3.355 0 0 0-.657.439q-.1.086-.194.179A3.357 3.357 0 0 0 .43 1.9a3.545 3.545 0 0 0-.33 1 7.017 7.017 0 0 0-.092 1.049C0 4.11 0 4.271 0 4.432v7.131c0 .161 0 .322.007.483A7.011 7.011 0 0 0 .1 13.1a3.546 3.546 0 0 0 .329 1A3.362 3.362 0 0 0 1.9 15.57a3.545 3.545 0 0 0 1 .329 6.992 6.992 0 0 0 1.051.093c.161 0 .322.006.483.007h7.136c.161 0 .322 0 .483-.007A7 7 0 0 0 13.1 15.9a3.546 3.546 0 0 0 1-.329 3.362 3.362 0 0 0 1.47-1.471 3.544 3.544 0 0 0 .329-1 7 7 0 0 0 .092-1.051c0-.161.006-.322.007-.483V5C16 4.814 16 4.623 16 4.432Z"/><path fill="#fff" d="M12.679 9.876c.018-.06.036-.12.051-.182.664-2.646-.957-5.774-3.7-7.421a6.354 6.354 0 0 1 1.261 5.329 4.479 4.479 0 0 1-.149.445c-.061-.04-.137-.085-.24-.142a34.586 34.586 0 0 1-5.685-4.668 35.408 35.408 0 0 0 3.454 4.348 37.155 37.155 0 0 1-4.91-3.718 7.086 7.086 0 0 0 .67.924 30.05 30.05 0 0 0 5.039 5.258 5.785 5.785 0 0 1-5.465 0 8.256 8.256 0 0 1-1.4-.835 8.38 8.38 0 0 0 3.761 3.225 6.04 6.04 0 0 0 5.209.013l.021-.013a2.32 2.32 0 0 0 .172-.1 1.872 1.872 0 0 1 2.735.689c.176.353.55-1.46-.824-3.152Z"/></svg>
</svg>