<svg xmlns="http://www.w3.org/2000/svg" width="40" height="40" viewBox="0 0 40 40" fill="none">
    <rect x="1" y="1" width="38" height="38" rx="19" stroke="#38BDF8" stroke-width="2"/>
    <svg xmlns="http://www.w3.org/2000/svg" viewBox="0 0 54 32.4" x="5" y="11" width="30" height="18"><defs><clipPath id="a"><path fill="#fff" d="M0 0h54v32.4H0Z"/></clipPath></defs><g clip-path="url(#a)"><path fill="#38bdf8" fill-rule="evenodd" d="M27 0Q16.2 0 13.5 10.8q4.05-5.4 9.45-4.05c2.054.513 3.522 2 5.147 3.653 2.647 2.687 5.711 5.8 12.4 5.8Q51.3 16.2 54 5.4q-4.05 5.4-9.45 4.05c-2.054-.513-3.522-2-5.147-3.653C36.756 3.11 33.692 0 27 0ZM13.5 16.2Q2.7 16.2 0 27q4.05-5.4 9.45-4.05c2.054.514 3.522 2 5.147 3.653 2.647 2.687 5.711 5.8 12.4 5.8q10.8 0 13.5-10.8-4.05 5.4-9.45 4.05C29 25.137 27.528 23.646 25.9 22c-2.644-2.69-5.708-5.8-12.4-5.8Z"/></g></svg>
</svg>