<svg xmlns="http://www.w3.org/2000/svg" width="40" height="40" viewBox="0 0 40 40" fill="none">
    <rect x="1" y="1" width="38" height="38" rx="19" stroke="#3178C6" stroke-width="2"/>
    <svg xmlns="http://www.w3.org/2000/svg" viewBox="0 0 16.004 16.004" x="11" y="11" width="18" height="18"><path fill="#3178c6" d="M1.563 0h12.879A1.563 1.563 0 0 1 16 1.563v12.879A1.563 1.563 0 0 1 14.442 16H1.563A1.563 1.563 0 0 1 0 14.442V1.563A1.563 1.563 0 0 1 1.563 0Z"/><path fill="#fff" fill-rule="evenodd" d="M9.908 12.739v1.563a3.317 3.317 0 0 0 .9.294 5.941 5.941 0 0 0 1.1.1 5.133 5.133 0 0 0 1.069-.107 2.62 2.62 0 0 0 .888-.354 1.806 1.806 0 0 0 .6-.646 2.274 2.274 0 0 0 .095-1.731 1.742 1.742 0 0 0-.367-.572 2.684 2.684 0 0 0-.572-.447 6.164 6.164 0 0 0-.756-.374q-.309-.127-.553-.247a2.8 2.8 0 0 1-.416-.245 1.066 1.066 0 0 1-.264-.264.556.556 0 0 1-.093-.315.527.527 0 0 1 .083-.292.718.718 0 0 1 .234-.223 1.258 1.258 0 0 1 .371-.144 2.157 2.157 0 0 1 .489-.051 3.1 3.1 0 0 1 .414.03 3.268 3.268 0 0 1 .438.09 3.049 3.049 0 0 1 .428.154 2.364 2.364 0 0 1 .384.215V7.711a3.821 3.821 0 0 0-.781-.2 6.361 6.361 0 0 0-.971-.066 4.514 4.514 0 0 0-1.056.114 2.688 2.688 0 0 0-.878.374 1.869 1.869 0 0 0-.6.648 1.9 1.9 0 0 0-.221.941 1.829 1.829 0 0 0 .4 1.193 3.072 3.072 0 0 0 1.225.836q.322.132.6.26a3.349 3.349 0 0 1 .482.264 1.264 1.264 0 0 1 .32.3.608.608 0 0 1 .114.367.561.561 0 0 1-.073.281.651.651 0 0 1-.223.229 1.219 1.219 0 0 1-.372.149 2.233 2.233 0 0 1-.521.054 2.972 2.972 0 0 1-1.008-.178 3.006 3.006 0 0 1-.909-.538ZM7.279 8.883h2.01V7.599h-5.6v1.284h2v5.716h1.59Z"/></svg>
</svg>