<svg xmlns="http://www.w3.org/2000/svg" width="40" height="40" viewBox="0 0 40 40" fill="none">
    <rect x="1" y="1" width="38" height="38" rx="19" stroke="#8ED6FB" stroke-width="2"/>
    <svg xmlns="http://www.w3.org/2000/svg" viewBox="0 0 530 599.7" x="11" y="9.816415094339622" width="18" height="20.367169811320757"><path fill="#fff" d="m265 0 265 149.9v299.9L265 599.7 0 449.8V149.9Z"/><path fill="#8ed6fb" d="M482.7 439.4 273.8 557.7v-92L404 394Zm14.3-12.9V179.3l-76.4 44.1v159ZM46.5 439.4l208.9 118.2v-92L125.2 394Zm-14.3-12.9V179.3l76.4 44.1v159l-76.4 44.1Zm8.9-263.2L255.4 42.1v89l-137.3 75.5-1.1.6-75.9-43.9Zm446.9 0L273.8 42.1v89L411 206.7l1.1.6 75.9-44Z"/><path fill="#1c78c0" d="M255.4 444.7 127 374V234.1l128.4 74.1Zm18.4 0 128.4-70.6v-140l-128.4 74.1Zm-9.2-141.8Zm-129-85 129-70.9 128.9 70.9-128.9 74.4Z"/></svg>
</svg>