<svg viewBox="0 0 78.00457240837322 25" width="78.00457240837322" height="25" xmlns="http://www.w3.org/2000/svg">
<rect x="0.5" y="0.5" width="77.00457240837322" height="24" rx="4.5" fill="#ffffff" stroke="#eeeeee"/>
<svg xmlns="http://www.w3.org/2000/svg" viewBox="0 0 14.001 13.997" x="11" y="4.5" width="16.00457240837322" height="16"><defs><radialGradient id="a" cx=".5" cy=".5" r=".5" gradientTransform="matrix(1 0 0 -1 0 .886)" gradientUnits="objectBoundingBox"><stop offset="0" stop-color="#fff" stop-opacity=".102"/><stop offset="1" stop-color="#fff" stop-opacity="0"/></radialGradient></defs><path fill="#01579b" d="M2.857 11.143.464 8.749a1.628 1.628 0 0 1-.461-1.1 1.86 1.86 0 0 1 .184-.645l2.21-4.6Z"/><path fill="#40c4ff" d="M11.053 2.855 8.659.462A1.652 1.652 0 0 0 7.646.001a1.7 1.7 0 0 0-.829.184l-4.42 2.21ZM5.712 13.997h5.8v-2.486L7.186 10.13l-3.959 1.381Z"/><path fill="#29b6f6" d="M2.398 9.854a1.4 1.4 0 0 0 .461 1.289l.369.373h8.287l-4.051-4.6-5.066-4.52Z"/><path fill="#01579b" d="M9.764 2.395H2.397l9.116 9.116h2.486V5.802l-2.946-2.946a1.556 1.556 0 0 0-1.289-.461Z"/><path fill="#fff" d="M2.95 11.235a1.691 1.691 0 0 1-.461-1.381V2.488l-.093-.093v7.458a1.451 1.451 0 0 0 .553 1.382l.277.277Z" opacity=".2"/><path fill="#263238" d="M13.907 5.71v5.709h-2.486l.093.092h2.487V5.8Z" opacity=".2"/><path fill="#fff" d="M11.053 2.856a1.612 1.612 0 0 0-1.381-.461H2.398l.093.093h7.183a1.905 1.905 0 0 1 1.38.368Z" opacity=".2"/><path fill="url(#a)" d="m15.793 6.3-2.854-2.856-2.394-2.393A1.652 1.652 0 0 0 9.532.59 1.7 1.7 0 0 0 8.7.774l-4.42 2.21-2.21 4.6a1.86 1.86 0 0 0-.184.645 1.628 1.628 0 0 0 .461 1.1l2.207 2.19a2.488 2.488 0 0 0 .188.2l.093.093.277.277 2.394 2.394.093.093h5.8V12.1h2.486V6.392Z" opacity=".2" transform="translate(-1.886 -.589)"/></svg>
<svg xmlns="http://www.w3.org/2000/svg" xmlns:xlink="http://www.w3.org/1999/xlink" width="36" height="19.8" x="32.00457240837322" y="2.5"><path fill="#000000" d="M4.38 15L1.13 15L1.13 4.05L4.38 4.05Q5.49 4.05 6.31 4.48Q7.13 4.91 7.57 5.67Q8.03 6.44 8.03 7.47L8.03 7.47L8.03 11.56Q8.03 12.60 7.57 13.37Q7.13 14.14 6.31 14.57Q5.49 15 4.38 15L4.38 15ZM3 5.73L3 13.32L4.38 13.32Q5.19 13.32 5.67 12.85Q6.15 12.38 6.15 11.56L6.15 11.56L6.15 7.47Q6.15 6.68 5.67 6.20Q5.19 5.73 4.38 5.73L4.38 5.73L3 5.73ZM12.59 15.15L12.59 15.15Q11.32 15.15 10.60 14.44Q9.87 13.72 9.87 12.57L9.87 12.57Q9.87 11.37 10.70 10.66Q11.52 9.95 12.96 9.95L12.96 9.95L14.97 9.95L14.97 9.36Q14.97 8.12 13.52 8.12L13.52 8.12Q12.86 8.12 12.46 8.37Q12.07 8.63 12.03 9.09L12.03 9.09L10.23 9.09Q10.29 7.98 11.17 7.29Q12.04 6.60 13.53 6.60L13.53 6.60Q15.11 6.60 15.97 7.33Q16.84 8.07 16.84 9.41L16.84 9.41L16.84 15L15.02 15L15.02 13.46Q14.91 14.25 14.27 14.70Q13.62 15.15 12.59 15.15ZM13.18 13.62L13.18 13.62Q14.01 13.62 14.49 13.21Q14.97 12.81 14.97 12.13L14.97 12.13L14.97 11.16L13.05 11.16Q12.44 11.16 12.07 11.51Q11.71 11.85 11.71 12.39L11.71 12.39Q11.71 12.95 12.10 13.28Q12.48 13.62 13.18 13.62ZM21.33 15L19.45 15L19.45 6.75L21.29 6.75L21.29 8.36Q21.43 7.54 22.03 7.07Q22.62 6.60 23.56 6.60L23.56 6.60Q24.82 6.60 25.53 7.41Q26.23 8.22 26.23 9.68L26.23 9.68L26.23 10.46L24.36 10.46L24.36 9.77Q24.36 9.02 23.97 8.62Q23.58 8.22 22.86 8.22L22.86 8.22Q22.11 8.22 21.72 8.67Q21.33 9.12 21.33 9.95L21.33 9.95L21.33 15ZM34.91 15L32.33 15Q31.17 15 30.49 14.33Q29.80 13.66 29.80 12.53L29.80 12.53L29.80 8.45L27.52 8.45L27.52 6.75L29.80 6.75L29.80 4.43L31.70 4.43L31.70 6.75L34.98 6.75L34.98 8.45L31.70 8.45L31.70 12.48Q31.70 12.84 31.90 13.07Q32.10 13.30 32.46 13.30L32.46 13.30L34.91 13.30L34.91 15Z"/></svg>
</svg>