<svg viewBox="0 0 69.00034825762359 25" width="69.00034825762359" height="25" xmlns="http://www.w3.org/2000/svg">
<rect x="0.5" y="0.5" width="68.00034825762359" height="24" rx="4.5" fill="#ffffff" stroke="#eeeeee"/>
<svg xmlns="http://www.w3.org/2000/svg" viewBox="0 0 91.888 91.886" x="11" y="4.5" width="16.00034825762358" height="16"><path fill="#f05133" d="M90.155 41.85 50.036 1.733a5.918 5.918 0 0 0-8.369 0l-8.33 8.332 10.567 10.567a7.028 7.028 0 0 1 8.9 8.96l10.185 10.185a7.035 7.035 0 1 1-4.217 3.971l-9.5-9.5v25a7.03 7.03 0 1 1-5.789-.2V33.811a7.045 7.045 0 0 1-3.823-9.235L29.245 14.157 1.733 41.664a5.92 5.92 0 0 0 0 8.371l40.121 40.118a5.918 5.918 0 0 0 8.369 0l39.932-39.932a5.92 5.92 0 0 0 0-8.371Z"/></svg>
<svg xmlns="http://www.w3.org/2000/svg" xmlns:xlink="http://www.w3.org/1999/xlink" width="27" height="19.8" x="32.00034825762358" y="2.5"><path fill="#000000" d="M4.56 15.15L4.56 15.15Q3.49 15.15 2.71 14.75Q1.93 14.36 1.51 13.63Q1.08 12.90 1.08 11.91L1.08 11.91L1.08 7.14Q1.08 6.15 1.51 5.42Q1.93 4.70 2.71 4.30Q3.49 3.90 4.56 3.90L4.56 3.90Q5.61 3.90 6.39 4.30Q7.17 4.70 7.60 5.42Q8.04 6.15 8.04 7.14L8.04 7.14L6.15 7.14Q6.15 6.38 5.74 5.96Q5.33 5.55 4.56 5.55L4.56 5.55Q3.79 5.55 3.38 5.96Q2.96 6.36 2.96 7.13L2.96 7.13L2.96 11.91Q2.96 12.68 3.38 13.10Q3.79 13.52 4.56 13.52L4.56 13.52Q5.33 13.52 5.74 13.10Q6.15 12.68 6.15 11.91L6.15 11.91L6.15 10.70L4.29 10.70L4.29 9.07L8.04 9.07L8.04 11.91Q8.04 12.90 7.60 13.63Q7.17 14.36 6.39 14.75Q5.61 15.15 4.56 15.15ZM17.37 15L10.14 15L10.14 13.30L12.96 13.30L12.96 8.45L10.44 8.45L10.44 6.75L14.84 6.75L14.84 13.30L17.37 13.30L17.37 15ZM13.77 5.37L13.77 5.37Q13.20 5.37 12.87 5.08Q12.54 4.79 12.54 4.29L12.54 4.29Q12.54 3.79 12.87 3.50Q13.20 3.21 13.77 3.21L13.77 3.21Q14.34 3.21 14.67 3.50Q15 3.79 15 4.29L15 4.29Q15 4.79 14.67 5.08Q14.34 5.37 13.77 5.37ZM25.91 15L23.32 15Q22.17 15 21.49 14.33Q20.80 13.66 20.80 12.53L20.80 12.53L20.80 8.45L18.52 8.45L18.52 6.75L20.80 6.75L20.80 4.43L22.70 4.43L22.70 6.75L25.98 6.75L25.98 8.45L22.70 8.45L22.70 12.48Q22.70 12.84 22.90 13.07Q23.10 13.30 23.46 13.30L23.46 13.30L25.91 13.30L25.91 15Z"/></svg>
</svg>