<svg viewBox="0 0 175.4248 25" width="175.4248" height="25" xmlns="http://www.w3.org/2000/svg">
<rect x="0.5" y="0.5" width="174.4248" height="24" rx="4.5" fill="#ffffff" stroke="#eeeeee"/>
<svg xmlns="http://www.w3.org/2000/svg" viewBox="0 0 36.062 40" x="11" y="4.5" width="14.4248" height="16"><path fill="#083042" d="M10.857 24.169a1.26 1.26 0 0 1-.148-.406 1.433 1.433 0 0 0 .148.406m.182.225a.915.915 0 0 0 .236.173l5.949 3.329-5.949-3.329a.914.914 0 0 1-.235-.173Z"/><path fill="#083042" d="M18.143 32.103h-.044a2.615 2.615 0 0 1-1.265-.32l-8.88-4.963a1.638 1.638 0 0 1-.846-1.426V15.303a2.676 2.676 0 0 1 .262-1.211L.428 10.225a4.534 4.534 0 0 0-.427 2.006v16.672a2.735 2.735 0 0 0 1.4 2.36l14.646 8.2a4.257 4.257 0 0 0 2.085.536v-.009c.017-1.046.009-5.239.009-7.885Z"/><path fill="#3ddb85" d="m25.114 15.921-.053-.078c-.043-.06-.087-.112-.13-.173.043.052.087.112.13.172a.315.315 0 0 1 .053.078m-7.31-4.046c.044 0 .079-.009.123-.009a.64.64 0 0 1-.123.009"/><path fill="#3ddc84" d="M7.363 14.08a2.269 2.269 0 0 1 .89-.968l8.361-4.884a2.543 2.543 0 0 1 2.53-.026l8.439 4.726a2.836 2.836 0 0 1 .951.864l6.83-4.034a4.7 4.7 0 0 0-1.561-1.418L19.854.533a4.2 4.2 0 0 0-4.17.043L1.894 8.634a3.687 3.687 0 0 0-1.466 1.594l6.935 3.856Z"/><path fill="#3ddb85" d="M17.456 11.946c.018-.009.036-.009.054-.018-.018.009-.036.009-.054.018m-6.579 4.08a.8.8 0 0 1 .053-.095c-.018.034-.035.06-.053.095l-.026.078Z"/><path fill="#4285f4" d="m35.355 9.758-6.832 4.037a2.366 2.366 0 0 1 .427 1.288v9.614a2.483 2.483 0 0 1-1.238 2.179l-8.357 4.886a2.552 2.552 0 0 1-1.213.346c.009 2.637.009 6.83-.009 7.876v.009a4.263 4.263 0 0 0 2.09-.575l13.791-8.066a4.116 4.116 0 0 0 2.05-3.6V11.893a3.839 3.839 0 0 0-.706-2.135"/><path fill="#4285f4" d="M25.272 23.668c-.009.018-.009.035-.018.053a.126.126 0 0 0 .018-.053m-.088-7.63a.9.9 0 0 0-.07-.121c.026.043.052.087.07.121Zm-6.263 11.849 5.6-3.276c.035-.017.061-.043.1-.061-.035.017-.061.043-.1.061l-5.6 3.277Zm6.281-4.02c-.018.043-.044.087-.062.13a.459.459 0 0 1 .062-.13"/><path fill="#d6f0ff" d="M10.853 16.103a1.733 1.733 0 0 0-.131.528 1.7 1.7 0 0 0-.009.216v6.769a.826.826 0 0 0 .009.147.965.965 0 0 0 .148.406 1.551 1.551 0 0 0 .175.224.934.934 0 0 0 .235.173l5.95 3.328a1.733 1.733 0 0 0 .846.216h.061a1.626 1.626 0 0 0 .785-.233l5.6-3.277c.035-.017.061-.043.1-.06a1.338 1.338 0 0 0 .175-.139 2.007 2.007 0 0 0 .227-.242c.043-.061.087-.121.122-.181a.831.831 0 0 0 .061-.13c.018-.043.044-.095.061-.147.009-.018.009-.035.017-.052a1.7 1.7 0 0 0 .078-.519v-6.439a1.518 1.518 0 0 0-.043-.345 1.6 1.6 0 0 0-.07-.217l-.052-.1a.888.888 0 0 0-.07-.121l-.052-.078c-.043-.061-.087-.112-.131-.173a1.764 1.764 0 0 0-.506-.406l-5.661-3.172a1.562 1.562 0 0 0-.742-.216h-.118a.609.609 0 0 0-.122.008 1.8 1.8 0 0 0-.3.052c-.017.009-.035.009-.052.018a1.609 1.609 0 0 0-.375.164l-5.6 3.277a1.449 1.449 0 0 0-.419.372c-.043.06-.087.121-.122.181-.017.035-.035.061-.052.1l-.026.078Z"/><path fill="#083042" d="M18.135 28.111h-.061a1.733 1.733 0 0 1-.846-.216l-5.949-3.329a1.166 1.166 0 0 1-.236-.173 1.04 1.04 0 0 1-.175-.225 1.26 1.26 0 0 1-.148-.406.788.788 0 0 1-.009-.147v-6.77a1.715 1.715 0 0 1 .009-.216 1.8 1.8 0 0 1 .131-.527l-1.605-.98-1.884-1.046a2.791 2.791 0 0 0-.262 1.21v10.1a1.676 1.676 0 0 0 .846 1.427l8.872 4.971a2.521 2.521 0 0 0 1.265.32h.044c0-1.288-.009-2.2-.009-2.2l.017-1.79Z"/><path fill="#041619" d="M18.135 28.111h-.061a1.733 1.733 0 0 1-.846-.216l-5.949-3.329a1.166 1.166 0 0 1-.236-.173 1.04 1.04 0 0 1-.175-.225 1.26 1.26 0 0 1-.148-.406.788.788 0 0 1-.009-.147v-6.77a1.715 1.715 0 0 1 .009-.216 1.8 1.8 0 0 1 .131-.527l-1.605-.98-1.884-1.046a2.791 2.791 0 0 0-.262 1.21v10.1a1.676 1.676 0 0 0 .846 1.427l8.872 4.971a2.521 2.521 0 0 0 1.265.32h.044c0-1.288-.009-2.2-.009-2.2l.017-1.79Z"/><path fill="#3ddb85" d="M27.574 12.93 19.13 8.2a2.543 2.543 0 0 0-2.53.026l-8.356 4.885a2.221 2.221 0 0 0-.89.968l1.894 1.046 1.6.976.026-.078a.949.949 0 0 1 .052-.1c.035-.06.079-.121.122-.181a1.569 1.569 0 0 1 .419-.372l5.6-3.277a2.046 2.046 0 0 1 .375-.164c.018-.009.035-.009.052-.018a1.614 1.614 0 0 1 .3-.052c.043 0 .078-.009.122-.009h.113a1.954 1.954 0 0 1 .436.078 1.386 1.386 0 0 1 .305.139l5.661 3.173a1.891 1.891 0 0 1 .507.406c.043.052.087.112.13.173l.053.078 1.448-.959 1.963-1.167a3 3 0 0 0-.959-.848Z"/><path fill="#37bf6e" d="M27.574 12.93 19.13 8.2a2.543 2.543 0 0 0-2.53.026l-8.356 4.885a2.221 2.221 0 0 0-.89.968l1.894 1.046 1.6.976.026-.078a.949.949 0 0 1 .052-.1c.035-.06.079-.121.122-.181a1.569 1.569 0 0 1 .419-.372l5.6-3.277a2.046 2.046 0 0 1 .375-.164c.018-.009.035-.009.052-.018a1.614 1.614 0 0 1 .3-.052c.043 0 .078-.009.122-.009h.113a1.954 1.954 0 0 1 .436.078 1.386 1.386 0 0 1 .305.139l5.661 3.173a1.891 1.891 0 0 1 .507.406c.043.052.087.112.13.173l.053.078 1.448-.959 1.963-1.167a3 3 0 0 0-.959-.848Z"/><path fill="#4285f4" d="M25.114 15.922c.026.043.044.078.07.121l.053.1a1.512 1.512 0 0 1 .113.562v6.441a1.7 1.7 0 0 1-.079.519c-.009.017-.009.035-.017.052a1.071 1.071 0 0 1-.061.147c-.018.043-.044.086-.061.129a2.11 2.11 0 0 1-.122.182 1.89 1.89 0 0 1-.227.242 1.366 1.366 0 0 1-.175.139c-.035.017-.061.043-.1.06l-5.6 3.276a1.84 1.84 0 0 1-.785.234v1.789s0 .917.009 2.2a2.458 2.458 0 0 0 1.213-.346l8.356-4.885a2.5 2.5 0 0 0 1.241-2.17V15.1a2.346 2.346 0 0 0-.427-1.288l-1.963 1.167Z"/><path fill="#3870b2" d="M25.114 15.922c.026.043.044.078.07.121l.053.1a1.512 1.512 0 0 1 .113.562v6.441a1.7 1.7 0 0 1-.079.519c-.009.017-.009.035-.017.052a1.071 1.071 0 0 1-.061.147c-.018.043-.044.086-.061.129a2.11 2.11 0 0 1-.122.182 1.89 1.89 0 0 1-.227.242 1.366 1.366 0 0 1-.175.139c-.035.017-.061.043-.1.06l-5.6 3.276a1.84 1.84 0 0 1-.785.234v1.789s0 .917.009 2.2a2.458 2.458 0 0 0 1.213-.346l8.356-4.885a2.5 2.5 0 0 0 1.241-2.17V15.1a2.346 2.346 0 0 0-.427-1.288l-1.963 1.167Z"/><path fill="#d6f0ff" d="M17.455 11.945a1.6 1.6 0 0 0-.375.164l-5.6 3.277 5.6-3.276a1.418 1.418 0 0 1 .375-.164Z"/><path d="M17.455 11.945a1.6 1.6 0 0 0-.375.164l-5.6 3.277 5.6-3.276a1.418 1.418 0 0 1 .375-.164Z" opacity=".1"/><path fill="#d6f0ff" d="M24.931 15.671a1.765 1.765 0 0 0-.506-.406l-5.662-3.173 5.661 3.173a1.764 1.764 0 0 1 .506.406"/><path d="M24.931 15.671a1.765 1.765 0 0 0-.506-.406l-5.662-3.173 5.661 3.173a1.764 1.764 0 0 1 .506.406" opacity=".1"/><path fill="#d6f0ff" d="M25.237 16.138a2.206 2.206 0 0 1 .069.216c-.017-.069-.044-.138-.07-.216Z"/><path d="M25.237 16.138a2.206 2.206 0 0 1 .069.216c-.017-.069-.044-.138-.07-.216Z" opacity=".1"/><path fill="#d6f0ff" d="M25.27 23.668a1.67 1.67 0 0 0 .078-.519 1.67 1.67 0 0 1-.079.519Z"/><path d="M25.27 23.668a1.67 1.67 0 0 0 .078-.519 1.67 1.67 0 0 1-.079.519Z" opacity=".1"/></svg>
<svg xmlns="http://www.w3.org/2000/svg" xmlns:xlink="http://www.w3.org/1999/xlink" width="135" height="19.8" x="30.424799999999998" y="2.5"><path fill="#000000" d="M4.05 15.15L4.05 15.15Q2.38 15.15 1.42 14.23Q0.45 13.32 0.45 11.76L0.45 11.76L2.32 11.76Q2.32 12.57 2.78 13.04Q3.24 13.52 4.05 13.52L4.05 13.52Q4.84 13.52 5.31 13.05Q5.77 12.59 5.77 11.78L5.77 11.78L5.77 4.05L7.65 4.05L7.65 11.78Q7.65 13.34 6.68 14.24Q5.71 15.15 4.05 15.15ZM13.52 15.15L13.52 15.15Q12.46 15.15 11.69 14.74Q10.90 14.34 10.48 13.60Q10.05 12.86 10.05 11.85L10.05 11.85L10.05 9.90Q10.05 8.89 10.48 8.15Q10.90 7.41 11.69 7.00Q12.46 6.60 13.52 6.60L13.52 6.60Q14.55 6.60 15.32 7.00Q16.09 7.41 16.52 8.14Q16.95 8.87 16.95 9.84L16.95 9.84L16.95 11.34L11.85 11.34L11.85 11.91Q11.85 12.75 12.29 13.18Q12.72 13.61 13.52 13.61L13.52 13.61Q14.10 13.61 14.51 13.40Q14.93 13.20 15 12.81L15 12.81L16.86 12.81Q16.66 13.88 15.75 14.51Q14.84 15.15 13.52 15.15ZM11.85 9.84L11.85 9.84L11.85 10.13L15.15 10.11L15.15 9.82Q15.15 8.97 14.73 8.50Q14.31 8.04 13.52 8.04L13.52 8.04Q12.69 8.04 12.27 8.51Q11.85 8.98 11.85 9.84ZM25.91 15L23.32 15Q22.17 15 21.49 14.33Q20.80 13.66 20.80 12.53L20.80 12.53L20.80 8.45L18.52 8.45L18.52 6.75L20.80 6.75L20.80 4.43L22.70 4.43L22.70 6.75L25.98 6.75L25.98 8.45L22.70 8.45L22.70 12.48Q22.70 12.84 22.90 13.07Q23.10 13.30 23.46 13.30L23.46 13.30L25.91 13.30L25.91 15ZM30.03 17.70L28.16 17.70L28.16 6.75L29.98 6.75L29.98 8.27Q30.21 7.49 30.80 7.04Q31.38 6.60 32.25 6.60L32.25 6.60Q33.05 6.60 33.65 6.99Q34.26 7.38 34.60 8.09Q34.94 8.80 34.94 9.75L34.94 9.75L34.94 11.98Q34.94 13.41 34.20 14.28Q33.47 15.15 32.25 15.15L32.25 15.15Q31.38 15.15 30.79 14.70Q30.20 14.25 29.97 13.44L29.97 13.44L30.03 15.39L30.03 17.70ZM31.55 13.53L31.55 13.53Q32.27 13.53 32.66 13.14Q33.06 12.75 33.06 11.94L33.06 11.94L33.06 9.81Q33.06 9 32.66 8.61Q32.27 8.22 31.55 8.22L31.55 8.22Q30.82 8.22 30.43 8.66Q30.03 9.09 30.03 9.88L30.03 9.88L30.03 11.87Q30.03 12.66 30.43 13.10Q30.82 13.53 31.55 13.53ZM39.59 15.15L39.59 15.15Q38.33 15.15 37.60 14.44Q36.87 13.72 36.87 12.57L36.87 12.57Q36.87 11.37 37.70 10.66Q38.52 9.95 39.96 9.95L39.96 9.95L41.97 9.95L41.97 9.36Q41.97 8.12 40.52 8.12L40.52 8.12Q39.85 8.12 39.47 8.37Q39.08 8.63 39.03 9.09L39.03 9.09L37.23 9.09Q37.29 7.98 38.17 7.29Q39.05 6.60 40.53 6.60L40.53 6.60Q42.10 6.60 42.98 7.33Q43.84 8.07 43.84 9.41L43.84 9.41L43.84 15L42.02 15L42.02 13.46Q41.91 14.25 41.27 14.70Q40.62 15.15 39.59 15.15ZM40.19 13.62L40.19 13.62Q41.01 13.62 41.49 13.21Q41.97 12.81 41.97 12.13L41.97 12.13L41.97 11.16L40.05 11.16Q39.44 11.16 39.08 11.51Q38.72 11.85 38.72 12.39L38.72 12.39Q38.72 12.95 39.10 13.28Q39.48 13.62 40.19 13.62ZM49.63 15.15L49.63 15.15Q48.57 15.15 47.78 14.75Q46.99 14.36 46.56 13.63Q46.13 12.90 46.13 11.91L46.13 11.91L46.13 9.84Q46.13 8.85 46.56 8.12Q46.99 7.40 47.78 7.00Q48.57 6.60 49.63 6.60L49.63 6.60Q51.18 6.60 52.12 7.40Q53.05 8.21 53.10 9.59L53.10 9.59L51.26 9.59Q51.21 8.94 50.77 8.59Q50.33 8.23 49.63 8.23L49.63 8.23Q48.87 8.23 48.44 8.65Q48 9.06 48 9.82L48 9.82L48 11.91Q48 12.68 48.44 13.10Q48.87 13.52 49.63 13.52L49.63 13.52Q50.34 13.52 50.77 13.16Q51.21 12.81 51.26 12.16L51.26 12.16L53.10 12.16Q53.05 13.54 52.12 14.35Q51.18 15.15 49.63 15.15ZM57.10 15L55.23 15L55.23 4.05L57.10 4.05L57.10 9.99L58.42 9.99L60.39 6.75L62.48 6.75L60.03 10.74L62.56 15L60.44 15L58.42 11.58L57.10 11.58L57.10 15ZM76.62 15.15L76.62 15.15Q75.56 15.15 74.78 14.75Q74.00 14.36 73.57 13.63Q73.14 12.90 73.14 11.91L73.14 11.91L73.14 7.14Q73.14 6.15 73.57 5.42Q74.00 4.70 74.78 4.30Q75.56 3.90 76.62 3.90L76.62 3.90Q77.67 3.90 78.45 4.30Q79.23 4.70 79.67 5.42Q80.10 6.15 80.10 7.14L80.10 7.14L78.21 7.14Q78.21 6.38 77.80 5.96Q77.39 5.55 76.62 5.55L76.62 5.55Q75.86 5.55 75.44 5.96Q75.02 6.38 75.02 7.14L75.02 7.14L75.02 11.91Q75.02 12.68 75.44 13.09Q75.86 13.50 76.62 13.50L76.62 13.50Q77.39 13.50 77.80 13.09Q78.21 12.68 78.21 11.91L78.21 11.91L80.10 11.91Q80.10 12.90 79.67 13.63Q79.23 14.36 78.45 14.75Q77.67 15.15 76.62 15.15ZM85.50 15.13L85.50 15.13Q83.91 15.13 82.98 14.24Q82.05 13.35 82.05 11.84L82.05 11.84L82.05 9.91Q82.05 8.39 82.98 7.50Q83.91 6.62 85.50 6.62L85.50 6.62Q87.09 6.62 88.02 7.50Q88.95 8.39 88.95 9.91L88.95 9.91L88.95 11.84Q88.95 13.35 88.02 14.24Q87.09 15.13 85.50 15.13ZM85.50 13.50L85.50 13.50Q86.25 13.50 86.66 13.09Q87.08 12.68 87.08 11.89L87.08 11.89L87.08 9.86Q87.08 9.07 86.66 8.66Q86.25 8.25 85.50 8.25L85.50 8.25Q84.75 8.25 84.34 8.66Q83.92 9.07 83.92 9.86L83.92 9.86L83.92 11.89Q83.92 12.68 84.34 13.09Q84.75 13.50 85.50 13.50ZM92.36 15L90.70 15L90.70 6.75L92.27 6.75L92.27 7.95L92.31 7.95Q92.36 7.35 92.73 6.97Q93.11 6.60 93.67 6.60L93.67 6.60Q94.23 6.60 94.62 6.95Q95.01 7.31 95.14 7.91L95.14 7.91Q95.20 7.31 95.59 6.95Q95.97 6.60 96.56 6.60L96.56 6.60Q97.31 6.60 97.80 7.19Q98.30 7.79 98.30 8.71L98.30 8.71L98.30 15L96.64 15L96.64 8.85Q96.64 8.45 96.46 8.21Q96.27 7.98 95.92 7.98L95.92 7.98Q95.25 7.98 95.25 8.85L95.25 8.85L95.25 15L93.75 15L93.75 8.85Q93.75 8.45 93.58 8.21Q93.41 7.98 93.08 7.98L93.08 7.98Q92.36 7.98 92.36 8.85L92.36 8.85L92.36 15ZM102.03 17.70L100.16 17.70L100.16 6.75L101.98 6.75L101.98 8.27Q102.21 7.49 102.80 7.04Q103.38 6.60 104.25 6.60L104.25 6.60Q105.05 6.60 105.65 6.99Q106.26 7.38 106.60 8.09Q106.94 8.80 106.94 9.75L106.94 9.75L106.94 11.98Q106.94 13.41 106.20 14.28Q105.47 15.15 104.25 15.15L104.25 15.15Q103.38 15.15 102.79 14.70Q102.19 14.25 101.97 13.44L101.97 13.44L102.03 15.39L102.03 17.70ZM103.55 13.53L103.55 13.53Q104.27 13.53 104.66 13.14Q105.06 12.75 105.06 11.94L105.06 11.94L105.06 9.81Q105.06 9 104.66 8.61Q104.27 8.22 103.55 8.22L103.55 8.22Q102.83 8.22 102.43 8.66Q102.03 9.09 102.03 9.88L102.03 9.88L102.03 11.87Q102.03 12.66 102.43 13.10Q102.83 13.53 103.55 13.53ZM112.50 15.13L112.50 15.13Q110.91 15.13 109.98 14.24Q109.05 13.35 109.05 11.84L109.05 11.84L109.05 9.91Q109.05 8.39 109.98 7.50Q110.91 6.62 112.50 6.62L112.50 6.62Q114.09 6.62 115.02 7.50Q115.95 8.39 115.95 9.91L115.95 9.91L115.95 11.84Q115.95 13.35 115.02 14.24Q114.09 15.13 112.50 15.13ZM112.50 13.50L112.50 13.50Q113.25 13.50 113.66 13.09Q114.08 12.68 114.08 11.89L114.08 11.89L114.08 9.86Q114.08 9.07 113.66 8.66Q113.25 8.25 112.50 8.25L112.50 8.25Q111.75 8.25 111.34 8.66Q110.92 9.07 110.92 9.86L110.92 9.86L110.92 11.89Q110.92 12.68 111.34 13.09Q111.75 13.50 112.50 13.50ZM121.81 15.13L121.16 15.13Q119.69 15.13 118.83 14.47Q117.97 13.80 117.97 12.66L117.97 12.66L119.82 12.66Q119.82 13.14 120.17 13.39Q120.53 13.65 121.16 13.65L121.16 13.65L121.81 13.65Q122.49 13.65 122.86 13.39Q123.22 13.14 123.22 12.66L123.22 12.66Q123.22 12.21 122.97 11.99Q122.72 11.78 122.19 11.70L122.19 11.70L120.14 11.43Q119.14 11.29 118.61 10.66Q118.08 10.04 118.08 9.03L118.08 9.03Q118.08 7.86 118.86 7.24Q119.64 6.62 121.11 6.62L121.11 6.62L121.80 6.62Q123.18 6.62 124.02 7.25Q124.86 7.88 124.89 8.93L124.89 8.93L123.03 8.93Q123.02 8.54 122.69 8.30Q122.36 8.07 121.80 8.07L121.80 8.07L121.11 8.07Q120.51 8.07 120.19 8.32Q119.88 8.57 119.88 8.98L119.88 8.98Q119.88 9.36 120.11 9.54Q120.34 9.72 120.80 9.77L120.80 9.77L122.73 10.04Q123.87 10.17 124.45 10.84Q125.03 11.51 125.03 12.63L125.03 12.63Q125.03 13.83 124.21 14.48Q123.39 15.13 121.81 15.13L121.81 15.13ZM130.51 15.15L130.51 15.15Q129.47 15.15 128.69 14.74Q127.91 14.34 127.48 13.60Q127.05 12.86 127.05 11.85L127.05 11.85L127.05 9.90Q127.05 8.89 127.48 8.15Q127.91 7.41 128.69 7.00Q129.47 6.60 130.51 6.60L130.51 6.60Q131.55 6.60 132.32 7.00Q133.09 7.41 133.52 8.14Q133.95 8.87 133.95 9.84L133.95 9.84L133.95 11.34L128.85 11.34L128.85 11.91Q128.85 12.75 129.28 13.18Q129.72 13.61 130.51 13.61L130.51 13.61Q131.10 13.61 131.51 13.40Q131.93 13.20 132 12.81L132 12.81L133.86 12.81Q133.66 13.88 132.75 14.51Q131.84 15.15 130.51 15.15ZM128.85 9.84L128.85 9.84L128.85 10.13L132.15 10.11L132.15 9.82Q132.15 8.97 131.73 8.50Q131.31 8.04 130.51 8.04L130.51 8.04Q129.69 8.04 129.27 8.51Q128.85 8.98 128.85 9.84Z"/></svg>
</svg>