<svg viewBox="0 0 96.14929811159574 25" width="96.14929811159574" height="25" xmlns="http://www.w3.org/2000/svg">
<rect x="0.5" y="0.5" width="95.14929811159574" height="24" rx="4.5" fill="#ffffff" stroke="#eeeeee"/>
<svg xmlns="http://www.w3.org/2000/svg" viewBox="0 0 122.879 121.743" x="11" y="4.5" width="16.14929811159574" height="16"><g fill="#21609b" fill-rule="evenodd"><path d="m120.029 90.36-.55 1.43c-9.37 18.25-25.98 29.45-49.67 29.94a69.425 69.425 0 0 1-28.52-5.7 73.625 73.625 0 0 1-34.22-32.32c-9.8-18.98-11.57-45.39 8.81-65.11.31 0-2.47 4.28-2.16 4.28l-.56 1.83c-14.69 45.98 30.56 85.38 74.54 80.88 10.58-1.1 24.06-6.89 32.33-15.23Zm0 0Z"/><path d="M93.409 71.35c11.07.08 22.62-5.1 29.47-12.36-5.99 15.2-23.33 24.97-46.58 21.86-19.47-2.61-38.01-22.2-39.92-41.83-1.4-14.29 3.58-22.81 11.79-33.16-2.85 5.41-3.92 9.58-4.18 12.24-3.13 30.92 24.68 53.09 49.42 53.25Zm0 0Z"/><path d="M121.769 32.97c-1.72 3.95-11.62 11.4-16 12.33-17.32 3.69-28.41-4.52-34.22-13.87a43.94 43.94 0 0 1-2.75-6.18C66.549 17.59 67.579 6 74.299 0c-2.02 5.7-2.32 12.33-1.25 16.64a37.084 37.084 0 0 0 4.58 10.01c3.58 5.21 5.85 6.47 10.46 9.24a28.467 28.467 0 0 0 5.26 2.52c4.36 1.28 13.57 4.66 28.42-5.44Zm0 0Z"/></g></svg>
<svg xmlns="http://www.w3.org/2000/svg" xmlns:xlink="http://www.w3.org/1999/xlink" width="54" height="19.8" x="32.14929811159574" y="2.5"><path fill="#000000" d="M4.05 15.15L4.05 15.15Q2.38 15.15 1.42 14.23Q0.45 13.32 0.45 11.76L0.45 11.76L2.32 11.76Q2.32 12.57 2.78 13.04Q3.24 13.52 4.05 13.52L4.05 13.52Q4.84 13.52 5.31 13.05Q5.77 12.59 5.77 11.78L5.77 11.78L5.77 4.05L7.65 4.05L7.65 11.78Q7.65 13.34 6.68 14.24Q5.71 15.15 4.05 15.15ZM16.84 17.70L14.97 17.70L14.97 15.39L15.03 13.52L15.02 13.52Q14.77 14.28 14.19 14.71Q13.61 15.15 12.75 15.15L12.75 15.15Q11.54 15.15 10.80 14.29Q10.06 13.44 10.06 11.98L10.06 11.98L10.06 9.75Q10.06 8.31 10.81 7.46Q11.55 6.60 12.75 6.60L12.75 6.60Q13.62 6.60 14.21 7.04Q14.79 7.47 15.02 8.25L15.02 8.25L15.02 6.75L16.84 6.75L16.84 17.70ZM13.46 13.53L13.46 13.53Q14.18 13.53 14.57 13.10Q14.97 12.66 14.97 11.87L14.97 11.87L14.97 9.88Q14.97 9.09 14.57 8.66Q14.18 8.22 13.46 8.22L13.46 8.22Q12.73 8.22 12.34 8.61Q11.94 9 11.94 9.78L11.94 9.78L11.94 11.97Q11.94 12.75 12.34 13.14Q12.73 13.53 13.46 13.53ZM22.50 15.15L22.50 15.15Q20.93 15.15 20.02 14.27Q19.13 13.39 19.13 11.88L19.13 11.88L19.13 6.75L21 6.75L21 11.87Q21 12.64 21.39 13.08Q21.78 13.52 22.50 13.52L22.50 13.52Q23.20 13.52 23.60 13.08Q24 12.64 24 11.87L24 11.87L24 6.75L25.88 6.75L25.88 11.88Q25.88 13.39 24.96 14.27Q24.05 15.15 22.50 15.15ZM31.52 15.15L31.52 15.15Q30.46 15.15 29.68 14.74Q28.91 14.34 28.48 13.60Q28.05 12.86 28.05 11.85L28.05 11.85L28.05 9.90Q28.05 8.89 28.48 8.15Q28.91 7.41 29.68 7.00Q30.46 6.60 31.52 6.60L31.52 6.60Q32.55 6.60 33.32 7.00Q34.09 7.41 34.52 8.14Q34.95 8.87 34.95 9.84L34.95 9.84L34.95 11.34L29.85 11.34L29.85 11.91Q29.85 12.75 30.29 13.18Q30.72 13.61 31.52 13.61L31.52 13.61Q32.10 13.61 32.51 13.40Q32.92 13.20 33 12.81L33 12.81L34.86 12.81Q34.66 13.88 33.75 14.51Q32.84 15.15 31.52 15.15ZM29.85 9.84L29.85 9.84L29.85 10.13L33.15 10.11L33.15 9.82Q33.15 8.97 32.73 8.50Q32.31 8.04 31.52 8.04L31.52 8.04Q30.69 8.04 30.27 8.51Q29.85 8.98 29.85 9.84ZM39.33 15L37.45 15L37.45 6.75L39.28 6.75L39.28 8.36Q39.44 7.54 40.03 7.07Q40.62 6.60 41.56 6.60L41.56 6.60Q42.83 6.60 43.53 7.41Q44.23 8.22 44.23 9.68L44.23 9.68L44.23 10.46L42.36 10.46L42.36 9.77Q42.36 9.02 41.97 8.62Q41.58 8.22 40.86 8.22L40.86 8.22Q40.11 8.22 39.72 8.67Q39.33 9.12 39.33 9.95L39.33 9.95L39.33 15ZM49.44 17.70L47.48 17.70L48.65 14.55L45.54 6.75L47.52 6.75L49.11 10.96Q49.24 11.34 49.38 11.78Q49.52 12.22 49.58 12.60L49.58 12.60Q49.62 12.22 49.75 11.78Q49.88 11.34 50.01 10.96L50.01 10.96L51.48 6.75L53.46 6.75L49.44 17.70Z"/></svg>
</svg>