<svg viewBox="0 0 96 25" width="96" height="25" xmlns="http://www.w3.org/2000/svg">
<rect x="0.5" y="0.5" width="95" height="24" rx="4.5" fill="#ffffff" stroke="#eeeeee"/>
<svg xmlns="http://www.w3.org/2000/svg" viewBox="0 0 14 14" x="11" y="4.5" width="16" height="16"><defs><linearGradient id="a" x1=".266" x2=".738" y1="-1.426" y2="-.484" gradientUnits="objectBoundingBox"><stop offset=".097" stop-color="#0095d5"/><stop offset=".301" stop-color="#238ad9"/><stop offset=".621" stop-color="#557bde"/><stop offset=".864" stop-color="#7472e2"/><stop offset="1" stop-color="#806ee3"/></linearGradient><linearGradient id="b" x1=".14" x2=".687" y1="1.506" y2="2.012" gradientUnits="objectBoundingBox"><stop offset=".118" stop-color="#0095d5"/><stop offset=".418" stop-color="#3c83dc"/><stop offset=".696" stop-color="#6d74e1"/><stop offset=".833" stop-color="#806ee3"/></linearGradient><linearGradient id="c" x1="-.168" x2=".762" y1=".097" y2="1.028" gradientUnits="objectBoundingBox"><stop offset=".108" stop-color="#c757bc"/><stop offset=".214" stop-color="#d0609a"/><stop offset=".425" stop-color="#e1725c"/><stop offset=".605" stop-color="#ee7e2f"/><stop offset=".743" stop-color="#f58613"/><stop offset=".823" stop-color="#f88909"/></linearGradient></defs><path fill="url(#a)" d="M0 36.923 7.023 29.9 14 36.923Z" transform="translate(0 -22.923)"/><path fill="url(#b)" d="M0 0h7.023L0 7.583Z"/><path fill="url(#c)" d="M7.023 0 0 7.4V14l7.023-7.023L14 0Z"/></svg>
<svg xmlns="http://www.w3.org/2000/svg" xmlns:xlink="http://www.w3.org/1999/xlink" width="54" height="19.8" x="32" y="2.5"><path fill="#000000" d="M3.01 15L1.14 15L1.14 4.05L3.01 4.05L3.01 8.52L4.30 8.52L6.39 4.05L8.41 4.05L5.96 9.27L8.54 15L6.45 15L4.29 10.16L3.01 10.16L3.01 15ZM13.50 15.13L13.50 15.13Q11.91 15.13 10.98 14.24Q10.05 13.35 10.05 11.84L10.05 11.84L10.05 9.91Q10.05 8.39 10.98 7.50Q11.91 6.62 13.50 6.62L13.50 6.62Q15.09 6.62 16.02 7.50Q16.95 8.39 16.95 9.91L16.95 9.91L16.95 11.84Q16.95 13.35 16.02 14.24Q15.09 15.13 13.50 15.13ZM13.50 13.50L13.50 13.50Q14.25 13.50 14.66 13.09Q15.07 12.68 15.07 11.89L15.07 11.89L15.07 9.86Q15.07 9.07 14.66 8.66Q14.25 8.25 13.50 8.25L13.50 8.25Q12.75 8.25 12.34 8.66Q11.93 9.07 11.93 9.86L11.93 9.86L11.93 11.89Q11.93 12.68 12.34 13.09Q12.75 13.50 13.50 13.50ZM25.91 15L23.32 15Q22.17 15 21.49 14.33Q20.80 13.66 20.80 12.53L20.80 12.53L20.80 8.45L18.52 8.45L18.52 6.75L20.80 6.75L20.80 4.43L22.70 4.43L22.70 6.75L25.98 6.75L25.98 8.45L22.70 8.45L22.70 12.48Q22.70 12.84 22.90 13.07Q23.10 13.30 23.46 13.30L23.46 13.30L25.91 13.30L25.91 15ZM35.38 15L32.84 15Q31.61 15 30.86 14.27Q30.12 13.53 30.12 12.33L30.12 12.33L30.12 5.75L27.41 5.75L27.41 4.05L32.00 4.05L32.00 12.29Q32.00 12.75 32.26 13.03Q32.52 13.30 32.97 13.30L32.97 13.30L35.38 13.30L35.38 15ZM44.37 15L37.14 15L37.14 13.30L39.96 13.30L39.96 8.45L37.44 8.45L37.44 6.75L41.84 6.75L41.84 13.30L44.37 13.30L44.37 15ZM40.77 5.37L40.77 5.37Q40.20 5.37 39.87 5.08Q39.54 4.79 39.54 4.29L39.54 4.29Q39.54 3.79 39.87 3.50Q40.20 3.21 40.77 3.21L40.77 3.21Q41.34 3.21 41.67 3.50Q42 3.79 42 4.29L42 4.29Q42 4.79 41.67 5.08Q41.34 5.37 40.77 5.37ZM48.03 15L46.16 15L46.16 6.75L47.98 6.75L47.98 8.29Q48.13 7.52 48.72 7.06Q49.30 6.60 50.20 6.60L50.20 6.60Q51.42 6.60 52.15 7.41Q52.88 8.22 52.88 9.59L52.88 9.59L52.88 15L51 15L51 9.81Q51 9.04 50.60 8.63Q50.20 8.22 49.53 8.22L49.53 8.22Q48.83 8.22 48.43 8.64Q48.03 9.06 48.03 9.84L48.03 9.84L48.03 15Z"/></svg>
</svg>