<svg viewBox="0 0 96.18174873541861 25" width="96.18174873541861" height="25" xmlns="http://www.w3.org/2000/svg">
<rect x="0.5" y="0.5" width="95.18174873541861" height="24" rx="4.5" fill="#ffffff" stroke="#eeeeee"/>
<svg xmlns="http://www.w3.org/2000/svg" viewBox="0 0 130.443 290.61" x="11" y="4.5" width="7.181748735418602" height="16"><path fill="#10aa50" d="M128.119 115.65c-15.31-67.54-47.22-85.52-55.36-98.23A144.571 144.571 0 0 1 63.859 0c-.43 6-1.22 9.78-6.32 14.33C47.299 23.46 3.809 58.9.149 135.64c-3.41 71.55 52.6 115.67 60 120.23 5.69 2.8 12.62.06 16-2.51 27-18.53 63.89-67.93 52-137.71"/><path fill="#b8c4c2" d="M66.179 217.77c-1.41 17.71-2.42 28-6 38.12 0 0 2.35 16.86 4 34.72h5.84a324.735 324.735 0 0 1 6.37-37.39c-7.56-3.72-9.92-19.91-10.21-35.45Z"/><path fill="#12924f" d="M76.379 253.23c-7.64-3.53-9.85-20.06-10.19-35.46a725.842 725.842 0 0 0 1.65-76.35c-.4-13.36.19-123.74-3.29-139.9a134.29 134.29 0 0 0 8.21 15.89c8.14 12.72 40.06 30.7 55.36 98.24 11.92 69.66-24.77 118.93-51.74 137.58Z"/></svg>
<svg xmlns="http://www.w3.org/2000/svg" xmlns:xlink="http://www.w3.org/1999/xlink" width="63" height="19.8" x="23.1817487354186" y="2.5"><path fill="#000000" d="M2.56 15L0.81 15L0.81 4.05L3.25 4.05L4.48 8.76L5.73 4.05L8.19 4.05L8.19 15L6.43 15L6.43 10.39Q6.43 9.45 6.49 8.44Q6.54 7.43 6.61 6.47Q6.69 5.52 6.78 4.74L6.78 4.74L5.23 10.25L3.69 10.25L2.21 4.88Q2.34 5.91 2.45 7.34Q2.56 8.78 2.56 10.39L2.56 10.39L2.56 15ZM13.50 15.13L13.50 15.13Q11.91 15.13 10.98 14.24Q10.05 13.35 10.05 11.84L10.05 11.84L10.05 9.91Q10.05 8.39 10.98 7.50Q11.91 6.62 13.50 6.62L13.50 6.62Q15.09 6.62 16.02 7.50Q16.95 8.39 16.95 9.91L16.95 9.91L16.95 11.84Q16.95 13.35 16.02 14.24Q15.09 15.13 13.50 15.13ZM13.50 13.50L13.50 13.50Q14.25 13.50 14.66 13.09Q15.07 12.68 15.07 11.89L15.07 11.89L15.07 9.86Q15.07 9.07 14.66 8.66Q14.25 8.25 13.50 8.25L13.50 8.25Q12.75 8.25 12.34 8.66Q11.93 9.07 11.93 9.86L11.93 9.86L11.93 11.89Q11.93 12.68 12.34 13.09Q12.75 13.50 13.50 13.50ZM21.03 15L19.16 15L19.16 6.75L20.98 6.75L20.98 8.29Q21.13 7.52 21.72 7.06Q22.30 6.60 23.20 6.60L23.20 6.60Q24.42 6.60 25.15 7.41Q25.88 8.22 25.88 9.59L25.88 9.59L25.88 15L24 15L24 9.81Q24 9.04 23.60 8.63Q23.20 8.22 22.53 8.22L22.53 8.22Q21.82 8.22 21.43 8.64Q21.03 9.06 21.03 9.84L21.03 9.84L21.03 15ZM31.63 17.70L29.28 17.70L29.28 16.14L31.61 16.14Q32.27 16.14 32.63 15.79Q32.98 15.44 32.98 14.84L32.98 14.84L32.98 14.34L33.02 13.05Q32.76 13.74 32.20 14.12Q31.63 14.51 30.82 14.51L30.82 14.51Q29.57 14.51 28.82 13.66Q28.08 12.81 28.08 11.36L28.08 11.36L28.08 9.75Q28.08 8.31 28.82 7.46Q29.57 6.60 30.82 6.60L30.82 6.60Q31.63 6.60 32.20 6.98Q32.76 7.37 33.02 8.07L33.02 8.07L33.02 6.75L34.84 6.75L34.84 14.88Q34.84 16.18 33.98 16.94Q33.12 17.70 31.63 17.70L31.63 17.70ZM31.45 12.90L31.45 12.90Q32.17 12.90 32.57 12.47Q32.97 12.04 32.97 11.28L32.97 11.28L32.97 9.84Q32.97 9.07 32.57 8.65Q32.17 8.22 31.45 8.22L31.45 8.22Q30.73 8.22 30.34 8.63Q29.95 9.04 29.95 9.78L29.95 9.78L29.95 11.34Q29.95 12.07 30.34 12.49Q30.73 12.90 31.45 12.90ZM40.50 15.13L40.50 15.13Q38.91 15.13 37.98 14.24Q37.05 13.35 37.05 11.84L37.05 11.84L37.05 9.91Q37.05 8.39 37.98 7.50Q38.91 6.62 40.50 6.62L40.50 6.62Q42.09 6.62 43.02 7.50Q43.95 8.39 43.95 9.91L43.95 9.91L43.95 11.84Q43.95 13.35 43.02 14.24Q42.09 15.13 40.50 15.13ZM40.50 13.50L40.50 13.50Q41.25 13.50 41.66 13.09Q42.08 12.68 42.08 11.89L42.08 11.89L42.08 9.86Q42.08 9.07 41.66 8.66Q41.25 8.25 40.50 8.25L40.50 8.25Q39.75 8.25 39.34 8.66Q38.92 9.07 38.92 9.86L38.92 9.86L38.92 11.89Q38.92 12.68 39.34 13.09Q39.75 13.50 40.50 13.50ZM49.38 15L46.13 15L46.13 4.05L49.38 4.05Q50.49 4.05 51.31 4.48Q52.13 4.91 52.58 5.67Q53.02 6.44 53.02 7.47L53.02 7.47L53.02 11.56Q53.02 12.60 52.58 13.37Q52.13 14.14 51.31 14.57Q50.49 15 49.38 15L49.38 15ZM48 5.73L48 13.32L49.38 13.32Q50.19 13.32 50.67 12.85Q51.15 12.38 51.15 11.56L51.15 11.56L51.15 7.47Q51.15 6.68 50.67 6.20Q50.19 5.73 49.38 5.73L49.38 5.73L48 5.73ZM58.68 15L55.16 15L55.16 4.05L58.52 4.05Q60.09 4.05 61.03 4.81Q61.97 5.58 61.97 6.87L61.97 6.87Q61.97 7.77 61.45 8.41Q60.93 9.06 60.10 9.20L60.10 9.20L60.10 9.23Q60.72 9.30 61.20 9.67Q61.68 10.04 61.95 10.61Q62.22 11.19 62.22 11.88L62.22 11.88Q62.22 12.82 61.78 13.53Q61.35 14.23 60.55 14.62Q59.76 15 58.68 15L58.68 15ZM56.98 5.61L56.98 8.57L58.48 8.57Q59.22 8.57 59.66 8.17Q60.09 7.77 60.09 7.08L60.09 7.08Q60.09 6.41 59.66 6.01Q59.23 5.61 58.48 5.61L58.48 5.61L56.98 5.61ZM56.98 10.08L56.98 13.44L58.58 13.44Q59.40 13.44 59.87 13.00Q60.34 12.55 60.34 11.79L60.34 11.79Q60.34 11.03 59.87 10.55Q59.40 10.08 58.58 10.08L58.58 10.08L56.98 10.08Z"/></svg>
</svg>