<svg viewBox="0 0 105 25" width="105" height="25" xmlns="http://www.w3.org/2000/svg">
<rect x="0.5" y="0.5" width="104" height="24" rx="4.5" fill="#ffffff" stroke="#eeeeee"/>
<svg xmlns="http://www.w3.org/2000/svg" viewBox="0 0 512 512" x="11" y="4.5" width="16" height="16"><path d="M386.4 35.508C217.06-64.061 1.885 57.55.012 253.882-1.816 445.6 201.075 569.427 370.033 485.045L185.56 213.636v168c0 18.614-35.619 18.614-35.619 0V156.421c0-14.776 27.447-15.988 35.225-3.144l210.263 317.3C553.381 368.835 551.247 132.436 386.4 35.508Zm-23.757 317.939-35.732-54.577V149.458c0-13.932 35.732-13.932 35.732 0Z" fill="#000000"/></svg>
<svg xmlns="http://www.w3.org/2000/svg" xmlns:xlink="http://www.w3.org/1999/xlink" width="63" height="19.8" x="32" y="2.5"><path fill="#000000" d="M2.79 15L1.08 15L1.08 4.05L3.38 4.05L6.42 12.90Q6.38 12.42 6.33 11.77Q6.29 11.12 6.25 10.44Q6.21 9.77 6.21 9.24L6.21 9.24L6.21 4.05L7.92 4.05L7.92 15L5.63 15L2.61 6.15Q2.64 6.59 2.69 7.20Q2.73 7.82 2.76 8.46Q2.79 9.11 2.79 9.64L2.79 9.64L2.79 15ZM13.52 15.15L13.52 15.15Q12.46 15.15 11.69 14.74Q10.90 14.34 10.48 13.60Q10.05 12.86 10.05 11.85L10.05 11.85L10.05 9.90Q10.05 8.89 10.48 8.15Q10.90 7.41 11.69 7.00Q12.46 6.60 13.52 6.60L13.52 6.60Q14.55 6.60 15.32 7.00Q16.09 7.41 16.52 8.14Q16.95 8.87 16.95 9.84L16.95 9.84L16.95 11.34L11.85 11.34L11.85 11.91Q11.85 12.75 12.29 13.18Q12.72 13.61 13.52 13.61L13.52 13.61Q14.10 13.61 14.51 13.40Q14.93 13.20 15 12.81L15 12.81L16.86 12.81Q16.66 13.88 15.75 14.51Q14.84 15.15 13.52 15.15ZM11.85 9.84L11.85 9.84L11.85 10.13L15.15 10.11L15.15 9.82Q15.15 8.97 14.73 8.50Q14.31 8.04 13.52 8.04L13.52 8.04Q12.69 8.04 12.27 8.51Q11.85 8.98 11.85 9.84ZM20.67 15L18.54 15L21.42 10.74L18.73 6.75L20.85 6.75L22.13 8.78Q22.25 8.96 22.35 9.18Q22.45 9.41 22.50 9.54L22.50 9.54Q22.56 9.41 22.66 9.18Q22.75 8.96 22.88 8.78L22.88 8.78L24.15 6.75L26.28 6.75L23.59 10.74L26.46 15L24.33 15L22.91 12.73Q22.79 12.55 22.67 12.32Q22.56 12.09 22.50 11.96L22.50 11.96Q22.44 12.09 22.34 12.32Q22.23 12.55 22.11 12.73L22.11 12.73L20.67 15ZM34.91 15L32.33 15Q31.17 15 30.49 14.33Q29.80 13.66 29.80 12.53L29.80 12.53L29.80 8.45L27.52 8.45L27.52 6.75L29.80 6.75L29.80 4.43L31.70 4.43L31.70 6.75L34.98 6.75L34.98 8.45L31.70 8.45L31.70 12.48Q31.70 12.84 31.90 13.07Q32.10 13.30 32.46 13.30L32.46 13.30L34.91 13.30L34.91 15ZM40.50 15.15L40.50 15.15Q39.87 15.15 39.49 14.77Q39.10 14.38 39.10 13.77L39.10 13.77Q39.10 13.15 39.49 12.77Q39.87 12.38 40.50 12.38L40.50 12.38Q41.13 12.38 41.51 12.77Q41.89 13.15 41.89 13.77L41.89 13.77Q41.89 14.38 41.51 14.77Q41.13 15.15 40.50 15.15ZM48.49 17.70L46.22 17.70L46.22 16.00L48.39 16.00Q49.11 16.00 49.53 15.58Q49.95 15.15 49.95 14.41L49.95 14.41L49.95 8.45L46.14 8.45L46.14 6.75L51.83 6.75L51.83 14.46Q51.83 15.96 50.92 16.83Q50.02 17.70 48.49 17.70L48.49 17.70ZM50.79 5.37L50.79 5.37Q50.22 5.37 49.89 5.08Q49.56 4.79 49.56 4.29L49.56 4.29Q49.56 3.79 49.89 3.50Q50.22 3.21 50.79 3.21L50.79 3.21Q51.36 3.21 51.69 3.50Q52.02 3.79 52.02 4.29L52.02 4.29Q52.02 4.79 51.69 5.08Q51.36 5.37 50.79 5.37ZM58.81 15.13L58.16 15.13Q56.69 15.13 55.83 14.47Q54.98 13.80 54.98 12.66L54.98 12.66L56.82 12.66Q56.82 13.14 57.17 13.39Q57.52 13.65 58.16 13.65L58.16 13.65L58.81 13.65Q59.49 13.65 59.86 13.39Q60.23 13.14 60.23 12.66L60.23 12.66Q60.23 12.21 59.97 11.99Q59.72 11.78 59.19 11.70L59.19 11.70L57.13 11.43Q56.15 11.29 55.61 10.66Q55.08 10.04 55.08 9.03L55.08 9.03Q55.08 7.86 55.86 7.24Q56.64 6.62 58.11 6.62L58.11 6.62L58.80 6.62Q60.18 6.62 61.02 7.25Q61.86 7.88 61.89 8.93L61.89 8.93L60.03 8.93Q60.02 8.54 59.69 8.30Q59.35 8.07 58.80 8.07L58.80 8.07L58.11 8.07Q57.51 8.07 57.20 8.32Q56.88 8.57 56.88 8.98L56.88 8.98Q56.88 9.36 57.11 9.54Q57.34 9.72 57.80 9.77L57.80 9.77L59.73 10.04Q60.87 10.17 61.45 10.84Q62.02 11.51 62.02 12.63L62.02 12.63Q62.02 13.83 61.21 14.48Q60.39 15.13 58.81 15.13L58.81 15.13Z"/></svg>
</svg>