<svg viewBox="0 0 113 25" width="113" height="25" xmlns="http://www.w3.org/2000/svg">
<rect x="0.5" y="0.5" width="112" height="24" rx="4.5" fill="#ffffff" stroke="#eeeeee"/>
<svg xmlns="http://www.w3.org/2000/svg" viewBox="0 0 258.684 172.456" x="11" y="4.5" width="24.000000000000004" height="16"><path fill="#00dc82" d="M144.864 172.456h95.713a17.526 17.526 0 0 0 8.622-2.587c2.645-1.514 5.372-3.414 6.9-6.036a15.663 15.663 0 0 0 0-17.245L191.426 35.354a15.718 15.718 0 0 0-6.036-6.036 20.843 20.843 0 0 0-9.485-2.587 17.528 17.528 0 0 0-8.623 2.587 15.72 15.72 0 0 0-6.036 6.036l-16.384 28.455L112.1 8.621c-1.528-2.622-3.39-5.383-6.036-6.9s-5.569-1.724-8.623-1.724-5.977.211-8.623 1.724a20.453 20.453 0 0 0-6.9 6.9L1.724 146.588C.2 149.209 0 152.182 0 155.209s.2 6 1.725 8.624 4.252 4.522 6.9 6.036a17.526 17.526 0 0 0 8.623 2.587h60.36c23.917 0 41.325-10.729 53.461-31.042l29.317-50.875 15.521-26.731 47.425 81.054h-62.947Zm-68.121-27.593H34.491L97.438 36.215l31.9 54.324-21.133 36.841c-8.06 13.18-17.248 17.483-31.466 17.483Z"/></svg>
<svg xmlns="http://www.w3.org/2000/svg" xmlns:xlink="http://www.w3.org/1999/xlink" width="63" height="19.8" x="40" y="2.5"><path fill="#000000" d="M2.79 15L1.08 15L1.08 4.05L3.38 4.05L6.42 12.90Q6.38 12.42 6.33 11.77Q6.29 11.12 6.25 10.44Q6.21 9.77 6.21 9.24L6.21 9.24L6.21 4.05L7.92 4.05L7.92 15L5.63 15L2.61 6.15Q2.64 6.59 2.69 7.20Q2.73 7.82 2.76 8.46Q2.79 9.11 2.79 9.64L2.79 9.64L2.79 15ZM13.50 15.15L13.50 15.15Q11.93 15.15 11.03 14.27Q10.13 13.39 10.13 11.88L10.13 11.88L10.13 6.75L12 6.75L12 11.87Q12 12.64 12.39 13.08Q12.78 13.52 13.50 13.52L13.50 13.52Q14.21 13.52 14.60 13.08Q15 12.64 15 11.87L15 11.87L15 6.75L16.88 6.75L16.88 11.88Q16.88 13.39 15.96 14.27Q15.04 15.15 13.50 15.15ZM20.67 15L18.54 15L21.42 10.74L18.73 6.75L20.85 6.75L22.13 8.78Q22.25 8.96 22.35 9.18Q22.45 9.41 22.50 9.54L22.50 9.54Q22.56 9.41 22.66 9.18Q22.75 8.96 22.88 8.78L22.88 8.78L24.15 6.75L26.28 6.75L23.59 10.74L26.46 15L24.33 15L22.91 12.73Q22.79 12.55 22.67 12.32Q22.56 12.09 22.50 11.96L22.50 11.96Q22.44 12.09 22.34 12.32Q22.23 12.55 22.11 12.73L22.11 12.73L20.67 15ZM34.91 15L32.33 15Q31.17 15 30.49 14.33Q29.80 13.66 29.80 12.53L29.80 12.53L29.80 8.45L27.52 8.45L27.52 6.75L29.80 6.75L29.80 4.43L31.70 4.43L31.70 6.75L34.98 6.75L34.98 8.45L31.70 8.45L31.70 12.48Q31.70 12.84 31.90 13.07Q32.10 13.30 32.46 13.30L32.46 13.30L34.91 13.30L34.91 15ZM40.50 15.15L40.50 15.15Q39.87 15.15 39.49 14.77Q39.10 14.38 39.10 13.77L39.10 13.77Q39.10 13.15 39.49 12.77Q39.87 12.38 40.50 12.38L40.50 12.38Q41.13 12.38 41.51 12.77Q41.89 13.15 41.89 13.77L41.89 13.77Q41.89 14.38 41.51 14.77Q41.13 15.15 40.50 15.15ZM48.49 17.70L46.22 17.70L46.22 16.00L48.39 16.00Q49.11 16.00 49.53 15.58Q49.95 15.15 49.95 14.41L49.95 14.41L49.95 8.45L46.14 8.45L46.14 6.75L51.83 6.75L51.83 14.46Q51.83 15.96 50.92 16.83Q50.02 17.70 48.49 17.70L48.49 17.70ZM50.79 5.37L50.79 5.37Q50.22 5.37 49.89 5.08Q49.56 4.79 49.56 4.29L49.56 4.29Q49.56 3.79 49.89 3.50Q50.22 3.21 50.79 3.21L50.79 3.21Q51.36 3.21 51.69 3.50Q52.02 3.79 52.02 4.29L52.02 4.29Q52.02 4.79 51.69 5.08Q51.36 5.37 50.79 5.37ZM58.81 15.13L58.16 15.13Q56.69 15.13 55.83 14.47Q54.98 13.80 54.98 12.66L54.98 12.66L56.82 12.66Q56.82 13.14 57.17 13.39Q57.52 13.65 58.16 13.65L58.16 13.65L58.81 13.65Q59.49 13.65 59.86 13.39Q60.23 13.14 60.23 12.66L60.23 12.66Q60.23 12.21 59.97 11.99Q59.72 11.78 59.19 11.70L59.19 11.70L57.13 11.43Q56.15 11.29 55.61 10.66Q55.08 10.04 55.08 9.03L55.08 9.03Q55.08 7.86 55.86 7.24Q56.64 6.62 58.11 6.62L58.11 6.62L58.80 6.62Q60.18 6.62 61.02 7.25Q61.86 7.88 61.89 8.93L61.89 8.93L60.03 8.93Q60.02 8.54 59.69 8.30Q59.35 8.07 58.80 8.07L58.80 8.07L58.11 8.07Q57.51 8.07 57.20 8.32Q56.88 8.57 56.88 8.98L56.88 8.98Q56.88 9.36 57.11 9.54Q57.34 9.72 57.80 9.77L57.80 9.77L59.73 10.04Q60.87 10.17 61.45 10.84Q62.02 11.51 62.02 12.63L62.02 12.63Q62.02 13.83 61.21 14.48Q60.39 15.13 58.81 15.13L58.81 15.13Z"/></svg>
</svg>