<svg viewBox="0 0 95.99899974993748 25" width="95.99899974993748" height="25" xmlns="http://www.w3.org/2000/svg">
<rect x="0.5" y="0.5" width="94.99899974993748" height="24" rx="4.5" fill="#ffffff" stroke="#eeeeee"/>
<svg xmlns="http://www.w3.org/2000/svg" viewBox="0 0 15.995 15.996" x="11" y="4.5" width="15.998999749937484" height="16"><path d="M12.15 4.903Z"/><path fill="#f2bb30" d="M13.795 11.827c1.11 0 1.521-.774 1.907-1.935a6.526 6.526 0 0 0 0-3.877c-.275-1.1-.8-1.935-1.907-1.935h-1.427v1.692a2.449 2.449 0 0 1-2.385 2.421H6.168a1.945 1.945 0 0 0-1.907 1.939v3.635c0 1.035.9 1.642 1.907 1.939a6.421 6.421 0 0 0 3.813 0c.96-.279 1.907-.84 1.907-1.939v-1.454h-3.81v-.485h5.72Zm-3.577 1.454a.727.727 0 1 1-.718.725.722.722 0 0 1 .718-.725Z"/><path fill="#35668f" d="M2.3 11.828h1.31v-1.742a2.425 2.425 0 0 1 2.38-2.372H9.8a1.922 1.922 0 0 0 1.91-1.939V2.138A2.13 2.13 0 0 0 9.8.153a11.756 11.756 0 0 0-3.813 0c-1.614.285-1.906.881-1.906 1.984v1.462H7.9v.486H2.653a2.383 2.383 0 0 0-2.385 1.93 7.154 7.154 0 0 0 0 3.877c.271 1.129.918 1.936 2.032 1.936Zm3.452-9.205a.727.727 0 1 1 .717-.724.722.722 0 0 1-.717.724Z"/></svg>
<svg xmlns="http://www.w3.org/2000/svg" xmlns:xlink="http://www.w3.org/1999/xlink" width="54" height="19.8" x="31.998999749937482" y="2.5"><path fill="#000000" d="M3.03 15L1.16 15L1.16 4.05L4.80 4.05Q5.89 4.05 6.71 4.47Q7.53 4.89 7.98 5.65Q8.43 6.41 8.43 7.43L8.43 7.43Q8.43 8.45 7.98 9.20Q7.53 9.96 6.71 10.38Q5.89 10.80 4.80 10.80L4.80 10.80L3.03 10.80L3.03 15ZM3.03 5.70L3.03 9.15L4.80 9.15Q5.59 9.15 6.06 8.67Q6.52 8.19 6.52 7.43L6.52 7.43Q6.52 6.66 6.06 6.18Q5.59 5.70 4.80 5.70L4.80 5.70L3.03 5.70ZM13.44 17.70L11.47 17.70L12.64 14.55L9.54 6.75L11.52 6.75L13.11 10.96Q13.25 11.34 13.38 11.78Q13.52 12.22 13.57 12.60L13.57 12.60Q13.62 12.22 13.75 11.78Q13.88 11.34 14.01 10.96L14.01 10.96L15.48 6.75L17.46 6.75L13.44 17.70ZM25.91 15L23.32 15Q22.17 15 21.49 14.33Q20.80 13.66 20.80 12.53L20.80 12.53L20.80 8.45L18.52 8.45L18.52 6.75L20.80 6.75L20.80 4.43L22.70 4.43L22.70 6.75L25.98 6.75L25.98 8.45L22.70 8.45L22.70 12.48Q22.70 12.84 22.90 13.07Q23.10 13.30 23.46 13.30L23.46 13.30L25.91 13.30L25.91 15ZM30.03 15L28.16 15L28.16 4.05L30.03 4.05L30.03 6.75L29.98 8.28Q30.13 7.50 30.72 7.05Q31.30 6.60 32.20 6.60L32.20 6.60Q33.42 6.60 34.15 7.41Q34.88 8.22 34.88 9.59L34.88 9.59L34.88 15L33 15L33 9.81Q33 9.04 32.60 8.63Q32.20 8.22 31.53 8.22L31.53 8.22Q30.82 8.22 30.43 8.64Q30.03 9.06 30.03 9.84L30.03 9.84L30.03 15ZM40.50 15.13L40.50 15.13Q38.91 15.13 37.98 14.24Q37.05 13.35 37.05 11.84L37.05 11.84L37.05 9.91Q37.05 8.39 37.98 7.50Q38.91 6.62 40.50 6.62L40.50 6.62Q42.09 6.62 43.02 7.50Q43.95 8.39 43.95 9.91L43.95 9.91L43.95 11.84Q43.95 13.35 43.02 14.24Q42.09 15.13 40.50 15.13ZM40.50 13.50L40.50 13.50Q41.25 13.50 41.66 13.09Q42.08 12.68 42.08 11.89L42.08 11.89L42.08 9.86Q42.08 9.07 41.66 8.66Q41.25 8.25 40.50 8.25L40.50 8.25Q39.75 8.25 39.34 8.66Q38.92 9.07 38.92 9.86L38.92 9.86L38.92 11.89Q38.92 12.68 39.34 13.09Q39.75 13.50 40.50 13.50ZM48.03 15L46.16 15L46.16 6.75L47.98 6.75L47.98 8.29Q48.13 7.52 48.72 7.06Q49.30 6.60 50.20 6.60L50.20 6.60Q51.42 6.60 52.15 7.41Q52.88 8.22 52.88 9.59L52.88 9.59L52.88 15L51 15L51 9.81Q51 9.04 50.60 8.63Q50.20 8.22 49.53 8.22L49.53 8.22Q48.83 8.22 48.43 8.64Q48.03 9.06 48.03 9.84L48.03 9.84L48.03 15Z"/></svg>
</svg>