<svg viewBox="0 0 85.947804541208 25" width="85.947804541208" height="25" xmlns="http://www.w3.org/2000/svg">
<rect x="0.5" y="0.5" width="84.947804541208" height="24" rx="4.5" fill="#ffffff" stroke="#eeeeee"/>
<svg xmlns="http://www.w3.org/2000/svg" width="14.94780454120801" height="16" viewBox="0 0 23 24.619" x="11" y="4.5"><g transform="translate(11.5 12.309)"><circle cx="2.05" cy="2.05" r="2.05" transform="translate(-2.05 -2.05)" fill="#61dafb"/><path d="M11-.5A23.089,23.089,0,0,1,18.957.763C21.242,1.636,22.5,2.856,22.5,4.2s-1.258,2.564-3.543,3.437A23.089,23.089,0,0,1,11,8.9,23.089,23.089,0,0,1,3.043,7.637C.758,6.764-.5,5.544-.5,4.2S.758,1.636,3.043.763A23.089,23.089,0,0,1,11-.5Zm0,8.4a22.08,22.08,0,0,0,7.6-1.2c1.843-.7,2.9-1.616,2.9-2.5s-1.057-1.8-2.9-2.5A22.08,22.08,0,0,0,11,.5,22.08,22.08,0,0,0,3.4,1.7C1.557,2.4.5,3.313.5,4.2S1.557,6,3.4,6.7A22.08,22.08,0,0,0,11,7.9Z" transform="translate(-11 -4.2)" fill="#61dafb"/><path d="M11-.5A23.089,23.089,0,0,1,18.957.763C21.242,1.636,22.5,2.856,22.5,4.2s-1.258,2.564-3.543,3.437A23.089,23.089,0,0,1,11,8.9,23.089,23.089,0,0,1,3.043,7.637C.758,6.764-.5,5.544-.5,4.2S.758,1.636,3.043.763A23.089,23.089,0,0,1,11-.5Zm0,8.4a22.08,22.08,0,0,0,7.6-1.2c1.843-.7,2.9-1.616,2.9-2.5s-1.057-1.8-2.9-2.5A22.08,22.08,0,0,0,11,.5,22.08,22.08,0,0,0,3.4,1.7C1.557,2.4.5,3.313.5,4.2S1.557,6,3.4,6.7A22.08,22.08,0,0,0,11,7.9Z" transform="translate(-1.863 -11.626) rotate(60)" fill="#61dafb"/><path d="M11-.5A23.089,23.089,0,0,1,18.957.763C21.242,1.636,22.5,2.856,22.5,4.2s-1.258,2.564-3.543,3.437A23.089,23.089,0,0,1,11,8.9,23.089,23.089,0,0,1,3.043,7.637C.758,6.764-.5,5.544-.5,4.2S.758,1.636,3.043.763A23.089,23.089,0,0,1,11-.5Zm0,8.4a22.08,22.08,0,0,0,7.6-1.2c1.843-.7,2.9-1.616,2.9-2.5s-1.057-1.8-2.9-2.5A22.08,22.08,0,0,0,11,.5,22.08,22.08,0,0,0,3.4,1.7C1.557,2.4.5,3.313.5,4.2S1.557,6,3.4,6.7A22.08,22.08,0,0,0,11,7.9Z" transform="translate(9.137 -7.426) rotate(120)" fill="#61dafb"/></g></svg>
<svg xmlns="http://www.w3.org/2000/svg" xmlns:xlink="http://www.w3.org/1999/xlink" width="45" height="19.8" x="30.947804541208008" y="2.5"><path fill="#000000" d="M3.01 15L1.16 15L1.16 4.05L4.60 4.05Q5.70 4.05 6.50 4.46Q7.30 4.86 7.75 5.59Q8.21 6.31 8.21 7.31L8.21 7.31Q8.21 8.40 7.67 9.22Q7.13 10.04 6.21 10.38L6.21 10.38L8.36 15L6.30 15L4.38 10.65L3.01 10.65L3.01 15ZM3.01 5.70L3.01 9L4.60 9Q5.40 9 5.85 8.57Q6.30 8.13 6.30 7.37L6.30 7.37Q6.30 6.60 5.84 6.15Q5.38 5.70 4.60 5.70L4.60 5.70L3.01 5.70ZM13.52 15.15L13.52 15.15Q12.46 15.15 11.69 14.74Q10.90 14.34 10.48 13.60Q10.05 12.86 10.05 11.85L10.05 11.85L10.05 9.90Q10.05 8.89 10.48 8.15Q10.90 7.41 11.69 7.00Q12.46 6.60 13.52 6.60L13.52 6.60Q14.55 6.60 15.32 7.00Q16.09 7.41 16.52 8.14Q16.95 8.87 16.95 9.84L16.95 9.84L16.95 11.34L11.85 11.34L11.85 11.91Q11.85 12.75 12.29 13.18Q12.72 13.61 13.52 13.61L13.52 13.61Q14.10 13.61 14.51 13.40Q14.93 13.20 15 12.81L15 12.81L16.86 12.81Q16.66 13.88 15.75 14.51Q14.84 15.15 13.52 15.15ZM11.85 9.84L11.85 9.84L11.85 10.13L15.15 10.11L15.15 9.82Q15.15 8.97 14.73 8.50Q14.31 8.04 13.52 8.04L13.52 8.04Q12.69 8.04 12.27 8.51Q11.85 8.98 11.85 9.84ZM21.59 15.15L21.59 15.15Q20.32 15.15 19.60 14.44Q18.87 13.72 18.87 12.57L18.87 12.57Q18.87 11.37 19.70 10.66Q20.52 9.95 21.96 9.95L21.96 9.95L23.97 9.95L23.97 9.36Q23.97 8.12 22.52 8.12L22.52 8.12Q21.86 8.12 21.46 8.37Q21.07 8.63 21.03 9.09L21.03 9.09L19.23 9.09Q19.29 7.98 20.17 7.29Q21.05 6.60 22.53 6.60L22.53 6.60Q24.11 6.60 24.98 7.33Q25.84 8.07 25.84 9.41L25.84 9.41L25.84 15L24.02 15L24.02 13.46Q23.91 14.25 23.27 14.70Q22.62 15.15 21.59 15.15ZM22.18 13.62L22.18 13.62Q23.01 13.62 23.49 13.21Q23.97 12.81 23.97 12.13L23.97 12.13L23.97 11.16L22.05 11.16Q21.43 11.16 21.07 11.51Q20.71 11.85 20.71 12.39L20.71 12.39Q20.71 12.95 21.10 13.28Q21.48 13.62 22.18 13.62ZM31.63 15.15L31.63 15.15Q30.57 15.15 29.78 14.75Q29.00 14.36 28.56 13.63Q28.13 12.90 28.13 11.91L28.13 11.91L28.13 9.84Q28.13 8.85 28.56 8.12Q29.00 7.40 29.78 7.00Q30.57 6.60 31.63 6.60L31.63 6.60Q33.18 6.60 34.12 7.40Q35.05 8.21 35.10 9.59L35.10 9.59L33.26 9.59Q33.21 8.94 32.77 8.59Q32.33 8.23 31.63 8.23L31.63 8.23Q30.87 8.23 30.43 8.65Q30 9.06 30 9.82L30 9.82L30 11.91Q30 12.68 30.43 13.10Q30.87 13.52 31.63 13.52L31.63 13.52Q32.34 13.52 32.77 13.16Q33.21 12.81 33.26 12.16L33.26 12.16L35.10 12.16Q35.05 13.54 34.12 14.35Q33.18 15.15 31.63 15.15ZM43.91 15L41.33 15Q40.17 15 39.49 14.33Q38.80 13.66 38.80 12.53L38.80 12.53L38.80 8.45L36.52 8.45L36.52 6.75L38.80 6.75L38.80 4.43L40.70 4.43L40.70 6.75L43.98 6.75L43.98 8.45L40.70 8.45L40.70 12.48Q40.70 12.84 40.90 13.07Q41.10 13.30 41.46 13.30L41.46 13.30L43.91 13.30L43.91 15Z"/></svg>
</svg>