<svg viewBox="0 0 124.66666666666667 25" width="124.66666666666667" height="25" xmlns="http://www.w3.org/2000/svg">
<rect x="0.5" y="0.5" width="123.66666666666667" height="24" rx="4.5" fill="#ffffff" stroke="#eeeeee"/>
<svg xmlns="http://www.w3.org/2000/svg" viewBox="0 0 54 32.4" x="11" y="4.5" width="26.666666666666668" height="16"><defs><clipPath id="a"><path fill="#fff" d="M0 0h54v32.4H0Z"/></clipPath></defs><g clip-path="url(#a)"><path fill="#38bdf8" fill-rule="evenodd" d="M27 0Q16.2 0 13.5 10.8q4.05-5.4 9.45-4.05c2.054.513 3.522 2 5.147 3.653 2.647 2.687 5.711 5.8 12.4 5.8Q51.3 16.2 54 5.4q-4.05 5.4-9.45 4.05c-2.054-.513-3.522-2-5.147-3.653C36.756 3.11 33.692 0 27 0ZM13.5 16.2Q2.7 16.2 0 27q4.05-5.4 9.45-4.05c2.054.514 3.522 2 5.147 3.653 2.647 2.687 5.711 5.8 12.4 5.8q10.8 0 13.5-10.8-4.05 5.4-9.45 4.05C29 25.137 27.528 23.646 25.9 22c-2.644-2.69-5.708-5.8-12.4-5.8Z"/></g></svg>
<svg xmlns="http://www.w3.org/2000/svg" xmlns:xlink="http://www.w3.org/1999/xlink" width="72" height="19.8" x="42.66666666666667" y="2.5"><path fill="#000000" d="M7.90 15L5.33 15Q4.17 15 3.49 14.33Q2.80 13.66 2.80 12.53L2.80 12.53L2.80 8.45L0.53 8.45L0.53 6.75L2.80 6.75L2.80 4.43L4.69 4.43L4.69 6.75L7.98 6.75L7.98 8.45L4.69 8.45L4.69 12.48Q4.69 12.84 4.90 13.07Q5.10 13.30 5.46 13.30L5.46 13.30L7.90 13.30L7.90 15ZM12.59 15.15L12.59 15.15Q11.32 15.15 10.60 14.44Q9.87 13.72 9.87 12.57L9.87 12.57Q9.87 11.37 10.70 10.66Q11.52 9.95 12.96 9.95L12.96 9.95L14.97 9.95L14.97 9.36Q14.97 8.12 13.52 8.12L13.52 8.12Q12.86 8.12 12.46 8.37Q12.07 8.63 12.03 9.09L12.03 9.09L10.23 9.09Q10.29 7.98 11.17 7.29Q12.04 6.60 13.53 6.60L13.53 6.60Q15.11 6.60 15.97 7.33Q16.84 8.07 16.84 9.41L16.84 9.41L16.84 15L15.02 15L15.02 13.46Q14.91 14.25 14.27 14.70Q13.62 15.15 12.59 15.15ZM13.18 13.62L13.18 13.62Q14.01 13.62 14.49 13.21Q14.97 12.81 14.97 12.13L14.97 12.13L14.97 11.16L13.05 11.16Q12.44 11.16 12.07 11.51Q11.71 11.85 11.71 12.39L11.71 12.39Q11.71 12.95 12.10 13.28Q12.48 13.62 13.18 13.62ZM26.37 15L19.14 15L19.14 13.30L21.96 13.30L21.96 8.45L19.44 8.45L19.44 6.75L23.84 6.75L23.84 13.30L26.37 13.30L26.37 15ZM22.77 5.37L22.77 5.37Q22.20 5.37 21.87 5.08Q21.54 4.79 21.54 4.29L21.54 4.29Q21.54 3.79 21.87 3.50Q22.20 3.21 22.77 3.21L22.77 3.21Q23.34 3.21 23.67 3.50Q24 3.79 24 4.29L24 4.29Q24 4.79 23.67 5.08Q23.34 5.37 22.77 5.37ZM35.38 15L32.84 15Q31.61 15 30.86 14.27Q30.12 13.53 30.12 12.33L30.12 12.33L30.12 5.75L27.41 5.75L27.41 4.05L32.00 4.05L32.00 12.29Q32.00 12.75 32.26 13.03Q32.52 13.30 32.97 13.30L32.97 13.30L35.38 13.30L35.38 15ZM39.47 15L37.53 15L36.24 6.75L37.73 6.75L38.46 11.80Q38.52 12.27 38.56 12.81Q38.61 13.35 38.64 13.71L38.64 13.71Q38.66 13.35 38.70 12.81Q38.74 12.27 38.84 11.80L38.84 11.80L39.73 6.75L41.30 6.75L42.16 11.80Q42.26 12.27 42.31 12.82Q42.36 13.37 42.39 13.72L42.39 13.72Q42.42 13.37 42.46 12.82Q42.49 12.27 42.57 11.80L42.57 11.80L43.32 6.75L44.76 6.75L43.44 15L41.51 15L40.73 9.91Q40.65 9.50 40.59 8.95Q40.53 8.40 40.50 8.05L40.50 8.05Q40.48 8.40 40.41 8.95Q40.34 9.50 40.27 9.91L40.27 9.91L39.47 15ZM53.37 15L46.14 15L46.14 13.30L48.96 13.30L48.96 8.45L46.44 8.45L46.44 6.75L50.84 6.75L50.84 13.30L53.37 13.30L53.37 15ZM49.77 5.37L49.77 5.37Q49.20 5.37 48.87 5.08Q48.54 4.79 48.54 4.29L48.54 4.29Q48.54 3.79 48.87 3.50Q49.20 3.21 49.77 3.21L49.77 3.21Q50.34 3.21 50.67 3.50Q51 3.79 51 4.29L51 4.29Q51 4.79 50.67 5.08Q50.34 5.37 49.77 5.37ZM57.03 15L55.16 15L55.16 6.75L56.98 6.75L56.98 8.29Q57.13 7.52 57.72 7.06Q58.30 6.60 59.20 6.60L59.20 6.60Q60.42 6.60 61.15 7.41Q61.88 8.22 61.88 9.59L61.88 9.59L61.88 15L60 15L60 9.81Q60 9.04 59.60 8.63Q59.20 8.22 58.53 8.22L58.53 8.22Q57.83 8.22 57.43 8.64Q57.03 9.06 57.03 9.84L57.03 9.84L57.03 15ZM66.75 15.15L66.75 15.15Q65.55 15.15 64.81 14.29Q64.06 13.44 64.06 12L64.06 12L64.06 9.77Q64.06 8.31 64.80 7.46Q65.53 6.60 66.75 6.60L66.75 6.60Q67.61 6.60 68.20 7.04Q68.79 7.47 69.03 8.25L69.03 8.25L68.97 6.36L68.97 4.05L70.84 4.05L70.84 15L69.02 15L69.02 13.50Q68.79 14.28 68.20 14.71Q67.62 15.15 66.75 15.15ZM67.45 13.53L67.45 13.53Q68.17 13.53 68.57 13.10Q68.97 12.66 68.97 11.87L68.97 11.87L68.97 9.88Q68.97 9.09 68.57 8.66Q68.17 8.22 67.45 8.22L67.45 8.22Q66.73 8.22 66.34 8.61Q65.94 9 65.94 9.81L65.94 9.81L65.94 11.94Q65.94 12.75 66.34 13.14Q66.73 13.53 67.45 13.53Z"/></svg>
</svg>