<svg viewBox="0 0 69 25" width="69" height="25" xmlns="http://www.w3.org/2000/svg">
<rect x="0.5" y="0.5" width="68" height="24" rx="12" fill="#292A2D" stroke="#606366"/>
<svg viewBox="0 0 16 16" xmlns="http://www.w3.org/2000/svg" fill="none" x="11" y="4.5" width="16" height="16"><g id="SVGRepo_bgCarrier" stroke-width="0"/><g id="SVGRepo_tracerCarrier" stroke-linecap="round" stroke-linejoin="round"/><g id="SVGRepo_iconCarrier"><path fill="#252F3E" d="M4.51 7.687c0 .197.02.357.058.475.042.117.096.245.17.384a.233.233 0 01.037.123c0 .053-.032.107-.1.16l-.336.224a.255.255 0 01-.138.048c-.054 0-.107-.026-.16-.074a1.652 1.652 0 01-.192-.251 4.137 4.137 0 01-.165-.315c-.415.491-.936.737-1.564.737-.447 0-.804-.129-1.064-.385-.261-.256-.394-.598-.394-1.025 0-.454.16-.822.484-1.1.325-.278.756-.416 1.304-.416.18 0 .367.016.564.042.197.027.4.07.612.118v-.39c0-.406-.085-.689-.25-.854-.17-.166-.458-.246-.868-.246-.186 0-.377.022-.574.07a4.23 4.23 0 00-.575.181 1.525 1.525 0 01-.186.07.326.326 0 01-.085.016c-.075 0-.112-.054-.112-.166v-.262c0-.085.01-.15.037-.186a.399.399 0 01.15-.113c.185-.096.409-.176.67-.24.26-.07.537-.101.83-.101.633 0 1.096.144 1.394.432.293.288.442.726.442 1.314v1.73h.01zm-2.161.811c.175 0 .356-.032.548-.096.191-.064.362-.182.505-.342a.848.848 0 00.181-.341c.032-.129.054-.283.054-.465V7.03a4.43 4.43 0 00-.49-.09 3.996 3.996 0 00-.5-.033c-.357 0-.618.07-.793.214-.176.144-.26.347-.26.614 0 .25.063.437.196.566.128.133.314.197.559.197zm4.273.577c-.096 0-.16-.016-.202-.054-.043-.032-.08-.106-.112-.208l-1.25-4.127a.938.938 0 01-.049-.214c0-.085.043-.133.128-.133h.522c.1 0 .17.016.207.053.043.032.075.107.107.208l.894 3.535.83-3.535c.026-.106.058-.176.1-.208a.365.365 0 01.214-.053h.425c.102 0 .17.016.213.053.043.032.08.107.101.208l.841 3.578.92-3.578a.458.458 0 01.107-.208.346.346 0 01.208-.053h.495c.085 0 .133.043.133.133 0 .027-.006.054-.01.086a.76.76 0 01-.038.133l-1.283 4.127c-.032.107-.069.177-.111.209a.34.34 0 01-.203.053h-.457c-.101 0-.17-.016-.213-.053-.043-.038-.08-.107-.101-.214L8.213 5.37l-.82 3.439c-.026.107-.058.176-.1.213-.043.038-.118.054-.213.054h-.458zm6.838.144a3.51 3.51 0 01-.82-.096c-.266-.064-.473-.134-.612-.214-.085-.048-.143-.101-.165-.15a.378.378 0 01-.031-.149v-.272c0-.112.042-.166.122-.166a.3.3 0 01.096.016c.032.011.08.032.133.054.18.08.378.144.585.187.213.042.42.064.633.064.336 0 .596-.059.777-.176a.575.575 0 00.277-.508.52.52 0 00-.144-.373c-.095-.102-.276-.193-.537-.278l-.772-.24c-.388-.123-.676-.305-.851-.545a1.275 1.275 0 01-.266-.774c0-.224.048-.422.143-.593.096-.17.224-.32.384-.438.16-.122.34-.213.553-.277.213-.064.436-.091.67-.091.118 0 .24.005.357.021.122.016.234.038.346.06.106.026.208.052.303.085.096.032.17.064.224.096a.46.46 0 01.16.133.289.289 0 01.047.176v.251c0 .112-.042.171-.122.171a.552.552 0 01-.202-.064 2.427 2.427 0 00-1.022-.208c-.303 0-.543.048-.708.15-.165.1-.25.256-.25.475 0 .149.053.277.16.379.106.101.303.202.585.293l.756.24c.383.123.66.294.825.513.165.219.244.47.244.748 0 .23-.047.437-.138.619a1.436 1.436 0 01-.388.47c-.165.133-.362.23-.591.299-.24.075-.49.112-.761.112z"/><g fill="#F90" fill-rule="evenodd" clip-rule="evenodd"><path d="M14.465 11.813c-1.75 1.297-4.294 1.986-6.481 1.986-3.065 0-5.827-1.137-7.913-3.027-.165-.15-.016-.353.18-.235 2.257 1.313 5.04 2.109 7.92 2.109 1.941 0 4.075-.406 6.039-1.239.293-.133.543.192.255.406z"/><path d="M15.194 10.98c-.223-.287-1.479-.138-2.048-.069-.17.022-.197-.128-.043-.24 1-.705 2.645-.502 2.836-.267.192.24-.053 1.89-.99 2.68-.143.123-.281.06-.218-.1.213-.53.687-1.72.463-2.003z"/></g></g></svg>
<svg xmlns="http://www.w3.org/2000/svg" xmlns:xlink="http://www.w3.org/1999/xlink" width="27" height="19.8" x="32" y="2.5"><path fill="#ffffff" d="M2.44 15L0.53 15L3.28 4.05L5.70 4.05L8.47 15L6.55 15L5.96 12.35L3.04 12.35L2.44 15ZM4.05 7.86L3.39 10.82L5.61 10.82L4.95 7.88Q4.79 7.14 4.67 6.55Q4.54 5.96 4.50 5.69L4.50 5.69Q4.46 5.96 4.33 6.55Q4.21 7.14 4.05 7.86L4.05 7.86ZM12.44 15L10.35 15L9.21 4.05L10.77 4.05L11.46 11.70Q11.49 12.09 11.53 12.70Q11.56 13.30 11.56 13.72L11.56 13.72Q11.61 13.30 11.66 12.70Q11.71 12.09 11.76 11.70L11.76 11.70L12.72 4.05L14.32 4.05L15.22 11.70Q15.27 12.09 15.34 12.70Q15.40 13.30 15.45 13.72L15.45 13.72Q15.46 13.30 15.50 12.70Q15.54 12.09 15.57 11.70L15.57 11.70L16.25 4.05L17.79 4.05L16.59 15L14.52 15L13.68 7.32Q13.63 6.88 13.59 6.26Q13.54 5.64 13.52 5.24L13.52 5.24Q13.48 5.64 13.44 6.26Q13.39 6.88 13.35 7.32L13.35 7.32L12.44 15ZM22.55 15.15L22.55 15.15Q21.43 15.15 20.60 14.76Q19.77 14.37 19.31 13.64Q18.86 12.91 18.86 11.91L18.86 11.91L20.70 11.91Q20.70 12.64 21.20 13.08Q21.70 13.52 22.55 13.52L22.55 13.52Q23.36 13.52 23.83 13.09Q24.30 12.66 24.30 11.94L24.30 11.94Q24.30 11.40 23.99 10.99Q23.68 10.57 23.12 10.43L23.12 10.43L21.64 10.05Q20.46 9.75 19.77 8.93Q19.08 8.10 19.08 6.96L19.08 6.96Q19.08 5.56 20.00 4.73Q20.91 3.90 22.44 3.90L22.44 3.90Q23.48 3.90 24.25 4.28Q25.02 4.65 25.44 5.33Q25.86 6.02 25.86 6.93L25.86 6.93L24.03 6.93Q24.03 6.30 23.59 5.91Q23.16 5.52 22.44 5.52L22.44 5.52Q21.73 5.52 21.32 5.90Q20.91 6.29 20.91 6.90L20.91 6.90Q20.91 7.41 21.20 7.74Q21.50 8.07 22.02 8.22L22.02 8.22L23.54 8.60Q24.75 8.89 25.45 9.79Q26.14 10.70 26.14 11.94L26.14 11.94Q26.14 12.91 25.70 13.63Q25.26 14.36 24.45 14.75Q23.64 15.15 22.55 15.15Z"/></svg>
</svg>