<svg viewBox="0 0 159 25" width="159" height="25" xmlns="http://www.w3.org/2000/svg">
<rect x="0.5" y="0.5" width="158" height="24" rx="12" fill="#292A2D" stroke="#606366"/>
<svg viewBox="-15 0 286 286" version="1.1" xmlns="http://www.w3.org/2000/svg" xmlns:xlink="http://www.w3.org/1999/xlink" preserveAspectRatio="xMidYMid" fill="#000000" x="11" y="4.5" width="16" height="16"><g id="SVGRepo_bgCarrier" stroke-width="0"/><g id="SVGRepo_tracerCarrier" stroke-linecap="round" stroke-linejoin="round"/><g id="SVGRepo_iconCarrier"><g><path d="M14.3443,80.1733 L203.5503,80.1733 C224.4013,80.1733 243.0203,70.6123 255.5133,55.6863 C229.4533,21.8353 188.5523,0.0003 142.5303,0.0003 C86.1783,0.0003 37.4763,32.7113 14.3443,80.1733" fill="#F0BF1A"/><path d="M187.5152,102.4438 L5.7552,102.4438 C2.0332,115.1648 0.0002,128.6068 0.0002,142.5298 C0.0002,156.4538 2.0332,169.8968 5.7552,182.6168 L187.5152,182.6168 C209.3402,182.6168 227.6022,164.8008 227.6022,142.5298 C227.6022,120.2598 209.7862,102.4438 187.5152,102.4438" fill="#07A5DE"/><path d="M255.9996,228.7548 C243.5856,214.1638 225.1166,204.8868 204.4406,204.8868 L14.3446,204.8868 C37.4766,252.3498 86.1786,285.0598 142.5296,285.0598 C188.8356,285.0598 229.9656,262.9628 255.9996,228.7548" fill="#3EBEB0"/><path d="M5.7555,102.4438 C2.0325,115.1648 0.0005,128.6068 0.0005,142.5298 C0.0005,156.4538 2.0325,169.8968 5.7555,182.6168 L124.7135,182.6168 C127.8315,170.5908 129.6125,157.2288 129.6125,142.5298 C129.6125,127.8318 127.8315,114.4698 124.7135,102.4438 L5.7555,102.4438 Z" fill="#231F20"/><path d="M70.8199,19.1528 C46.7669,33.4058 26.7239,54.7848 14.2529,80.1738 L119.3689,80.1738 C108.6789,55.6758 91.7539,35.1878 70.8199,19.1528" fill="#D7A229"/><path d="M75.274,268.1347 C95.762,251.6547 112.242,229.8297 122.487,204.8867 L14.253,204.8867 C27.615,231.6117 48.995,253.8817 75.274,268.1347" fill="#019B8F"/></g></g></svg>
<svg xmlns="http://www.w3.org/2000/svg" xmlns:xlink="http://www.w3.org/1999/xlink" width="117" height="19.8" x="32" y="2.5"><path fill="#ffffff" d="M7.89 15L1.32 15L1.32 4.05L7.89 4.05L7.89 5.70L3.17 5.70L3.17 8.55L7.36 8.55L7.36 10.14L3.17 10.14L3.17 13.35L7.89 13.35L7.89 15ZM17.38 15L14.84 15Q13.61 15 12.86 14.27Q12.12 13.53 12.12 12.33L12.12 12.33L12.12 5.75L9.40 5.75L9.40 4.05L14.00 4.05L14.00 12.29Q14.00 12.75 14.26 13.03Q14.52 13.30 14.97 13.30L14.97 13.30L17.38 13.30L17.38 15ZM21.59 15.15L21.59 15.15Q20.32 15.15 19.60 14.44Q18.87 13.72 18.87 12.57L18.87 12.57Q18.87 11.37 19.70 10.66Q20.52 9.95 21.96 9.95L21.96 9.95L23.97 9.95L23.97 9.36Q23.97 8.12 22.52 8.12L22.52 8.12Q21.86 8.12 21.46 8.37Q21.07 8.63 21.03 9.09L21.03 9.09L19.23 9.09Q19.29 7.98 20.17 7.29Q21.05 6.60 22.53 6.60L22.53 6.60Q24.11 6.60 24.98 7.33Q25.84 8.07 25.84 9.41L25.84 9.41L25.84 15L24.02 15L24.02 13.46Q23.91 14.25 23.27 14.70Q22.62 15.15 21.59 15.15ZM22.18 13.62L22.18 13.62Q23.01 13.62 23.49 13.21Q23.97 12.81 23.97 12.13L23.97 12.13L23.97 11.16L22.05 11.16Q21.43 11.16 21.07 11.51Q20.71 11.85 20.71 12.39L20.71 12.39Q20.71 12.95 21.10 13.28Q21.48 13.62 22.18 13.62ZM31.81 15.13L31.16 15.13Q29.68 15.13 28.83 14.47Q27.98 13.80 27.98 12.66L27.98 12.66L29.82 12.66Q29.82 13.14 30.17 13.39Q30.52 13.65 31.16 13.65L31.16 13.65L31.81 13.65Q32.49 13.65 32.86 13.39Q33.23 13.14 33.23 12.66L33.23 12.66Q33.23 12.21 32.97 11.99Q32.72 11.78 32.19 11.70L32.19 11.70L30.13 11.43Q29.14 11.29 28.61 10.66Q28.08 10.04 28.08 9.03L28.08 9.03Q28.08 7.86 28.86 7.24Q29.64 6.62 31.11 6.62L31.11 6.62L31.80 6.62Q33.18 6.62 34.02 7.25Q34.86 7.88 34.89 8.93L34.89 8.93L33.03 8.93Q33.02 8.54 32.69 8.30Q32.35 8.07 31.80 8.07L31.80 8.07L31.11 8.07Q30.51 8.07 30.20 8.32Q29.88 8.57 29.88 8.98L29.88 8.98Q29.88 9.36 30.11 9.54Q30.34 9.72 30.80 9.77L30.80 9.77L32.73 10.04Q33.87 10.17 34.45 10.84Q35.02 11.51 35.02 12.63L35.02 12.63Q35.02 13.83 34.21 14.48Q33.39 15.13 31.81 15.13L31.81 15.13ZM43.91 15L41.33 15Q40.17 15 39.49 14.33Q38.80 13.66 38.80 12.53L38.80 12.53L38.80 8.45L36.52 8.45L36.52 6.75L38.80 6.75L38.80 4.43L40.70 4.43L40.70 6.75L43.98 6.75L43.98 8.45L40.70 8.45L40.70 12.48Q40.70 12.84 40.90 13.07Q41.10 13.30 41.46 13.30L41.46 13.30L43.91 13.30L43.91 15ZM53.37 15L46.14 15L46.14 13.30L48.96 13.30L48.96 8.45L46.44 8.45L46.44 6.75L50.84 6.75L50.84 13.30L53.37 13.30L53.37 15ZM49.77 5.37L49.77 5.37Q49.20 5.37 48.87 5.08Q48.54 4.79 48.54 4.29L48.54 4.29Q48.54 3.79 48.87 3.50Q49.20 3.21 49.77 3.21L49.77 3.21Q50.34 3.21 50.67 3.50Q51 3.79 51 4.29L51 4.29Q51 4.79 50.67 5.08Q50.34 5.37 49.77 5.37ZM58.63 15.15L58.63 15.15Q57.57 15.15 56.78 14.75Q55.99 14.36 55.56 13.63Q55.13 12.90 55.13 11.91L55.13 11.91L55.13 9.84Q55.13 8.85 55.56 8.12Q55.99 7.40 56.78 7.00Q57.57 6.60 58.63 6.60L58.63 6.60Q60.18 6.60 61.12 7.40Q62.05 8.21 62.10 9.59L62.10 9.59L60.26 9.59Q60.21 8.94 59.77 8.59Q59.33 8.23 58.63 8.23L58.63 8.23Q57.87 8.23 57.44 8.65Q57 9.06 57 9.82L57 9.82L57 11.91Q57 12.68 57.44 13.10Q57.87 13.52 58.63 13.52L58.63 13.52Q59.34 13.52 59.77 13.16Q60.21 12.81 60.26 12.16L60.26 12.16L62.10 12.16Q62.05 13.54 61.12 14.35Q60.18 15.15 58.63 15.15ZM67.81 15.13L67.16 15.13Q65.69 15.13 64.83 14.47Q63.98 13.80 63.98 12.66L63.98 12.66L65.82 12.66Q65.82 13.14 66.17 13.39Q66.53 13.65 67.16 13.65L67.16 13.65L67.81 13.65Q68.49 13.65 68.86 13.39Q69.22 13.14 69.22 12.66L69.22 12.66Q69.22 12.21 68.97 11.99Q68.72 11.78 68.19 11.70L68.19 11.70L66.14 11.43Q65.14 11.29 64.61 10.66Q64.08 10.04 64.08 9.03L64.08 9.03Q64.08 7.86 64.86 7.24Q65.64 6.62 67.11 6.62L67.11 6.62L67.80 6.62Q69.18 6.62 70.02 7.25Q70.86 7.88 70.89 8.93L70.89 8.93L69.03 8.93Q69.02 8.54 68.69 8.30Q68.36 8.07 67.80 8.07L67.80 8.07L67.11 8.07Q66.51 8.07 66.19 8.32Q65.88 8.57 65.88 8.98L65.88 8.98Q65.88 9.36 66.11 9.54Q66.34 9.72 66.80 9.77L66.80 9.77L68.73 10.04Q69.87 10.17 70.45 10.84Q71.03 11.51 71.03 12.63L71.03 12.63Q71.03 13.83 70.21 14.48Q69.39 15.13 67.81 15.13L67.81 15.13ZM76.52 15.15L76.52 15.15Q75.47 15.15 74.69 14.74Q73.91 14.34 73.48 13.60Q73.05 12.86 73.05 11.85L73.05 11.85L73.05 9.90Q73.05 8.89 73.48 8.15Q73.91 7.41 74.69 7.00Q75.47 6.60 76.52 6.60L76.52 6.60Q77.55 6.60 78.32 7.00Q79.09 7.41 79.52 8.14Q79.95 8.87 79.95 9.84L79.95 9.84L79.95 11.34L74.85 11.34L74.85 11.91Q74.85 12.75 75.28 13.18Q75.72 13.61 76.52 13.61L76.52 13.61Q77.10 13.61 77.51 13.40Q77.92 13.20 78 12.81L78 12.81L79.86 12.81Q79.67 13.88 78.75 14.51Q77.83 15.15 76.52 15.15ZM74.85 9.84L74.85 9.84L74.85 10.13L78.15 10.11L78.15 9.82Q78.15 8.97 77.73 8.50Q77.31 8.04 76.52 8.04L76.52 8.04Q75.69 8.04 75.27 8.51Q74.85 8.98 74.85 9.84ZM84.58 15.15L84.58 15.15Q83.33 15.15 82.60 14.44Q81.87 13.72 81.87 12.57L81.87 12.57Q81.87 11.37 82.69 10.66Q83.52 9.95 84.96 9.95L84.96 9.95L86.97 9.95L86.97 9.36Q86.97 8.12 85.52 8.12L85.52 8.12Q84.86 8.12 84.47 8.37Q84.08 8.63 84.03 9.09L84.03 9.09L82.23 9.09Q82.29 7.98 83.17 7.29Q84.05 6.60 85.53 6.60L85.53 6.60Q87.11 6.60 87.97 7.33Q88.84 8.07 88.84 9.41L88.84 9.41L88.84 15L87.02 15L87.02 13.46Q86.91 14.25 86.27 14.70Q85.62 15.15 84.58 15.15ZM85.19 13.62L85.19 13.62Q86.01 13.62 86.49 13.21Q86.97 12.81 86.97 12.13L86.97 12.13L86.97 11.16L85.05 11.16Q84.44 11.16 84.08 11.51Q83.72 11.85 83.72 12.39L83.72 12.39Q83.72 12.95 84.10 13.28Q84.48 13.62 85.19 13.62ZM93.33 15L91.45 15L91.45 6.75L93.28 6.75L93.28 8.36Q93.44 7.54 94.03 7.07Q94.62 6.60 95.56 6.60L95.56 6.60Q96.83 6.60 97.53 7.41Q98.23 8.22 98.23 9.68L98.23 9.68L98.23 10.46L96.36 10.46L96.36 9.77Q96.36 9.02 95.97 8.62Q95.58 8.22 94.86 8.22L94.86 8.22Q94.11 8.22 93.72 8.67Q93.33 9.12 93.33 9.95L93.33 9.95L93.33 15ZM103.64 15.15L103.64 15.15Q102.57 15.15 101.78 14.75Q101.00 14.36 100.56 13.63Q100.13 12.90 100.13 11.91L100.13 11.91L100.13 9.84Q100.13 8.85 100.56 8.12Q101.00 7.40 101.78 7.00Q102.57 6.60 103.64 6.60L103.64 6.60Q105.18 6.60 106.12 7.40Q107.06 8.21 107.10 9.59L107.10 9.59L105.25 9.59Q105.21 8.94 104.77 8.59Q104.33 8.23 103.64 8.23L103.64 8.23Q102.87 8.23 102.44 8.65Q102 9.06 102 9.82L102 9.82L102 11.91Q102 12.68 102.44 13.10Q102.87 13.52 103.64 13.52L103.64 13.52Q104.34 13.52 104.78 13.16Q105.21 12.81 105.25 12.16L105.25 12.16L107.10 12.16Q107.06 13.54 106.12 14.35Q105.18 15.15 103.64 15.15ZM111.03 15L109.16 15L109.16 4.05L111.03 4.05L111.03 6.75L110.98 8.28Q111.14 7.50 111.72 7.05Q112.31 6.60 113.20 6.60L113.20 6.60Q114.42 6.60 115.15 7.41Q115.88 8.22 115.88 9.59L115.88 9.59L115.88 15L114 15L114 9.81Q114 9.04 113.60 8.63Q113.20 8.22 112.53 8.22L112.53 8.22Q111.83 8.22 111.43 8.64Q111.03 9.06 111.03 9.84L111.03 9.84L111.03 15Z"/></svg>
</svg>