<svg viewBox="0 0 101.9208 25" width="101.9208" height="25" xmlns="http://www.w3.org/2000/svg">
<rect x="0.5" y="0.5" width="100.9208" height="24" rx="12" fill="#292A2D" stroke="#606366"/>
<svg xmlns="http://www.w3.org/2000/svg" viewBox="0 0 32.302 40" x="11" y="4.5" width="12.9208" height="16"><defs><radialGradient id="c" cx=".028" cy=".068" r="1.223" gradientTransform="matrix(1.238 0 0 -1 -2.189 -5.539)" gradientUnits="objectBoundingBox"><stop offset="0" stop-color="#fff" stop-opacity=".102"/><stop offset="1" stop-color="#fff" stop-opacity="0"/></radialGradient><linearGradient id="b" x1=".197" x2=".699" y1="1.193" y2=".448" gradientUnits="objectBoundingBox"><stop offset="0" stop-color="#1a237e" stop-opacity=".4"/><stop offset="1" stop-color="#1a237e" stop-opacity="0"/></linearGradient><clipPath id="a"><path d="M32.302 18.457 21.535 29.224 32.302 40h-12.3L9.227 29.224l10.771-10.767ZM19.998 0l-20 20 6.154 6.154L32.302 0h-12.3Z"/></clipPath></defs><g clip-path="url(#a)"><path fill="#39cefd" d="m9.229 29.229 6.15 6.154 16.923-16.925h-12.3Z"/></g><g clip-path="url(#a)"><path fill="#39cefd" d="M19.998 0h12.3L6.154 26.151 0 19.998Z"/></g><g clip-path="url(#a)"><path fill="#03569b" d="m15.38 35.384 4.617 4.613h12.3L21.538 29.229Z"/></g><g clip-path="url(#a)"><path fill="url(#b)" d="M41.169 51.037 38.2 48.045 32.042 54.2Z" transform="translate(-16.662 -18.816)"/></g><g clip-path="url(#a)"><path fill="#16b9fd" d="m9.229 29.227 6.154-6.154 6.154 6.154-6.153 6.151Z"/></g><path fill="url(#c)" d="M39.733 19.733 28.966 30.5l10.767 10.776h-12.3L16.658 30.5l10.771-10.767ZM27.429 1.276l-20 20 6.154 6.154 26.15-26.154h-12.3Z" transform="translate(-7.431 -1.276)"/></svg>
<svg xmlns="http://www.w3.org/2000/svg" xmlns:xlink="http://www.w3.org/1999/xlink" width="63" height="19.8" x="28.9208" y="2.5"><path fill="#ffffff" d="M3.07 15L1.20 15L1.20 4.05L8.01 4.05L8.01 5.79L3.04 5.79L3.04 8.71L7.62 8.71L7.62 10.46L3.07 10.46L3.07 15ZM17.38 15L14.84 15Q13.61 15 12.86 14.27Q12.12 13.53 12.12 12.33L12.12 12.33L12.12 5.75L9.40 5.75L9.40 4.05L14.00 4.05L14.00 12.29Q14.00 12.75 14.26 13.03Q14.52 13.30 14.97 13.30L14.97 13.30L17.38 13.30L17.38 15ZM22.50 15.15L22.50 15.15Q20.93 15.15 20.02 14.27Q19.13 13.39 19.13 11.88L19.13 11.88L19.13 6.75L21 6.75L21 11.87Q21 12.64 21.39 13.08Q21.78 13.52 22.50 13.52L22.50 13.52Q23.20 13.52 23.60 13.08Q24 12.64 24 11.87L24 11.87L24 6.75L25.88 6.75L25.88 11.88Q25.88 13.39 24.96 14.27Q24.05 15.15 22.50 15.15ZM34.91 15L32.33 15Q31.17 15 30.49 14.33Q29.80 13.66 29.80 12.53L29.80 12.53L29.80 8.45L27.52 8.45L27.52 6.75L29.80 6.75L29.80 4.43L31.70 4.43L31.70 6.75L34.98 6.75L34.98 8.45L31.70 8.45L31.70 12.48Q31.70 12.84 31.90 13.07Q32.10 13.30 32.46 13.30L32.46 13.30L34.91 13.30L34.91 15ZM43.91 15L41.33 15Q40.17 15 39.49 14.33Q38.80 13.66 38.80 12.53L38.80 12.53L38.80 8.45L36.52 8.45L36.52 6.75L38.80 6.75L38.80 4.43L40.70 4.43L40.70 6.75L43.98 6.75L43.98 8.45L40.70 8.45L40.70 12.48Q40.70 12.84 40.90 13.07Q41.10 13.30 41.46 13.30L41.46 13.30L43.91 13.30L43.91 15ZM49.52 15.15L49.52 15.15Q48.47 15.15 47.69 14.74Q46.91 14.34 46.48 13.60Q46.05 12.86 46.05 11.85L46.05 11.85L46.05 9.90Q46.05 8.89 46.48 8.15Q46.91 7.41 47.69 7.00Q48.47 6.60 49.52 6.60L49.52 6.60Q50.55 6.60 51.32 7.00Q52.09 7.41 52.52 8.14Q52.95 8.87 52.95 9.84L52.95 9.84L52.95 11.34L47.85 11.34L47.85 11.91Q47.85 12.75 48.28 13.18Q48.72 13.61 49.52 13.61L49.52 13.61Q50.10 13.61 50.51 13.40Q50.92 13.20 51 12.81L51 12.81L52.86 12.81Q52.66 13.88 51.75 14.51Q50.84 15.15 49.52 15.15ZM47.85 9.84L47.85 9.84L47.85 10.13L51.15 10.11L51.15 9.82Q51.15 8.97 50.73 8.50Q50.31 8.04 49.52 8.04L49.52 8.04Q48.69 8.04 48.27 8.51Q47.85 8.98 47.85 9.84ZM57.33 15L55.45 15L55.45 6.75L57.28 6.75L57.28 8.36Q57.44 7.54 58.03 7.07Q58.62 6.60 59.56 6.60L59.56 6.60Q60.83 6.60 61.53 7.41Q62.23 8.22 62.23 9.68L62.23 9.68L62.23 10.46L60.36 10.46L60.36 9.77Q60.36 9.02 59.97 8.62Q59.58 8.22 58.86 8.22L58.86 8.22Q58.11 8.22 57.72 8.67Q57.33 9.12 57.33 9.95L57.33 9.95L57.33 15Z"/></svg>
</svg>