<svg viewBox="0 0 76.10988186761672 25" width="76.10988186761672" height="25" xmlns="http://www.w3.org/2000/svg">
<rect x="0.5" y="0.5" width="75.10988186761672" height="24" rx="12" fill="#292A2D" stroke="#606366"/>
<svg xmlns="http://www.w3.org/2000/svg" viewBox="0 0 14.109 15.999" x="11" y="4.5" width="14.109881867616725" height="16"><path fill="#e44d26" d="M1.283 14.4 0 0h14.109l-1.283 14.4L7.043 16"/><path fill="#f16529" d="M7.055 14.775V1.183h5.768l-1.1 12.29"/><path fill="#ebebeb" d="M2.622 2.945h4.433v1.766h-2.5l.163 1.808h2.334v1.762H3.101m.078.887h1.774l.125 1.411 1.976.529v1.843L3.429 11.94"/><path fill="#fff" d="M11.473 2.945H7.047v1.766h4.263m-.16 1.808h-4.1v1.766h2.178l-.206 2.295-1.971.529v1.836l3.617-1"/></svg>
<svg xmlns="http://www.w3.org/2000/svg" xmlns:xlink="http://www.w3.org/1999/xlink" width="36" height="19.8" x="30.109881867616725" y="2.5"><path fill="#ffffff" d="M3.03 15L1.16 15L1.16 4.05L3.03 4.05L3.03 8.49L5.97 8.49L5.97 4.05L7.84 4.05L7.84 15L5.97 15L5.97 10.19L3.03 10.19L3.03 15ZM14.45 15L12.55 15L12.55 5.75L9.69 5.75L9.69 4.05L17.31 4.05L17.31 5.75L14.45 5.75L14.45 15ZM20.57 15L18.81 15L18.81 4.05L21.25 4.05L22.48 8.76L23.73 4.05L26.19 4.05L26.19 15L24.43 15L24.43 10.39Q24.43 9.45 24.49 8.44Q24.54 7.43 24.61 6.47Q24.69 5.52 24.78 4.74L24.78 4.74L23.23 10.25L21.69 10.25L20.20 4.88Q20.34 5.91 20.45 7.34Q20.57 8.78 20.57 10.39L20.57 10.39L20.57 15ZM35.34 15L28.82 15L28.82 4.05L30.69 4.05L30.69 13.30L35.34 13.30L35.34 15Z"/></svg>
</svg>