<svg viewBox="0 0 132 25" width="132" height="25" xmlns="http://www.w3.org/2000/svg">
<rect x="0.5" y="0.5" width="131" height="24" rx="12" fill="#292A2D" stroke="#606366"/>
<svg xmlns="http://www.w3.org/2000/svg" viewBox="0 0 15.997 15.997" x="11" y="4.5" width="16" height="16"><defs><clipPath id="a"><path d="M0 0h15.997v15.997H0z"/></clipPath></defs><g clip-path="url(#a)"><path d="M11.847 11.629c.1-.847.071-.971.7-.833l.16.014a3.647 3.647 0 0 0 1.492-.251c.8-.372 1.277-.993.486-.83-1.8.372-1.928-.239-1.928-.239 1.9-2.826 2.7-6.415 2.014-7.292C12.896-.202 9.651.935 9.596.964h-.017a6.43 6.43 0 0 0-1.2-.125 2.973 2.973 0 0 0-1.906.571S.684-.975.953 4.41c.058 1.146 1.642 8.667 3.532 6.4.694-.837 1.362-1.537 1.362-1.537a1.752 1.752 0 0 0 1.145.292l.032-.028a1.255 1.255 0 0 0 .013.323c-.486.544-.343.64-1.317.84s-.407.565-.028.659a2 2 0 0 0 2.233-.725l-.028.115c.191.153.178 1.1.205 1.775a6.384 6.384 0 0 0 .21 1.678c.138.372.3 1.331 1.579 1.054 1.065-.229 1.887-.559 1.961-3.627"/><path d="M9.459 15.977a1.775 1.775 0 0 1-1.743-1.441 1.8995 1.8995 0 0 0-.034-.1 6.642 6.642 0 0 1-.251-1.883c0-.12-.008-.249-.012-.379 0-.081 0-.178-.008-.272a2.892 2.892 0 0 1-1.883.114 1.583 1.583 0 0 1-.825-.471 1.37 1.37 0 0 1-1.355.293C1.305 11.152.312 4.97.287 4.445A3.87 3.87 0 0 1 1.65.837C3.192-.252 5.511.369 6.387.666A3.745 3.745 0 0 1 8.393.171a7.349 7.349 0 0 1 1.142.1c.944-.308 3.941-.828 5.769 1.509.959 1.227-.015 4.778-1.553 7.394a4.68 4.68 0 0 0 .8-.106c.877-.178 1.119.335 1.173.5.272.823-.882 1.432-1.243 1.6a4.315 4.315 0 0 1-1.8.312l-.137-.012-.01.085-.015.126c-.082 3.127-.939 3.905-2.491 4.235a2.733 2.733 0 0 1-.569.063Zm-1.145-5.75c.383.306.415.865.444 1.907 0 .125.007.248.012.363a6.688 6.688 0 0 0 .169 1.472c.016.044.033.095.051.15.139.426.2.6.759.482.793-.17 1.366-.293 1.431-2.987l.67.016-.666-.08.018-.154c.059-.5.1-.895.461-1.154a1.01 1.01 0 0 1 .7-.162.938.938 0 0 1-.257-.461l-.056-.275.154-.228c1.9-2.815 2.412-6.018 2.041-6.5-1.49-1.9-4.083-1.127-4.37-1.033l-.05.027-.233.046-.146-.023a5.8 5.8 0 0 0-1.072-.117 2.308 2.308 0 0 0-1.489.434l-.3.232-.355-.146c-.694-.284-2.731-.855-3.8-.1a2.675 2.675 0 0 0-.8 2.444c.069 1.512 1.358 6.019 2.144 6.181a.777.777 0 0 0 .2-.184c.7-.837 1.36-1.536 1.386-1.561l.388-.408.473.309a1.1 1.1 0 0 0 .521.185l1.114-.95L7.691 9.6a.587.587 0 0 0 .008.155l.049.313-.211.236-.005.006.52.24Z"/><path fill="#336791" d="M14.691 9.728c-1.8.372-1.928-.239-1.928-.239 1.9-2.827 2.7-6.415 2.014-7.292C12.902-.203 9.656.935 9.602.964h-.018a6.433 6.433 0 0 0-1.2-.125 2.973 2.973 0 0 0-1.906.571s-5.79-2.385-5.52 3c.058 1.146 1.642 8.667 3.532 6.4.688-.835 1.356-1.535 1.356-1.535a1.752 1.752 0 0 0 1.141.3l.032-.028a1.262 1.262 0 0 0 .013.323c-.487.544-.343.639-1.317.84s-.407.565-.028.659a2 2 0 0 0 2.233-.725l-.028.115a3.251 3.251 0 0 1 .3 1.757 4.837 4.837 0 0 0 .113 1.7c.15.409.3 1.331 1.58 1.054a1.887 1.887 0 0 0 1.7-1.813c.055-.7.178-.6.186-1.229l.1-.3c.115-.954.018-1.262.677-1.119l.16.014a3.647 3.647 0 0 0 1.492-.251c.8-.372 1.277-.993.486-.83Z"/><path fill="#fff" d="M9.536 15.558a1.628 1.628 0 0 1-1.557-1.2 17.414 17.414 0 0 1-.2-4.088.224.224 0 1 1 .444.013 17.767 17.767 0 0 0 .17 3.905 1.205 1.205 0 0 0 1.571.87 1.532 1.532 0 0 0 1.453-1.471c.122-.706.362-2.712.392-3.107a.224.224 0 0 1 .444.034c-.031.413-.271 2.419-.4 3.152a1.975 1.975 0 0 1-1.8 1.832 2.5 2.5 0 0 1-.517.061ZM3.755 11.433a.888.888 0 0 1-.28-.046C1.813 10.832.755 5.116.723 4.401a3.471 3.471 0 0 1 1.18-3.225c1.693-1.2 4.536-.059 4.656-.01a.224.224 0 0 1-.169.414c-.028-.011-2.737-1.1-4.229-.039a3.07 3.07 0 0 0-.987 2.84c.051 1.009 1.16 6.155 2.451 6.585.082.028.328.109.686-.32.688-.827 1.32-1.488 1.326-1.495a.224.224 0 1 1 .323.31c-.006.006-.628.656-1.3 1.471a1.169 1.169 0 0 1-.905.501ZM12.752 9.691a.224.224 0 0 1-.186-.349c1.922-2.852 2.6-6.294 2.024-7.03-1.717-2.2-4.628-1.264-4.892-1.173a.222.222 0 0 1-.034.013.232.232 0 0 1-.279-.119.225.225 0 0 1 .089-.283l.058-.021.031-.007c.553-.178 3.571-.995 5.38 1.317.822 1.05-.19 4.863-2.005 7.555a.224.224 0 0 1-.186.1Z"/><path fill="#fff" d="M12.848 11.011a1.692 1.692 0 0 1-.809-.154.43.43 0 0 1-.229-.348c-.049-.857.41-1.027.665-1.1a3.304 3.304 0 0 0-.119-.154 3.1 3.1 0 0 1-.491-.792c-.023-.056-.1-.188-.182-.342-.465-.834-1.433-2.574-.808-3.462a1.719 1.719 0 0 1 1.686-.492 4.638 4.638 0 0 0-4.2-3.123 2.686 2.686 0 0 0-2.041.763 5.17 5.17 0 0 0-1.113 3.3.224.224 0 0 1-.444.012A5.543 5.543 0 0 1 6.006 1.49a3.116 3.116 0 0 1 2.363-.9 5.073 5.073 0 0 1 4.7 3.755.249.249 0 0 1-.187.3h-.081c-.563-.089-1.291-.117-1.559.266-.465.665.444 2.3.832 2.992.1.178.172.308.205.389a2.673 2.673 0 0 0 .427.683 1.184 1.184 0 0 1 .259.43c.02.032.266.369 1.668.081.367-.076.589-.009.658.2.133.4-.6.865-1.006 1.054a3.768 3.768 0 0 1-1.437.271Zm-.122-1.212c-.037.014-.07.024-.089.03-.209.059-.407.114-.375.655a2.945 2.945 0 0 0 1.84-.152 2.471 2.471 0 0 0 .636-.411h-.01a2.735 2.735 0 0 1-1.934-.077.787.787 0 0 1-.069-.045ZM7.386 9.416a.783.783 0 0 1 .309.074.906.906 0 0 1 .492.589.759.759 0 0 1-.094.663 2.08 2.08 0 0 1-1.756.905 2.957 2.957 0 0 1-.71-.089c-.071-.018-.693-.185-.685-.583.008-.364.527-.471.723-.512.688-.142.732-.2.946-.47.066-.083.143-.178.249-.3a.71.71 0 0 1 .526-.277ZM6.337 11.2a1.629 1.629 0 0 0 1.392-.718.334.334 0 0 0 .028-.28.473.473 0 0 0-.233-.3.393.393 0 0 0-.138-.04.3.3 0 0 0-.2.125c-.1.111-.171.2-.232.28-.273.346-.4.464-1.207.63a1.457 1.457 0 0 0-.318.095.992.992 0 0 0 .3.129 2.5 2.5 0 0 0 .6.08Z"/><path fill="#fff" d="M6.992 10.053a.224.224 0 0 1-.221-.19q-.007-.044-.01-.089a2.041 2.041 0 0 1-1.42-.643 2.327 2.327 0 0 1-.613-1.948 9.112 9.112 0 0 0 .046-1.84c-.006-.1-.011-.183-.011-.23 0-.359 1.057-.82 1.669-.888a1.166 1.166 0 0 1 1.408.952 4.521 4.521 0 0 1-.238 3.265c-.049.109-.1.213-.134.316l-.034.089a2.214 2.214 0 0 0-.225.944.224.224 0 0 1-.187.255ZM5.217 5.177c0 .037 0 .084.008.138a9.52 9.52 0 0 1-.05 1.929 1.883 1.883 0 0 0 .493 1.576 1.591 1.591 0 0 0 1.141.506 5.833 5.833 0 0 1 .21-.632l.033-.089c.042-.113.089-.225.146-.343a4.083 4.083 0 0 0 .209-2.987.678.678 0 0 0-.524-.585 2.456 2.456 0 0 0-1.667.488Z"/><path fill="#fff" d="M6.443 5.087c-.011.073.134.266.322.295a.347.347 0 0 0 .355-.2c.011-.073-.134-.154-.322-.177s-.349.012-.355.089Z"/><path fill="#fff" d="M6.688 4.915a.917.917 0 0 1 .126.009.769.769 0 0 1 .262.081c.121.067.13.144.124.183a.3.3 0 0 1-.127.177.444.444 0 0 1-.266.089.408.408 0 0 1-.053 0 .5.5 0 0 1-.319-.2.273.273 0 0 1-.067-.177l.009-.064h.019a.209.209 0 0 1 .093-.063.57.57 0 0 1 .199-.035Zm.362.257a.19.19 0 0 0-.068-.047.669.669 0 0 0-.188-.052.772.772 0 0 0-.106-.008.477.477 0 0 0-.124.014.141.141 0 0 0-.043.019.283.283 0 0 0 .073.106.342.342 0 0 0 .185.1h.033a.3.3 0 0 0 .169-.059.228.228 0 0 0 .071-.073ZM12.164 4.935c.01.073-.134.266-.322.295a.347.347 0 0 1-.355-.2c-.01-.073.134-.154.322-.178s.349.012.355.089Z"/><path fill="#fff" d="M11.92 4.803a.534.534 0 0 1 .177.028c.074.028.094.068.1.1a.283.283 0 0 1-.1.2.455.455 0 0 1-.257.141.35.35 0 0 1-.049 0 .407.407 0 0 1-.24-.083.267.267 0 0 1-.113-.151c-.007-.051.03-.1.106-.145a.73.73 0 0 1 .249-.076.884.884 0 0 1 .126-.006Zm.206.136c0-.025-.071-.061-.206-.061a.808.808 0 0 0-.111.008c-.2.028-.295.106-.29.138a.208.208 0 0 0 .083.1.337.337 0 0 0 .2.068h.038a.381.381 0 0 0 .214-.118.236.236 0 0 0 .076-.134ZM12.434 9.147a.224.224 0 0 1-.186-.348 2.677 2.677 0 0 0 .279-1.965 5.61 5.61 0 0 1-.059-.839 5.833 5.833 0 0 1 .08-.742 3.759 3.759 0 0 0 .064-.814.224.224 0 1 1 .444-.024 4.177 4.177 0 0 1-.068.906 5.466 5.466 0 0 0-.075.688 5.207 5.207 0 0 0 .056.771 3.074 3.074 0 0 1-.355 2.267.224.224 0 0 1-.18.1Z"/></g></svg>
<svg xmlns="http://www.w3.org/2000/svg" xmlns:xlink="http://www.w3.org/1999/xlink" width="90" height="19.8" x="32" y="2.5"><path fill="#ffffff" d="M3.03 15L1.16 15L1.16 4.05L4.80 4.05Q5.89 4.05 6.71 4.47Q7.53 4.89 7.98 5.65Q8.43 6.41 8.43 7.43L8.43 7.43Q8.43 8.45 7.98 9.20Q7.53 9.96 6.71 10.38Q5.89 10.80 4.80 10.80L4.80 10.80L3.03 10.80L3.03 15ZM3.03 5.70L3.03 9.15L4.80 9.15Q5.59 9.15 6.06 8.67Q6.52 8.19 6.52 7.43L6.52 7.43Q6.52 6.66 6.06 6.18Q5.59 5.70 4.80 5.70L4.80 5.70L3.03 5.70ZM13.50 15.13L13.50 15.13Q11.91 15.13 10.98 14.24Q10.05 13.35 10.05 11.84L10.05 11.84L10.05 9.91Q10.05 8.39 10.98 7.50Q11.91 6.62 13.50 6.62L13.50 6.62Q15.09 6.62 16.02 7.50Q16.95 8.39 16.95 9.91L16.95 9.91L16.95 11.84Q16.95 13.35 16.02 14.24Q15.09 15.13 13.50 15.13ZM13.50 13.50L13.50 13.50Q14.25 13.50 14.66 13.09Q15.07 12.68 15.07 11.89L15.07 11.89L15.07 9.86Q15.07 9.07 14.66 8.66Q14.25 8.25 13.50 8.25L13.50 8.25Q12.75 8.25 12.34 8.66Q11.93 9.07 11.93 9.86L11.93 9.86L11.93 11.89Q11.93 12.68 12.34 13.09Q12.75 13.50 13.50 13.50ZM22.81 15.13L22.16 15.13Q20.68 15.13 19.83 14.47Q18.98 13.80 18.98 12.66L18.98 12.66L20.82 12.66Q20.82 13.14 21.17 13.39Q21.52 13.65 22.16 13.65L22.16 13.65L22.81 13.65Q23.49 13.65 23.86 13.39Q24.23 13.14 24.23 12.66L24.23 12.66Q24.23 12.21 23.97 11.99Q23.71 11.78 23.19 11.70L23.19 11.70L21.13 11.43Q20.14 11.29 19.61 10.66Q19.08 10.04 19.08 9.03L19.08 9.03Q19.08 7.86 19.86 7.24Q20.64 6.62 22.11 6.62L22.11 6.62L22.80 6.62Q24.18 6.62 25.02 7.25Q25.86 7.88 25.89 8.93L25.89 8.93L24.03 8.93Q24.02 8.54 23.68 8.30Q23.36 8.07 22.80 8.07L22.80 8.07L22.11 8.07Q21.51 8.07 21.20 8.32Q20.88 8.57 20.88 8.98L20.88 8.98Q20.88 9.36 21.11 9.54Q21.34 9.72 21.80 9.77L21.80 9.77L23.73 10.04Q24.87 10.17 25.45 10.84Q26.02 11.51 26.02 12.63L26.02 12.63Q26.02 13.83 25.21 14.48Q24.39 15.13 22.81 15.13L22.81 15.13ZM34.91 15L32.33 15Q31.17 15 30.49 14.33Q29.80 13.66 29.80 12.53L29.80 12.53L29.80 8.45L27.52 8.45L27.52 6.75L29.80 6.75L29.80 4.43L31.70 4.43L31.70 6.75L34.98 6.75L34.98 8.45L31.70 8.45L31.70 12.48Q31.70 12.84 31.90 13.07Q32.10 13.30 32.46 13.30L32.46 13.30L34.91 13.30L34.91 15ZM40.63 17.70L38.28 17.70L38.28 16.14L40.60 16.14Q41.27 16.14 41.63 15.79Q41.98 15.44 41.98 14.84L41.98 14.84L41.98 14.34L42.02 13.05Q41.76 13.74 41.20 14.12Q40.63 14.51 39.83 14.51L39.83 14.51Q38.56 14.51 37.82 13.66Q37.08 12.81 37.08 11.36L37.08 11.36L37.08 9.75Q37.08 8.31 37.82 7.46Q38.56 6.60 39.83 6.60L39.83 6.60Q40.63 6.60 41.20 6.98Q41.76 7.37 42.02 8.07L42.02 8.07L42.02 6.75L43.84 6.75L43.84 14.88Q43.84 16.18 42.98 16.94Q42.12 17.70 40.63 17.70L40.63 17.70ZM40.45 12.90L40.45 12.90Q41.17 12.90 41.57 12.47Q41.97 12.04 41.97 11.28L41.97 11.28L41.97 9.84Q41.97 9.07 41.57 8.65Q41.17 8.22 40.45 8.22L40.45 8.22Q39.73 8.22 39.34 8.63Q38.95 9.04 38.95 9.78L38.95 9.78L38.95 11.34Q38.95 12.07 39.34 12.49Q39.73 12.90 40.45 12.90ZM48.33 15L46.45 15L46.45 6.75L48.28 6.75L48.28 8.36Q48.44 7.54 49.03 7.07Q49.62 6.60 50.56 6.60L50.56 6.60Q51.83 6.60 52.53 7.41Q53.23 8.22 53.23 9.68L53.23 9.68L53.23 10.46L51.36 10.46L51.36 9.77Q51.36 9.02 50.97 8.62Q50.58 8.22 49.86 8.22L49.86 8.22Q49.11 8.22 48.72 8.67Q48.33 9.12 48.33 9.95L48.33 9.95L48.33 15ZM58.52 15.15L58.52 15.15Q57.47 15.15 56.69 14.74Q55.91 14.34 55.48 13.60Q55.05 12.86 55.05 11.85L55.05 11.85L55.05 9.90Q55.05 8.89 55.48 8.15Q55.91 7.41 56.69 7.00Q57.47 6.60 58.52 6.60L58.52 6.60Q59.55 6.60 60.32 7.00Q61.09 7.41 61.52 8.14Q61.95 8.87 61.95 9.84L61.95 9.84L61.95 11.34L56.85 11.34L56.85 11.91Q56.85 12.75 57.28 13.18Q57.72 13.61 58.52 13.61L58.52 13.61Q59.10 13.61 59.51 13.40Q59.92 13.20 60 12.81L60 12.81L61.86 12.81Q61.66 13.88 60.75 14.51Q59.84 15.15 58.52 15.15ZM56.85 9.84L56.85 9.84L56.85 10.13L60.15 10.11L60.15 9.82Q60.15 8.97 59.73 8.50Q59.31 8.04 58.52 8.04L58.52 8.04Q57.69 8.04 57.27 8.51Q56.85 8.98 56.85 9.84ZM67.55 15.15L67.55 15.15Q66.44 15.15 65.60 14.76Q64.77 14.37 64.31 13.64Q63.85 12.91 63.85 11.91L63.85 11.91L65.70 11.91Q65.70 12.64 66.20 13.08Q66.70 13.52 67.55 13.52L67.55 13.52Q68.36 13.52 68.83 13.09Q69.30 12.66 69.30 11.94L69.30 11.94Q69.30 11.40 68.99 10.99Q68.69 10.57 68.11 10.43L68.11 10.43L66.64 10.05Q65.46 9.75 64.77 8.93Q64.08 8.10 64.08 6.96L64.08 6.96Q64.08 5.56 65.00 4.73Q65.91 3.90 67.44 3.90L67.44 3.90Q68.47 3.90 69.25 4.28Q70.02 4.65 70.44 5.33Q70.86 6.02 70.86 6.93L70.86 6.93L69.03 6.93Q69.03 6.30 68.59 5.91Q68.16 5.52 67.44 5.52L67.44 5.52Q66.73 5.52 66.32 5.90Q65.91 6.29 65.91 6.90L65.91 6.90Q65.91 7.41 66.20 7.74Q66.50 8.07 67.02 8.22L67.02 8.22L68.53 8.60Q69.75 8.89 70.45 9.79Q71.14 10.70 71.14 11.94L71.14 11.94Q71.14 12.91 70.70 13.63Q70.26 14.36 69.45 14.75Q68.64 15.15 67.55 15.15ZM80.16 17.70L78.14 17.70L76.59 15.15Q76.55 15.15 76.50 15.15L76.50 15.15Q75.45 15.15 74.67 14.74Q73.89 14.34 73.45 13.61Q73.02 12.87 73.02 11.88L73.02 11.88L73.02 7.17Q73.02 6.18 73.45 5.45Q73.88 4.71 74.66 4.30Q75.45 3.90 76.50 3.90L76.50 3.90Q77.55 3.90 78.33 4.30Q79.11 4.71 79.55 5.45Q79.98 6.18 79.98 7.17L79.98 7.17L79.98 11.88Q79.98 12.87 79.55 13.61Q79.13 14.36 78.34 14.74L78.34 14.74L80.16 17.70ZM76.50 13.50L76.50 13.50Q77.28 13.50 77.69 13.07Q78.11 12.64 78.11 11.88L78.11 11.88L78.11 7.17Q78.11 6.41 77.68 5.97Q77.25 5.54 76.50 5.54L76.50 5.54Q75.75 5.54 75.32 5.97Q74.89 6.41 74.89 7.17L74.89 7.17L74.89 11.88Q74.89 12.64 75.31 13.07Q75.72 13.50 76.50 13.50ZM89.34 15L82.81 15L82.81 4.05L84.69 4.05L84.69 13.30L89.34 13.30L89.34 15Z"/></svg>
</svg>