<svg viewBox="0 0 92.27519083662455 25" width="92.27519083662455" height="25" xmlns="http://www.w3.org/2000/svg">
<rect x="0.5" y="0.5" width="91.27519083662455" height="24" rx="12" fill="#292A2D" stroke="#606366"/>
<svg xmlns="http://www.w3.org/2000/svg" viewBox="0 0 95.379 124.321" x="11" y="4.5" width="12.275190836624546" height="16"><path fill="#f33" d="M5.582 0a1.892 1.892 0 0 0-1.89 1.89v98.726a71.868 71.868 0 0 0-2.957 9.273 26.9 26.9 0 0 0-.731 6.047 9.514 9.514 0 0 0 1.441 4.736 7.589 7.589 0 0 0 3.449 2.968 11.845 11.845 0 0 0 9.04-.467 1.927 1.927 0 0 0 .275-.219h79.17a1.907 1.907 0 0 0 1.695-2.76L74.131 78.738a1.9 1.9 0 0 1 .738-2.5 40.8 40.8 0 0 0 15.468-55.043h.006l-.043-.07c-.07-.124-.128-.254-.2-.377-.016-.017-.036-.032-.052-.049-.28-.5-.57-.99-.883-1.49.036.044.075.085.111.129q-.887-1.414-1.887-2.752l-.017-.026h-.006A40.739 40.739 0 0 0 55.184 0Zm62.422 9.818a28.928 28.928 0 0 1 2.941.166c.471.053.941.12 1.41.2.094.015.2.038.327.06.382.068.76.14 1.135.223.067.015.145.035.238.057.392.09.781.186 1.164.293.114.031.237.071.373.11.342.1.68.2 1.014.315.118.04.242.086.375.133.357.125.71.253 1.056.39l.223.093c.378.154.752.313 1.12.482l.265.125c.365.173.724.351 1.08.539.068.036.144.08.228.125.33.178.656.36.975.55.136.082.274.169.416.257.286.177.569.357.848.545q.591.4 1.16.824a26.3 26.3 0 0 1 2.195 1.846l.156.15a29.391 29.391 0 0 0-14.689-4.753c-6.7-.277-13.016 2.085-15.527 7.957-2.567 5.99-.408 12.289 3.088 16.916.248.327.516.627.776.937 5.309-7.633 8.984-12.82 8.984-12.82l.47-.658.38.715a128.629 128.629 0 0 1 5.83 11.652 6.652 6.652 0 0 1 .384 3.258c-.73 3.978-4.217 6.583-6.673 8.652C66.79 51.629 62.783 54.9 57.664 59.8c-10.277 9.84-20.601 25.071-28.757 38.064-4.078 6.5-7.612 12.434-10.311 16.85-1.35 2.208-2.493 4.036-3.385 5.356-.446.66-.83 1.194-1.14 1.578a3.84 3.84 0 0 1-.634.654 10.138 10.138 0 0 1-7.98.518 6.672 6.672 0 0 1-3.02-2.42 9.258 9.258 0 0 1-1.432-4.312 27.171 27.171 0 0 1 .743-6.176c1.5-6.371 5.488-16.573 14.228-33.327v-.006q1.95-3.736 4.223-7.92l.006-.01c5.47-10.058 10.054-18.422 13.982-25.37l.014-.024c2.613-4.62 4.939-8.616 7.046-12.064l.006-.007a116.071 116.071 0 0 1 8.256-12.12l.008-.008a39.78 39.78 0 0 1 3.457-3.807 24.065 24.065 0 0 1 2.174-1.855 16.3 16.3 0 0 1 6.515-3.012 29.7 29.7 0 0 1 6.329-.549Zm1.67 16.992c-.232.325-3.705 5.23-8.656 12.346a21.731 21.731 0 0 0 4.433 3.776c2.357 1.349 4.451 2.171 6.41 1.408 1.653-.647 2.23-2.005 2.567-3.533.65-5.334-2.69-10.13-4.754-14Z"/></svg>
<svg xmlns="http://www.w3.org/2000/svg" xmlns:xlink="http://www.w3.org/1999/xlink" width="54" height="19.8" x="28.275190836624546" y="2.5"><path fill="#ffffff" d="M3.01 15L1.16 15L1.16 4.05L4.60 4.05Q5.70 4.05 6.50 4.46Q7.30 4.86 7.75 5.59Q8.21 6.31 8.21 7.31L8.21 7.31Q8.21 8.40 7.67 9.22Q7.13 10.04 6.21 10.38L6.21 10.38L8.36 15L6.30 15L4.38 10.65L3.01 10.65L3.01 15ZM3.01 5.70L3.01 9L4.60 9Q5.40 9 5.85 8.57Q6.30 8.13 6.30 7.37L6.30 7.37Q6.30 6.60 5.84 6.15Q5.38 5.70 4.60 5.70L4.60 5.70L3.01 5.70ZM13.50 15.13L13.50 15.13Q11.91 15.13 10.98 14.24Q10.05 13.35 10.05 11.84L10.05 11.84L10.05 9.91Q10.05 8.39 10.98 7.50Q11.91 6.62 13.50 6.62L13.50 6.62Q15.09 6.62 16.02 7.50Q16.95 8.39 16.95 9.91L16.95 9.91L16.95 11.84Q16.95 13.35 16.02 14.24Q15.09 15.13 13.50 15.13ZM13.50 13.50L13.50 13.50Q14.25 13.50 14.66 13.09Q15.07 12.68 15.07 11.89L15.07 11.89L15.07 9.86Q15.07 9.07 14.66 8.66Q14.25 8.25 13.50 8.25L13.50 8.25Q12.75 8.25 12.34 8.66Q11.93 9.07 11.93 9.86L11.93 9.86L11.93 11.89Q11.93 12.68 12.34 13.09Q12.75 13.50 13.50 13.50ZM26.38 15L23.84 15Q22.61 15 21.86 14.27Q21.12 13.53 21.12 12.33L21.12 12.33L21.12 5.75L18.41 5.75L18.41 4.05L23.00 4.05L23.00 12.29Q23.00 12.75 23.26 13.03Q23.52 13.30 23.97 13.30L23.97 13.30L26.38 13.30L26.38 15ZM35.38 15L32.84 15Q31.61 15 30.86 14.27Q30.12 13.53 30.12 12.33L30.12 12.33L30.12 5.75L27.41 5.75L27.41 4.05L32.00 4.05L32.00 12.29Q32.00 12.75 32.26 13.03Q32.52 13.30 32.97 13.30L32.97 13.30L35.38 13.30L35.38 15ZM40.50 15.15L40.50 15.15Q38.92 15.15 38.02 14.27Q37.13 13.39 37.13 11.88L37.13 11.88L37.13 6.75L39 6.75L39 11.87Q39 12.64 39.39 13.08Q39.78 13.52 40.50 13.52L40.50 13.52Q41.20 13.52 41.60 13.08Q42 12.64 42 11.87L42 11.87L42 6.75L43.88 6.75L43.88 11.88Q43.88 13.39 42.96 14.27Q42.05 15.15 40.50 15.15ZM48.03 17.70L46.16 17.70L46.16 6.75L47.98 6.75L47.98 8.27Q48.21 7.49 48.80 7.04Q49.38 6.60 50.25 6.60L50.25 6.60Q51.05 6.60 51.65 6.99Q52.26 7.38 52.60 8.09Q52.94 8.80 52.94 9.75L52.94 9.75L52.94 11.98Q52.94 13.41 52.20 14.28Q51.47 15.15 50.25 15.15L50.25 15.15Q49.38 15.15 48.79 14.70Q48.20 14.25 47.97 13.44L47.97 13.44L48.03 15.39L48.03 17.70ZM49.55 13.53L49.55 13.53Q50.27 13.53 50.66 13.14Q51.06 12.75 51.06 11.94L51.06 11.94L51.06 9.81Q51.06 9 50.66 8.61Q50.27 8.22 49.55 8.22L49.55 8.22Q48.83 8.22 48.43 8.66Q48.03 9.09 48.03 9.88L48.03 9.88L48.03 11.87Q48.03 12.66 48.43 13.10Q48.83 13.53 49.55 13.53Z"/></svg>
</svg>