<svg viewBox="0 0 103.14040353510089 25" width="103.14040353510089" height="25" xmlns="http://www.w3.org/2000/svg">
<rect x="0.5" y="0.5" width="102.14040353510089" height="24" rx="12" fill="#292A2D" stroke="#606366"/>
<svg xmlns="http://www.w3.org/2000/svg" viewBox="0 0 530 599.7" x="11" y="4.5" width="14.140403535100882" height="16"><path fill="#fff" d="m265 0 265 149.9v299.9L265 599.7 0 449.8V149.9Z"/><path fill="#8ed6fb" d="M482.7 439.4 273.8 557.7v-92L404 394Zm14.3-12.9V179.3l-76.4 44.1v159ZM46.5 439.4l208.9 118.2v-92L125.2 394Zm-14.3-12.9V179.3l76.4 44.1v159l-76.4 44.1Zm8.9-263.2L255.4 42.1v89l-137.3 75.5-1.1.6-75.9-43.9Zm446.9 0L273.8 42.1v89L411 206.7l1.1.6 75.9-44Z"/><path fill="#1c78c0" d="M255.4 444.7 127 374V234.1l128.4 74.1Zm18.4 0 128.4-70.6v-140l-128.4 74.1Zm-9.2-141.8Zm-129-85 129-70.9 128.9 70.9-128.9 74.4Z"/></svg>
<svg xmlns="http://www.w3.org/2000/svg" xmlns:xlink="http://www.w3.org/1999/xlink" width="63" height="19.8" x="30.14040353510088" y="2.5"><path fill="#ffffff" d="M3.44 15L1.35 15L0.21 4.05L1.77 4.05L2.46 11.70Q2.49 12.09 2.53 12.70Q2.56 13.30 2.56 13.72L2.56 13.72Q2.61 13.30 2.66 12.70Q2.71 12.09 2.76 11.70L2.76 11.70L3.72 4.05L5.33 4.05L6.22 11.70Q6.27 12.09 6.34 12.70Q6.40 13.30 6.45 13.72L6.45 13.72Q6.46 13.30 6.50 12.70Q6.54 12.09 6.57 11.70L6.57 11.70L7.25 4.05L8.79 4.05L7.59 15L5.52 15L4.68 7.32Q4.63 6.88 4.59 6.26Q4.54 5.64 4.51 5.24L4.51 5.24Q4.48 5.64 4.44 6.26Q4.39 6.88 4.35 7.32L4.35 7.32L3.44 15ZM13.52 15.15L13.52 15.15Q12.46 15.15 11.69 14.74Q10.90 14.34 10.48 13.60Q10.05 12.86 10.05 11.85L10.05 11.85L10.05 9.90Q10.05 8.89 10.48 8.15Q10.90 7.41 11.69 7.00Q12.46 6.60 13.52 6.60L13.52 6.60Q14.55 6.60 15.32 7.00Q16.09 7.41 16.52 8.14Q16.95 8.87 16.95 9.84L16.95 9.84L16.95 11.34L11.85 11.34L11.85 11.91Q11.85 12.75 12.29 13.18Q12.72 13.61 13.52 13.61L13.52 13.61Q14.10 13.61 14.51 13.40Q14.93 13.20 15 12.81L15 12.81L16.86 12.81Q16.66 13.88 15.75 14.51Q14.84 15.15 13.52 15.15ZM11.85 9.84L11.85 9.84L11.85 10.13L15.15 10.11L15.15 9.82Q15.15 8.97 14.73 8.50Q14.31 8.04 13.52 8.04L13.52 8.04Q12.69 8.04 12.27 8.51Q11.85 8.98 11.85 9.84ZM23.25 15.15L23.25 15.15Q22.38 15.15 21.80 14.71Q21.21 14.28 20.98 13.50L20.98 13.50L20.98 15L19.16 15L19.16 4.05L21.03 4.05L21.03 6.36L20.97 8.25Q21.21 7.47 21.80 7.04Q22.39 6.60 23.25 6.60L23.25 6.60Q24.46 6.60 25.20 7.46Q25.93 8.31 25.93 9.77L25.93 9.77L25.93 12Q25.93 13.44 25.19 14.29Q24.45 15.15 23.25 15.15ZM22.55 13.53L22.55 13.53Q23.27 13.53 23.66 13.14Q24.06 12.75 24.06 11.94L24.06 11.94L24.06 9.81Q24.06 9 23.66 8.61Q23.27 8.22 22.55 8.22L22.55 8.22Q21.82 8.22 21.43 8.66Q21.03 9.09 21.03 9.88L21.03 9.88L21.03 11.87Q21.03 12.66 21.43 13.10Q21.82 13.53 22.55 13.53ZM30.03 17.70L28.16 17.70L28.16 6.75L29.98 6.75L29.98 8.27Q30.21 7.49 30.80 7.04Q31.38 6.60 32.25 6.60L32.25 6.60Q33.05 6.60 33.65 6.99Q34.26 7.38 34.60 8.09Q34.94 8.80 34.94 9.75L34.94 9.75L34.94 11.98Q34.94 13.41 34.20 14.28Q33.47 15.15 32.25 15.15L32.25 15.15Q31.38 15.15 30.79 14.70Q30.20 14.25 29.97 13.44L29.97 13.44L30.03 15.39L30.03 17.70ZM31.55 13.53L31.55 13.53Q32.27 13.53 32.66 13.14Q33.06 12.75 33.06 11.94L33.06 11.94L33.06 9.81Q33.06 9 32.66 8.61Q32.27 8.22 31.55 8.22L31.55 8.22Q30.82 8.22 30.43 8.66Q30.03 9.09 30.03 9.88L30.03 9.88L30.03 11.87Q30.03 12.66 30.43 13.10Q30.82 13.53 31.55 13.53ZM39.59 15.15L39.59 15.15Q38.33 15.15 37.60 14.44Q36.87 13.72 36.87 12.57L36.87 12.57Q36.87 11.37 37.70 10.66Q38.52 9.95 39.96 9.95L39.96 9.95L41.97 9.95L41.97 9.36Q41.97 8.12 40.52 8.12L40.52 8.12Q39.85 8.12 39.47 8.37Q39.08 8.63 39.03 9.09L39.03 9.09L37.23 9.09Q37.29 7.98 38.17 7.29Q39.05 6.60 40.53 6.60L40.53 6.60Q42.10 6.60 42.98 7.33Q43.84 8.07 43.84 9.41L43.84 9.41L43.84 15L42.02 15L42.02 13.46Q41.91 14.25 41.27 14.70Q40.62 15.15 39.59 15.15ZM40.19 13.62L40.19 13.62Q41.01 13.62 41.49 13.21Q41.97 12.81 41.97 12.13L41.97 12.13L41.97 11.16L40.05 11.16Q39.44 11.16 39.08 11.51Q38.72 11.85 38.72 12.39L38.72 12.39Q38.72 12.95 39.10 13.28Q39.48 13.62 40.19 13.62ZM49.63 15.15L49.63 15.15Q48.57 15.15 47.78 14.75Q46.99 14.36 46.56 13.63Q46.13 12.90 46.13 11.91L46.13 11.91L46.13 9.84Q46.13 8.85 46.56 8.12Q46.99 7.40 47.78 7.00Q48.57 6.60 49.63 6.60L49.63 6.60Q51.18 6.60 52.12 7.40Q53.05 8.21 53.10 9.59L53.10 9.59L51.26 9.59Q51.21 8.94 50.77 8.59Q50.33 8.23 49.63 8.23L49.63 8.23Q48.87 8.23 48.44 8.65Q48 9.06 48 9.82L48 9.82L48 11.91Q48 12.68 48.44 13.10Q48.87 13.52 49.63 13.52L49.63 13.52Q50.34 13.52 50.77 13.16Q51.21 12.81 51.26 12.16L51.26 12.16L53.10 12.16Q53.05 13.54 52.12 14.35Q51.18 15.15 49.63 15.15ZM57.10 15L55.23 15L55.23 4.05L57.10 4.05L57.10 9.99L58.42 9.99L60.39 6.75L62.48 6.75L60.03 10.74L62.56 15L60.44 15L58.42 11.58L57.10 11.58L57.10 15Z"/></svg>
</svg>