<svg xmlns="http://www.w3.org/2000/svg" viewBox="0 0 14.001 13.997"><defs><radialGradient id="a" cx=".5" cy=".5" r=".5" gradientTransform="matrix(1 0 0 -1 0 .886)" gradientUnits="objectBoundingBox"><stop offset="0" stop-color="#fff" stop-opacity=".102"/><stop offset="1" stop-color="#fff" stop-opacity="0"/></radialGradient></defs><path fill="#01579b" d="M2.857 11.143.464 8.749a1.628 1.628 0 0 1-.461-1.1 1.86 1.86 0 0 1 .184-.645l2.21-4.6Z"/><path fill="#40c4ff" d="M11.053 2.855 8.659.462A1.652 1.652 0 0 0 7.646.001a1.7 1.7 0 0 0-.829.184l-4.42 2.21ZM5.712 13.997h5.8v-2.486L7.186 10.13l-3.959 1.381Z"/><path fill="#29b6f6" d="M2.398 9.854a1.4 1.4 0 0 0 .461 1.289l.369.373h8.287l-4.051-4.6-5.066-4.52Z"/><path fill="#01579b" d="M9.764 2.395H2.397l9.116 9.116h2.486V5.802l-2.946-2.946a1.556 1.556 0 0 0-1.289-.461Z"/><path fill="#fff" d="M2.95 11.235a1.691 1.691 0 0 1-.461-1.381V2.488l-.093-.093v7.458a1.451 1.451 0 0 0 .553 1.382l.277.277Z" opacity=".2"/><path fill="#263238" d="M13.907 5.71v5.709h-2.486l.093.092h2.487V5.8Z" opacity=".2"/><path fill="#fff" d="M11.053 2.856a1.612 1.612 0 0 0-1.381-.461H2.398l.093.093h7.183a1.905 1.905 0 0 1 1.38.368Z" opacity=".2"/><path fill="url(#a)" d="m15.793 6.3-2.854-2.856-2.394-2.393A1.652 1.652 0 0 0 9.532.59 1.7 1.7 0 0 0 8.7.774l-4.42 2.21-2.21 4.6a1.86 1.86 0 0 0-.184.645 1.628 1.628 0 0 0 .461 1.1l2.207 2.19a2.488 2.488 0 0 0 .188.2l.093.093.277.277 2.394 2.394.093.093h5.8V12.1h2.486V6.392Z" opacity=".2" transform="translate(-1.886 -.589)"/></svg>