<svg xmlns="http://www.w3.org/2000/svg" viewBox="0 0 377.481 474.122"><path fill="#ff9100" d="M118.229 460.493a189.014 189.014 0 0 0 149.626-3.754 266.851 266.851 0 0 1-83.514-52.438 142.989 142.989 0 0 1-66.112 56.192Z"/><path fill="#ffc400" d="M184.338 404.311a266.217 266.217 0 0 1-85.563-205.285c.092-2.622.23-5.244.393-7.864a142.5 142.5 0 0 0-74.4.778 188.765 188.765 0 0 0 93.458 268.561 142.856 142.856 0 0 0 66.112-56.19Z"/><path fill="#ff9100" d="M184.339 404.308a142.4 142.4 0 0 0-85.171-213.149c-.162 2.621-.3 5.242-.392 7.865a266.215 266.215 0 0 0 85.563 205.284Z"/><path fill="#dd2c00" d="M198.71.001a266.191 266.191 0 0 0-99.571 191.176 142.4 142.4 0 0 1 85.17 213.149 266.4 266.4 0 0 0 83.514 52.435 188.678 188.678 0 0 0 109.553-164.8c1.666-47.7-16.662-90.217-42.56-126.1C307.466 127.901 198.71.001 198.71.001Z"/></svg>