<svg xmlns="http://www.w3.org/2000/svg" viewBox="0 0 36.062 40"><path fill="#083042" d="M10.857 24.169a1.26 1.26 0 0 1-.148-.406 1.433 1.433 0 0 0 .148.406m.182.225a.915.915 0 0 0 .236.173l5.949 3.329-5.949-3.329a.914.914 0 0 1-.235-.173Z"/><path fill="#083042" d="M18.143 32.103h-.044a2.615 2.615 0 0 1-1.265-.32l-8.88-4.963a1.638 1.638 0 0 1-.846-1.426V15.303a2.676 2.676 0 0 1 .262-1.211L.428 10.225a4.534 4.534 0 0 0-.427 2.006v16.672a2.735 2.735 0 0 0 1.4 2.36l14.646 8.2a4.257 4.257 0 0 0 2.085.536v-.009c.017-1.046.009-5.239.009-7.885Z"/><path fill="#3ddb85" d="m25.114 15.921-.053-.078c-.043-.06-.087-.112-.13-.173.043.052.087.112.13.172a.315.315 0 0 1 .053.078m-7.31-4.046c.044 0 .079-.009.123-.009a.64.64 0 0 1-.123.009"/><path fill="#3ddc84" d="M7.363 14.08a2.269 2.269 0 0 1 .89-.968l8.361-4.884a2.543 2.543 0 0 1 2.53-.026l8.439 4.726a2.836 2.836 0 0 1 .951.864l6.83-4.034a4.7 4.7 0 0 0-1.561-1.418L19.854.533a4.2 4.2 0 0 0-4.17.043L1.894 8.634a3.687 3.687 0 0 0-1.466 1.594l6.935 3.856Z"/><path fill="#3ddb85" d="M17.456 11.946c.018-.009.036-.009.054-.018-.018.009-.036.009-.054.018m-6.579 4.08a.8.8 0 0 1 .053-.095c-.018.034-.035.06-.053.095l-.026.078Z"/><path fill="#4285f4" d="m35.355 9.758-6.832 4.037a2.366 2.366 0 0 1 .427 1.288v9.614a2.483 2.483 0 0 1-1.238 2.179l-8.357 4.886a2.552 2.552 0 0 1-1.213.346c.009 2.637.009 6.83-.009 7.876v.009a4.263 4.263 0 0 0 2.09-.575l13.791-8.066a4.116 4.116 0 0 0 2.05-3.6V11.893a3.839 3.839 0 0 0-.706-2.135"/><path fill="#4285f4" d="M25.272 23.668c-.009.018-.009.035-.018.053a.126.126 0 0 0 .018-.053m-.088-7.63a.9.9 0 0 0-.07-.121c.026.043.052.087.07.121Zm-6.263 11.849 5.6-3.276c.035-.017.061-.043.1-.061-.035.017-.061.043-.1.061l-5.6 3.277Zm6.281-4.02c-.018.043-.044.087-.062.13a.459.459 0 0 1 .062-.13"/><path fill="#d6f0ff" d="M10.853 16.103a1.733 1.733 0 0 0-.131.528 1.7 1.7 0 0 0-.009.216v6.769a.826.826 0 0 0 .009.147.965.965 0 0 0 .148.406 1.551 1.551 0 0 0 .175.224.934.934 0 0 0 .235.173l5.95 3.328a1.733 1.733 0 0 0 .846.216h.061a1.626 1.626 0 0 0 .785-.233l5.6-3.277c.035-.017.061-.043.1-.06a1.338 1.338 0 0 0 .175-.139 2.007 2.007 0 0 0 .227-.242c.043-.061.087-.121.122-.181a.831.831 0 0 0 .061-.13c.018-.043.044-.095.061-.147.009-.018.009-.035.017-.052a1.7 1.7 0 0 0 .078-.519v-6.439a1.518 1.518 0 0 0-.043-.345 1.6 1.6 0 0 0-.07-.217l-.052-.1a.888.888 0 0 0-.07-.121l-.052-.078c-.043-.061-.087-.112-.131-.173a1.764 1.764 0 0 0-.506-.406l-5.661-3.172a1.562 1.562 0 0 0-.742-.216h-.118a.609.609 0 0 0-.122.008 1.8 1.8 0 0 0-.3.052c-.017.009-.035.009-.052.018a1.609 1.609 0 0 0-.375.164l-5.6 3.277a1.449 1.449 0 0 0-.419.372c-.043.06-.087.121-.122.181-.017.035-.035.061-.052.1l-.026.078Z"/><path fill="#083042" d="M18.135 28.111h-.061a1.733 1.733 0 0 1-.846-.216l-5.949-3.329a1.166 1.166 0 0 1-.236-.173 1.04 1.04 0 0 1-.175-.225 1.26 1.26 0 0 1-.148-.406.788.788 0 0 1-.009-.147v-6.77a1.715 1.715 0 0 1 .009-.216 1.8 1.8 0 0 1 .131-.527l-1.605-.98-1.884-1.046a2.791 2.791 0 0 0-.262 1.21v10.1a1.676 1.676 0 0 0 .846 1.427l8.872 4.971a2.521 2.521 0 0 0 1.265.32h.044c0-1.288-.009-2.2-.009-2.2l.017-1.79Z"/><path fill="#041619" d="M18.135 28.111h-.061a1.733 1.733 0 0 1-.846-.216l-5.949-3.329a1.166 1.166 0 0 1-.236-.173 1.04 1.04 0 0 1-.175-.225 1.26 1.26 0 0 1-.148-.406.788.788 0 0 1-.009-.147v-6.77a1.715 1.715 0 0 1 .009-.216 1.8 1.8 0 0 1 .131-.527l-1.605-.98-1.884-1.046a2.791 2.791 0 0 0-.262 1.21v10.1a1.676 1.676 0 0 0 .846 1.427l8.872 4.971a2.521 2.521 0 0 0 1.265.32h.044c0-1.288-.009-2.2-.009-2.2l.017-1.79Z"/><path fill="#3ddb85" d="M27.574 12.93 19.13 8.2a2.543 2.543 0 0 0-2.53.026l-8.356 4.885a2.221 2.221 0 0 0-.89.968l1.894 1.046 1.6.976.026-.078a.949.949 0 0 1 .052-.1c.035-.06.079-.121.122-.181a1.569 1.569 0 0 1 .419-.372l5.6-3.277a2.046 2.046 0 0 1 .375-.164c.018-.009.035-.009.052-.018a1.614 1.614 0 0 1 .3-.052c.043 0 .078-.009.122-.009h.113a1.954 1.954 0 0 1 .436.078 1.386 1.386 0 0 1 .305.139l5.661 3.173a1.891 1.891 0 0 1 .507.406c.043.052.087.112.13.173l.053.078 1.448-.959 1.963-1.167a3 3 0 0 0-.959-.848Z"/><path fill="#37bf6e" d="M27.574 12.93 19.13 8.2a2.543 2.543 0 0 0-2.53.026l-8.356 4.885a2.221 2.221 0 0 0-.89.968l1.894 1.046 1.6.976.026-.078a.949.949 0 0 1 .052-.1c.035-.06.079-.121.122-.181a1.569 1.569 0 0 1 .419-.372l5.6-3.277a2.046 2.046 0 0 1 .375-.164c.018-.009.035-.009.052-.018a1.614 1.614 0 0 1 .3-.052c.043 0 .078-.009.122-.009h.113a1.954 1.954 0 0 1 .436.078 1.386 1.386 0 0 1 .305.139l5.661 3.173a1.891 1.891 0 0 1 .507.406c.043.052.087.112.13.173l.053.078 1.448-.959 1.963-1.167a3 3 0 0 0-.959-.848Z"/><path fill="#4285f4" d="M25.114 15.922c.026.043.044.078.07.121l.053.1a1.512 1.512 0 0 1 .113.562v6.441a1.7 1.7 0 0 1-.079.519c-.009.017-.009.035-.017.052a1.071 1.071 0 0 1-.061.147c-.018.043-.044.086-.061.129a2.11 2.11 0 0 1-.122.182 1.89 1.89 0 0 1-.227.242 1.366 1.366 0 0 1-.175.139c-.035.017-.061.043-.1.06l-5.6 3.276a1.84 1.84 0 0 1-.785.234v1.789s0 .917.009 2.2a2.458 2.458 0 0 0 1.213-.346l8.356-4.885a2.5 2.5 0 0 0 1.241-2.17V15.1a2.346 2.346 0 0 0-.427-1.288l-1.963 1.167Z"/><path fill="#3870b2" d="M25.114 15.922c.026.043.044.078.07.121l.053.1a1.512 1.512 0 0 1 .113.562v6.441a1.7 1.7 0 0 1-.079.519c-.009.017-.009.035-.017.052a1.071 1.071 0 0 1-.061.147c-.018.043-.044.086-.061.129a2.11 2.11 0 0 1-.122.182 1.89 1.89 0 0 1-.227.242 1.366 1.366 0 0 1-.175.139c-.035.017-.061.043-.1.06l-5.6 3.276a1.84 1.84 0 0 1-.785.234v1.789s0 .917.009 2.2a2.458 2.458 0 0 0 1.213-.346l8.356-4.885a2.5 2.5 0 0 0 1.241-2.17V15.1a2.346 2.346 0 0 0-.427-1.288l-1.963 1.167Z"/><path fill="#d6f0ff" d="M17.455 11.945a1.6 1.6 0 0 0-.375.164l-5.6 3.277 5.6-3.276a1.418 1.418 0 0 1 .375-.164Z"/><path d="M17.455 11.945a1.6 1.6 0 0 0-.375.164l-5.6 3.277 5.6-3.276a1.418 1.418 0 0 1 .375-.164Z" opacity=".1"/><path fill="#d6f0ff" d="M24.931 15.671a1.765 1.765 0 0 0-.506-.406l-5.662-3.173 5.661 3.173a1.764 1.764 0 0 1 .506.406"/><path d="M24.931 15.671a1.765 1.765 0 0 0-.506-.406l-5.662-3.173 5.661 3.173a1.764 1.764 0 0 1 .506.406" opacity=".1"/><path fill="#d6f0ff" d="M25.237 16.138a2.206 2.206 0 0 1 .069.216c-.017-.069-.044-.138-.07-.216Z"/><path d="M25.237 16.138a2.206 2.206 0 0 1 .069.216c-.017-.069-.044-.138-.07-.216Z" opacity=".1"/><path fill="#d6f0ff" d="M25.27 23.668a1.67 1.67 0 0 0 .078-.519 1.67 1.67 0 0 1-.079.519Z"/><path d="M25.27 23.668a1.67 1.67 0 0 0 .078-.519 1.67 1.67 0 0 1-.079.519Z" opacity=".1"/></svg>