<svg xmlns="http://www.w3.org/2000/svg" viewBox="0 0 122.879 121.743"><g fill="#21609b" fill-rule="evenodd"><path d="m120.029 90.36-.55 1.43c-9.37 18.25-25.98 29.45-49.67 29.94a69.425 69.425 0 0 1-28.52-5.7 73.625 73.625 0 0 1-34.22-32.32c-9.8-18.98-11.57-45.39 8.81-65.11.31 0-2.47 4.28-2.16 4.28l-.56 1.83c-14.69 45.98 30.56 85.38 74.54 80.88 10.58-1.1 24.06-6.89 32.33-15.23Zm0 0Z"/><path d="M93.409 71.35c11.07.08 22.62-5.1 29.47-12.36-5.99 15.2-23.33 24.97-46.58 21.86-19.47-2.61-38.01-22.2-39.92-41.83-1.4-14.29 3.58-22.81 11.79-33.16-2.85 5.41-3.92 9.58-4.18 12.24-3.13 30.92 24.68 53.09 49.42 53.25Zm0 0Z"/><path d="M121.769 32.97c-1.72 3.95-11.62 11.4-16 12.33-17.32 3.69-28.41-4.52-34.22-13.87a43.94 43.94 0 0 1-2.75-6.18C66.549 17.59 67.579 6 74.299 0c-2.02 5.7-2.32 12.33-1.25 16.64a37.084 37.084 0 0 0 4.58 10.01c3.58 5.21 5.85 6.47 10.46 9.24a28.467 28.467 0 0 0 5.26 2.52c4.36 1.28 13.57 4.66 28.42-5.44Zm0 0Z"/></g></svg>