<svg xmlns="http://www.w3.org/2000/svg" viewBox="0 0 11.594 16.002"><path fill="#ff3c00" d="M5.801 0c.516.029.93.034 1.339.074a9.345 9.345 0 0 1 2.779.671 3.617 3.617 0 0 1 1.378.934.968.968 0 0 1 .045 1.347 2.7 2.7 0 0 1-.491.464 5.709 5.709 0 0 1-1.905.866 11.377 11.377 0 0 1-3.676.384 17.526 17.526 0 0 1-1.815-.218 6.9 6.9 0 0 1-1.956-.613 3.33 3.33 0 0 1-1.11-.78.951.951 0 0 1-.2-1.2 2.2 2.2 0 0 1 .5-.573 4.339 4.339 0 0 1 1.552-.8c.5-.149 1.008-.269 1.518-.384a4.455 4.455 0 0 1 .622-.08C4.893.051 5.398.023 5.801 0Zm5.721 8.4c.006.08.017.138.017.195v1.332a1.693 1.693 0 0 1-.6 1.3 5.072 5.072 0 0 1-1.855 1c-.756.252-1.524.47-2.291.682-.723.195-1.463.355-2.185.545a15.385 15.385 0 0 0-2.986 1.031q-.276.139-.538.3a.2.2 0 0 1-.258-.006 7.008 7.008 0 0 1-.527-.47 1.2 1.2 0 0 1-.123-1.41 2.618 2.618 0 0 1 1.171-1.089 9.61 9.61 0 0 1 2.275-.86c.807-.212 1.619-.4 2.431-.608.639-.16 1.278-.321 1.917-.475a11.9 11.9 0 0 0 2.151-.71c.409-.184.79-.43 1.182-.648.051-.029.1-.063.146-.092a.772.772 0 0 1 .078-.023Zm.017-2.82c0 .2-.006.4 0 .6a1.671 1.671 0 0 1-.774 1.5 6.311 6.311 0 0 1-1.86.877c-.56.178-1.126.338-1.692.487-.644.166-1.288.3-1.933.458-.421.1-.846.207-1.261.315-.443.115-.885.235-1.323.373a8 8 0 0 0-2.5 1.192.754.754 0 0 1-.157.069.935.935 0 0 1-.033-.178 3.516 3.516 0 0 1 .545-2.051 4.226 4.226 0 0 1 1.328-1.249 8.726 8.726 0 0 1 2.207-.963c.751-.217 1.513-.418 2.269-.613.784-.206 1.58-.384 2.365-.6a8.565 8.565 0 0 0 2.219-.849c.146-.086.28-.189.42-.281a.559.559 0 0 1 .135-.057.63.63 0 0 1 .045.143c.005.27 0 .545 0 .826Zm-.023 6.511a1.318 1.318 0 0 1 .023.172v1.318a1.35 1.35 0 0 1-.555 1 4.418 4.418 0 0 1-1.322.756 8.657 8.657 0 0 1-1.765.482A12.316 12.316 0 0 1 5.516 16c-.207-.006-.409-.012-.616-.029a10.993 10.993 0 0 1-2.249-.371c-.179-.051-.359-.115-.538-.178v-.057c.118-.057.236-.12.359-.172a15.636 15.636 0 0 1 2.252-.722l2.4-.6a20.723 20.723 0 0 0 2.734-.854 5.915 5.915 0 0 0 1.474-.814 1.437 1.437 0 0 1 .179-.109Zm0 0"/></svg>