<svg xmlns="http://www.w3.org/2000/svg" viewBox="0 0 15.996 15.996"><defs><clipPath id="a"><path d="M0 0h15.996v15.996H0z"/></clipPath></defs><g clip-path="url(#a)"><rect width="15.996" height="15.996" fill="#0191ff" rx="2.982"/><path fill="#def2fe" d="M3.048 2.473a.618.618 0 0 0-.636.4c-.209.51.312 1.007.5 1.264a3.834 3.834 0 0 1 .392.588c.062.134.072.269.125.41a9.39 9.39 0 0 0 .409 1.05 3.713 3.713 0 0 0 .285.481c.065.089.178.129.2.267a2.171 2.171 0 0 0-.178.587 3.411 3.411 0 0 0 .217 2.62c.125.2.417.627.819.457.352-.143.273-.587.375-.979.023-.089.008-.154.053-.214v.018l.321.641a4.35 4.35 0 0 0 1.017 1.051c.185.139.331.382.571.457v-.017H7.5a.862.862 0 0 0-.178-.161 4.062 4.062 0 0 1-.41-.457 10.833 10.833 0 0 1-.873-1.425c-.125-.24-.229-.5-.343-.747-.04-.094-.04-.237-.125-.285a3.542 3.542 0 0 0-.375.535 4.57 4.57 0 0 0-.214 1.175c-.031.011-.017 0-.035.018-.248-.059-.335-.315-.427-.535a3.366 3.366 0 0 1-.058-2.079c.053-.165.293-.686.2-.838-.046-.152-.2-.24-.285-.355a2.79 2.79 0 0 1-.285-.5c-.191-.432-.28-.914-.481-1.354a3.935 3.935 0 0 0-.392-.606 3.548 3.548 0 0 1-.428-.606c-.041-.088-.095-.229-.035-.32a.142.142 0 0 1 .106-.105c.1-.08.391.026.5.071a4.351 4.351 0 0 1 .766.392c.114.077.229.229.375.267h.159c.25.058.531.018.766.089a4.639 4.639 0 0 1 1.122.535 6.944 6.944 0 0 1 2.442 2.671c.093.177.133.343.214.535.165.379.371.769.535 1.143a5.328 5.328 0 0 0 .552 1.051c.121.162.59.249.8.343a4.812 4.812 0 0 1 .535.214c.27.162.531.356.784.535.127.089.515.285.535.446a3.59 3.59 0 0 0-1.514.214c-.114.049-.3.05-.321.2.064.067.074.167.125.249a1.96 1.96 0 0 0 .409.481c.161.121.327.251.5.356.306.186.649.294.944.481.174.114.343.249.516.374.083.062.141.157.249.2v-.029c-.057-.073-.072-.174-.125-.25l-.229-.229a3.8 3.8 0 0 0-.819-.784c-.243-.175-.79-.41-.891-.695l-.018-.018a3.97 3.97 0 0 0 .535-.125c.267-.072.506-.054.783-.125l.375-.106v-.071a5.451 5.451 0 0 0-.392-.457 11.32 11.32 0 0 0-1.282-.962c-.249-.157-.555-.258-.819-.392-.088-.045-.245-.069-.3-.143a3.759 3.759 0 0 1-.321-.6c-.229-.431-.443-.9-.641-1.354a7.333 7.333 0 0 0-.392-.89 7.867 7.867 0 0 0-3.028-2.92 3.623 3.623 0 0 0-1-.32l-.59-.045a3.154 3.154 0 0 1-.356-.267 2.9 2.9 0 0 0-1.291-.49m1.927 1.919a1.257 1.257 0 0 0-.321.035v.016h.018a2.449 2.449 0 0 0 .249.321l.178.379.018-.017a.435.435 0 0 0 .16-.4c-.045-.047-.051-.1-.089-.16-.051-.074-.15-.114-.214-.178Z"/><path fill="#def2fe" d="M2.995 2.269H3.072a3.116 3.116 0 0 1 1.38.524l.018.014a2.965 2.965 0 0 0 .292.223l.556.043a3.82 3.82 0 0 1 1.053.338h.007a8.068 8.068 0 0 1 3.1 2.995l.005.009a7.561 7.561 0 0 1 .4.908c.239.549.44.973.632 1.335l.008.016a3.569 3.569 0 0 0 .292.554.775.775 0 0 0 .1.04 1.007 1.007 0 0 1 .135.053c.1.049.2.094.309.141a3.874 3.874 0 0 1 .526.26 11.565 11.565 0 0 1 1.3.979 1.651 1.651 0 0 1 .26.292 1.943 1.943 0 0 0 .146.179l.056.139v.071l-.145.192-.38.108a2.773 2.773 0 0 1-.419.067 2.277 2.277 0 0 0-.358.056q-.111.034-.225.062a3.678 3.678 0 0 0 .392.254c.1.059.194.114.269.167a3.991 3.991 0 0 1 .853.814l.22.22.023.028a.762.762 0 0 1 .079.158.4.4 0 0 0 .039.082l.042.123v.029l-.267.188a.638.638 0 0 1-.24-.167.629.629 0 0 0-.061-.056c-.062-.044-.125-.092-.189-.139-.11-.082-.213-.159-.319-.228a3.79 3.79 0 0 0-.456-.233 4.55 4.55 0 0 1-.481-.244 5.342 5.342 0 0 1-.44-.31l-.085-.065a2.156 2.156 0 0 1-.451-.53.808.808 0 0 1-.064-.14.331.331 0 0 0-.034-.075l-.053-.164c.032-.239.257-.3.366-.331a.684.684 0 0 0 .075-.023h.01a3.777 3.777 0 0 1 1.061-.227c-.049-.03-.092-.056-.125-.079l-.154-.11c-.2-.141-.4-.287-.609-.412a4.629 4.629 0 0 0-.5-.2l-.018-.007c-.057-.025-.147-.053-.242-.083a1.286 1.286 0 0 1-.637-.323l-.005-.008a5.537 5.537 0 0 1-.571-1.087c-.078-.178-.168-.365-.256-.545s-.192-.4-.277-.594c-.035-.083-.062-.158-.088-.23a2.237 2.237 0 0 0-.12-.291 6.752 6.752 0 0 0-2.372-2.6 4.445 4.445 0 0 0-1.073-.511 1.524 1.524 0 0 0-.349-.041 2.31 2.31 0 0 1-.377-.038H4.5l-.051-.007a.843.843 0 0 1-.337-.213 1.012 1.012 0 0 0-.1-.082 4.153 4.153 0 0 0-.727-.372 1 1 0 0 0-.314-.086h-.009a.073.073 0 0 0 .026-.014l-.047.022-.016.037a.041.041 0 0 0 .006-.014.288.288 0 0 0 .04.134 3.354 3.354 0 0 0 .4.565l.007.008a4.146 4.146 0 0 1 .412.636v.01a6.01 6.01 0 0 1 .26.726 5.831 5.831 0 0 0 .222.63 2.6 2.6 0 0 0 .264.462.87.87 0 0 0 .085.089.787.787 0 0 1 .221.3c.1.192 0 .486-.141.848-.021.055-.039.1-.048.13a3.143 3.143 0 0 0 .056 1.946l.02.048c.03.073.058.136.085.189a4.772 4.772 0 0 1 .194-.884l.017-.038a3.752 3.752 0 0 1 .4-.565l.251-.045a.443.443 0 0 1 .189.309.632.632 0 0 0 .019.069c.044.094.087.192.129.287.066.151.135.307.209.449a10.67 10.67 0 0 0 .856 1.4 3.875 3.875 0 0 0 .388.432c.011.01.028.023.048.038a.591.591 0 0 1 .161.161l-.035.022.085.085v.018l-.2.147v.038h-.018l-.017-.009-.025.018a1.148 1.148 0 0 1-.468-.335 1.563 1.563 0 0 0-.164-.154 4.534 4.534 0 0 1-1.062-1.1l-.016-.02-.06-.119a.809.809 0 0 1-.435.749.666.666 0 0 1-.259.054c-.435 0-.713-.444-.8-.59l-.008-.013a3.634 3.634 0 0 1-.247-2.756 2.37 2.37 0 0 1 .157-.547l-.041-.037a.7.7 0 0 1-.1-.109 3.935 3.935 0 0 1-.3-.51 9.628 9.628 0 0 1-.417-1.069 1.846 1.846 0 0 1-.058-.2 1.078 1.078 0 0 0-.057-.185 3.644 3.644 0 0 0-.368-.552l-.013-.016c-.026-.036-.062-.08-.1-.13-.239-.294-.64-.786-.421-1.324a.825.825 0 0 1 .767-.531Zm.032.4a.422.422 0 0 0-.187.028.443.443 0 0 1 .132-.019 1.366 1.366 0 0 1 .464.115 4.548 4.548 0 0 1 .8.408 1.3 1.3 0 0 1 .146.118.722.722 0 0 0 .154.117h.126l.045.005a1.861 1.861 0 0 0 .328.034 1.829 1.829 0 0 1 .45.059 4.845 4.845 0 0 1 1.174.559 7.149 7.149 0 0 1 2.51 2.747 2.583 2.583 0 0 1 .142.341c.024.067.049.137.079.207.082.188.177.386.27.577s.183.377.264.563v.007a5.136 5.136 0 0 0 .527 1.006 1.566 1.566 0 0 0 .434.178c.1.032.2.062.276.1l.044.015c-.109-.047-.222-.1-.329-.15a.767.767 0 0 0-.082-.03.58.58 0 0 1-.288-.167l-.01-.014a3.97 3.97 0 0 1-.335-.628c-.2-.37-.4-.8-.643-1.36v-.012a7.16 7.16 0 0 0-.379-.861 7.668 7.668 0 0 0-2.945-2.84 3.421 3.421 0 0 0-.93-.3l-.581-.044-.093-.031a3.366 3.366 0 0 1-.37-.277 2.715 2.715 0 0 0-1.193-.45Zm2.718 6.685c-.034-.076-.068-.151-.1-.226-.04-.091-.078-.177-.117-.262q-.076.11-.144.226a4.372 4.372 0 0 0-.2 1.1l-.112.162-.168.047a.619.619 0 0 1-.066-.02.264.264 0 0 0 .269.032c.132-.054.16-.181.2-.479a2.792 2.792 0 0 1 .055-.366.452.452 0 0 0 .01-.062.418.418 0 0 1 .077-.222l.262.087Zm5.905 2.453.085-.264a3.782 3.782 0 0 0 .508-.118h.007l.063-.016a3.379 3.379 0 0 0-.812.19 1 1 0 0 1-.121.039l-.024.007.014.036a.486.486 0 0 0 .032.074 1.758 1.758 0 0 0 .364.429l.072.054c.132.1.269.2.406.287a4.184 4.184 0 0 0 .44.222l.114.052q-.114-.1-.236-.181c-.061-.044-.147-.094-.239-.148-.294-.172-.627-.368-.725-.643ZM4.957 4.203h.028v.114l.14-.06a.525.525 0 0 0 .064.049.631.631 0 0 1 .173.157.62.62 0 0 1 .056.105.3.3 0 0 0 .015.032l.052.11a.639.639 0 0 1-.227.575l-.013.012-.317-.06-.166-.346a2.657 2.657 0 0 1-.249-.325l.035-.023-.086-.089v-.015l.15-.195a1.459 1.459 0 0 1 .345-.041Z"/></g></svg>