<svg xmlns="http://www.w3.org/2000/svg" viewBox="0 0 15.997 15.997"><defs><clipPath id="a"><path d="M0 0h15.997v15.997H0z"/></clipPath></defs><g clip-path="url(#a)"><path d="M11.847 11.629c.1-.847.071-.971.7-.833l.16.014a3.647 3.647 0 0 0 1.492-.251c.8-.372 1.277-.993.486-.83-1.8.372-1.928-.239-1.928-.239 1.9-2.826 2.7-6.415 2.014-7.292C12.896-.202 9.651.935 9.596.964h-.017a6.43 6.43 0 0 0-1.2-.125 2.973 2.973 0 0 0-1.906.571S.684-.975.953 4.41c.058 1.146 1.642 8.667 3.532 6.4.694-.837 1.362-1.537 1.362-1.537a1.752 1.752 0 0 0 1.145.292l.032-.028a1.255 1.255 0 0 0 .013.323c-.486.544-.343.64-1.317.84s-.407.565-.028.659a2 2 0 0 0 2.233-.725l-.028.115c.191.153.178 1.1.205 1.775a6.384 6.384 0 0 0 .21 1.678c.138.372.3 1.331 1.579 1.054 1.065-.229 1.887-.559 1.961-3.627"/><path d="M9.459 15.977a1.775 1.775 0 0 1-1.743-1.441 1.8995 1.8995 0 0 0-.034-.1 6.642 6.642 0 0 1-.251-1.883c0-.12-.008-.249-.012-.379 0-.081 0-.178-.008-.272a2.892 2.892 0 0 1-1.883.114 1.583 1.583 0 0 1-.825-.471 1.37 1.37 0 0 1-1.355.293C1.305 11.152.312 4.97.287 4.445A3.87 3.87 0 0 1 1.65.837C3.192-.252 5.511.369 6.387.666A3.745 3.745 0 0 1 8.393.171a7.349 7.349 0 0 1 1.142.1c.944-.308 3.941-.828 5.769 1.509.959 1.227-.015 4.778-1.553 7.394a4.68 4.68 0 0 0 .8-.106c.877-.178 1.119.335 1.173.5.272.823-.882 1.432-1.243 1.6a4.315 4.315 0 0 1-1.8.312l-.137-.012-.01.085-.015.126c-.082 3.127-.939 3.905-2.491 4.235a2.733 2.733 0 0 1-.569.063Zm-1.145-5.75c.383.306.415.865.444 1.907 0 .125.007.248.012.363a6.688 6.688 0 0 0 .169 1.472c.016.044.033.095.051.15.139.426.2.6.759.482.793-.17 1.366-.293 1.431-2.987l.67.016-.666-.08.018-.154c.059-.5.1-.895.461-1.154a1.01 1.01 0 0 1 .7-.162.938.938 0 0 1-.257-.461l-.056-.275.154-.228c1.9-2.815 2.412-6.018 2.041-6.5-1.49-1.9-4.083-1.127-4.37-1.033l-.05.027-.233.046-.146-.023a5.8 5.8 0 0 0-1.072-.117 2.308 2.308 0 0 0-1.489.434l-.3.232-.355-.146c-.694-.284-2.731-.855-3.8-.1a2.675 2.675 0 0 0-.8 2.444c.069 1.512 1.358 6.019 2.144 6.181a.777.777 0 0 0 .2-.184c.7-.837 1.36-1.536 1.386-1.561l.388-.408.473.309a1.1 1.1 0 0 0 .521.185l1.114-.95L7.691 9.6a.587.587 0 0 0 .008.155l.049.313-.211.236-.005.006.52.24Z"/><path fill="#336791" d="M14.691 9.728c-1.8.372-1.928-.239-1.928-.239 1.9-2.827 2.7-6.415 2.014-7.292C12.902-.203 9.656.935 9.602.964h-.018a6.433 6.433 0 0 0-1.2-.125 2.973 2.973 0 0 0-1.906.571s-5.79-2.385-5.52 3c.058 1.146 1.642 8.667 3.532 6.4.688-.835 1.356-1.535 1.356-1.535a1.752 1.752 0 0 0 1.141.3l.032-.028a1.262 1.262 0 0 0 .013.323c-.487.544-.343.639-1.317.84s-.407.565-.028.659a2 2 0 0 0 2.233-.725l-.028.115a3.251 3.251 0 0 1 .3 1.757 4.837 4.837 0 0 0 .113 1.7c.15.409.3 1.331 1.58 1.054a1.887 1.887 0 0 0 1.7-1.813c.055-.7.178-.6.186-1.229l.1-.3c.115-.954.018-1.262.677-1.119l.16.014a3.647 3.647 0 0 0 1.492-.251c.8-.372 1.277-.993.486-.83Z"/><path fill="#fff" d="M9.536 15.558a1.628 1.628 0 0 1-1.557-1.2 17.414 17.414 0 0 1-.2-4.088.224.224 0 1 1 .444.013 17.767 17.767 0 0 0 .17 3.905 1.205 1.205 0 0 0 1.571.87 1.532 1.532 0 0 0 1.453-1.471c.122-.706.362-2.712.392-3.107a.224.224 0 0 1 .444.034c-.031.413-.271 2.419-.4 3.152a1.975 1.975 0 0 1-1.8 1.832 2.5 2.5 0 0 1-.517.061ZM3.755 11.433a.888.888 0 0 1-.28-.046C1.813 10.832.755 5.116.723 4.401a3.471 3.471 0 0 1 1.18-3.225c1.693-1.2 4.536-.059 4.656-.01a.224.224 0 0 1-.169.414c-.028-.011-2.737-1.1-4.229-.039a3.07 3.07 0 0 0-.987 2.84c.051 1.009 1.16 6.155 2.451 6.585.082.028.328.109.686-.32.688-.827 1.32-1.488 1.326-1.495a.224.224 0 1 1 .323.31c-.006.006-.628.656-1.3 1.471a1.169 1.169 0 0 1-.905.501ZM12.752 9.691a.224.224 0 0 1-.186-.349c1.922-2.852 2.6-6.294 2.024-7.03-1.717-2.2-4.628-1.264-4.892-1.173a.222.222 0 0 1-.034.013.232.232 0 0 1-.279-.119.225.225 0 0 1 .089-.283l.058-.021.031-.007c.553-.178 3.571-.995 5.38 1.317.822 1.05-.19 4.863-2.005 7.555a.224.224 0 0 1-.186.1Z"/><path fill="#fff" d="M12.848 11.011a1.692 1.692 0 0 1-.809-.154.43.43 0 0 1-.229-.348c-.049-.857.41-1.027.665-1.1a3.304 3.304 0 0 0-.119-.154 3.1 3.1 0 0 1-.491-.792c-.023-.056-.1-.188-.182-.342-.465-.834-1.433-2.574-.808-3.462a1.719 1.719 0 0 1 1.686-.492 4.638 4.638 0 0 0-4.2-3.123 2.686 2.686 0 0 0-2.041.763 5.17 5.17 0 0 0-1.113 3.3.224.224 0 0 1-.444.012A5.543 5.543 0 0 1 6.006 1.49a3.116 3.116 0 0 1 2.363-.9 5.073 5.073 0 0 1 4.7 3.755.249.249 0 0 1-.187.3h-.081c-.563-.089-1.291-.117-1.559.266-.465.665.444 2.3.832 2.992.1.178.172.308.205.389a2.673 2.673 0 0 0 .427.683 1.184 1.184 0 0 1 .259.43c.02.032.266.369 1.668.081.367-.076.589-.009.658.2.133.4-.6.865-1.006 1.054a3.768 3.768 0 0 1-1.437.271Zm-.122-1.212c-.037.014-.07.024-.089.03-.209.059-.407.114-.375.655a2.945 2.945 0 0 0 1.84-.152 2.471 2.471 0 0 0 .636-.411h-.01a2.735 2.735 0 0 1-1.934-.077.787.787 0 0 1-.069-.045ZM7.386 9.416a.783.783 0 0 1 .309.074.906.906 0 0 1 .492.589.759.759 0 0 1-.094.663 2.08 2.08 0 0 1-1.756.905 2.957 2.957 0 0 1-.71-.089c-.071-.018-.693-.185-.685-.583.008-.364.527-.471.723-.512.688-.142.732-.2.946-.47.066-.083.143-.178.249-.3a.71.71 0 0 1 .526-.277ZM6.337 11.2a1.629 1.629 0 0 0 1.392-.718.334.334 0 0 0 .028-.28.473.473 0 0 0-.233-.3.393.393 0 0 0-.138-.04.3.3 0 0 0-.2.125c-.1.111-.171.2-.232.28-.273.346-.4.464-1.207.63a1.457 1.457 0 0 0-.318.095.992.992 0 0 0 .3.129 2.5 2.5 0 0 0 .6.08Z"/><path fill="#fff" d="M6.992 10.053a.224.224 0 0 1-.221-.19q-.007-.044-.01-.089a2.041 2.041 0 0 1-1.42-.643 2.327 2.327 0 0 1-.613-1.948 9.112 9.112 0 0 0 .046-1.84c-.006-.1-.011-.183-.011-.23 0-.359 1.057-.82 1.669-.888a1.166 1.166 0 0 1 1.408.952 4.521 4.521 0 0 1-.238 3.265c-.049.109-.1.213-.134.316l-.034.089a2.214 2.214 0 0 0-.225.944.224.224 0 0 1-.187.255ZM5.217 5.177c0 .037 0 .084.008.138a9.52 9.52 0 0 1-.05 1.929 1.883 1.883 0 0 0 .493 1.576 1.591 1.591 0 0 0 1.141.506 5.833 5.833 0 0 1 .21-.632l.033-.089c.042-.113.089-.225.146-.343a4.083 4.083 0 0 0 .209-2.987.678.678 0 0 0-.524-.585 2.456 2.456 0 0 0-1.667.488Z"/><path fill="#fff" d="M6.443 5.087c-.011.073.134.266.322.295a.347.347 0 0 0 .355-.2c.011-.073-.134-.154-.322-.177s-.349.012-.355.089Z"/><path fill="#fff" d="M6.688 4.915a.917.917 0 0 1 .126.009.769.769 0 0 1 .262.081c.121.067.13.144.124.183a.3.3 0 0 1-.127.177.444.444 0 0 1-.266.089.408.408 0 0 1-.053 0 .5.5 0 0 1-.319-.2.273.273 0 0 1-.067-.177l.009-.064h.019a.209.209 0 0 1 .093-.063.57.57 0 0 1 .199-.035Zm.362.257a.19.19 0 0 0-.068-.047.669.669 0 0 0-.188-.052.772.772 0 0 0-.106-.008.477.477 0 0 0-.124.014.141.141 0 0 0-.043.019.283.283 0 0 0 .073.106.342.342 0 0 0 .185.1h.033a.3.3 0 0 0 .169-.059.228.228 0 0 0 .071-.073ZM12.164 4.935c.01.073-.134.266-.322.295a.347.347 0 0 1-.355-.2c-.01-.073.134-.154.322-.178s.349.012.355.089Z"/><path fill="#fff" d="M11.92 4.803a.534.534 0 0 1 .177.028c.074.028.094.068.1.1a.283.283 0 0 1-.1.2.455.455 0 0 1-.257.141.35.35 0 0 1-.049 0 .407.407 0 0 1-.24-.083.267.267 0 0 1-.113-.151c-.007-.051.03-.1.106-.145a.73.73 0 0 1 .249-.076.884.884 0 0 1 .126-.006Zm.206.136c0-.025-.071-.061-.206-.061a.808.808 0 0 0-.111.008c-.2.028-.295.106-.29.138a.208.208 0 0 0 .083.1.337.337 0 0 0 .2.068h.038a.381.381 0 0 0 .214-.118.236.236 0 0 0 .076-.134ZM12.434 9.147a.224.224 0 0 1-.186-.348 2.677 2.677 0 0 0 .279-1.965 5.61 5.61 0 0 1-.059-.839 5.833 5.833 0 0 1 .08-.742 3.759 3.759 0 0 0 .064-.814.224.224 0 1 1 .444-.024 4.177 4.177 0 0 1-.068.906 5.466 5.466 0 0 0-.075.688 5.207 5.207 0 0 0 .056.771 3.074 3.074 0 0 1-.355 2.267.224.224 0 0 1-.18.1Z"/></g></svg>