<svg xmlns="http://www.w3.org/2000/svg" viewBox="0 0 63.061 62.981"><path fill="#5fb832" d="M57.243 45.348c-7.762 10.341-24.343 6.851-34.971 7.353 0 0-1.882.1-3.777.417 0 0 .717-.306 1.631-.621 7.466-2.582 10.994-3.1 15.53-5.431C44.179 42.7 52.662 33.189 54.388 23.31c-3.244 9.5-13.111 17.68-22.1 21-6.149 2.269-17.27 4.478-17.272 4.479s-.443-.233-.449-.238c-7.563-3.68-7.781-20.06 5.955-25.34 6.022-2.317 11.783-1.044 18.293-2.594 6.944-1.651 14.986-6.856 18.255-13.66 3.665 10.869 8.067 27.874.169 38.391Zm.135-41.759a29 29 0 0 1-3.352 5.943A31.386 31.386 0 0 0 31.49 0 31.525 31.525 0 0 0 0 31.489a31.4 31.4 0 0 0 10.079 23.063l.69.611a2.694 2.694 0 0 1-.4-3.783 2.694 2.694 0 0 1 3.784-.4 2.692 2.692 0 0 1 .4 3.786 2.689 2.689 0 0 1-3.781.4l.469.416a31.337 31.337 0 0 0 20.249 7.399 31.522 31.522 0 0 0 31.394-29.22c.864-7.982-1.494-18.118-5.506-30.172"/></svg>