<svg xmlns="http://www.w3.org/2000/svg" viewBox="0 0 19.161 23.052"><path fill="#ff3e00" d="M17.935 3.05a7.037 7.037 0 0 0-9.41-2.036L3.149 4.456A6.1 6.1 0 0 0 .376 8.577a6.394 6.394 0 0 0 .649 4.161 5.9 5.9 0 0 0-.918 2.3 6.572 6.572 0 0 0 1.113 4.961 7.041 7.041 0 0 0 9.405 2.036l5.376-3.421a6.1 6.1 0 0 0 2.773-4.121 6.394 6.394 0 0 0-.645-4.16 5.9 5.9 0 0 0 .918-2.3 6.435 6.435 0 0 0-1.112-4.983"/><path fill="#fff" d="M7.994 20.292a4.254 4.254 0 0 1-4.568-1.7 3.954 3.954 0 0 1-.683-2.987c.039-.176.078-.332.117-.508l.1-.312.273.2a7.12 7.12 0 0 0 2.108 1.054l.2.059-.02.2a1.307 1.307 0 0 0 .215.8 1.292 1.292 0 0 0 1.386.527 1.688 1.688 0 0 0 .332-.137l5.348-3.416a1.106 1.106 0 0 0 .508-.742 1.212 1.212 0 0 0-.2-.9 1.281 1.281 0 0 0-1.386-.508 1.688 1.688 0 0 0-.332.137l-2.05 1.308a3.631 3.631 0 0 1-1.093.469 4.254 4.254 0 0 1-4.568-1.7 3.944 3.944 0 0 1-.664-2.987A3.7 3.7 0 0 1 4.696 6.67l5.368-3.416a4.133 4.133 0 0 1 5.661 1.21 3.954 3.954 0 0 1 .683 2.987 4.891 4.891 0 0 1-.137.508l-.1.312-.273-.2a7.12 7.12 0 0 0-2.108-1.054l-.2-.059.02-.2a1.307 1.307 0 0 0-.215-.8 1.281 1.281 0 0 0-1.386-.508 1.689 1.689 0 0 0-.332.137L6.329 9.003a1.106 1.106 0 0 0-.508.742 1.212 1.212 0 0 0 .2.9 1.281 1.281 0 0 0 1.386.508 1.689 1.689 0 0 0 .332-.137l2.05-1.308a4.133 4.133 0 0 1 5.661 1.21 3.954 3.954 0 0 1 .683 2.987 3.7 3.7 0 0 1-1.679 2.479l-5.367 3.42a4.248 4.248 0 0 1-1.093.488"/></svg>