<svg xmlns="http://www.w3.org/2000/svg" viewBox="0 0 18.816 18.816"><path fill="#0d47a1" d="M14.765 18.816H4.051A4.051 4.051 0 0 1 0 14.765V4.051A4.051 4.051 0 0 1 4.051 0h10.713a4.051 4.051 0 0 1 4.052 4.051v10.713a4.051 4.051 0 0 1-4.051 4.052Z"/><path fill="#1565c0" d="M18.816 4.051A4.051 4.051 0 0 0 14.765 0H4.051A4.051 4.051 0 0 0 0 4.051V8.77c1.568 1.683 4.444 3.732 7.132 3.714 3.579-.024 8.889-1.421 11.684-4.431Z"/><path fill="#1e88e5" d="M18.816 4.051A4.051 4.051 0 0 0 14.765 0H4.051A4.051 4.051 0 0 0 0 4.051v4.573c1.568 1.829 3.773 2.539 7.157 2.564 5.461.04 9.739-2.524 11.659-4.92Z"/><path fill="#29b6f6" d="M18.816 4.051A4.051 4.051 0 0 0 14.765 0H4.051A4.051 4.051 0 0 0 0 4.051v4.275a13.133 13.133 0 0 0 6.624 1.744c5.481.031 10.42-2.737 12.192-5.957Z"/><path fill="#00e5ff" d="M14.765 0H4.051A4.051 4.051 0 0 0 0 4.051v3.126a11.7 11.7 0 0 0 6.751 1.8c3.76 0 9.783-2 11.637-6.731A4.048 4.048 0 0 0 14.765 0Z"/><path fill="#18ffff" d="M14.765 0H4.051A4.051 4.051 0 0 0 0 4.051V5.98a11.2 11.2 0 0 0 9.292 1.5c4.674-1.122 7.323-3.62 8.274-6.35A4.034 4.034 0 0 0 14.765 0Z"/><path fill="#448aff" d="M7.6 0H4.051A4.051 4.051 0 0 0 0 4.051v4.983l.033.047c2.221 3.136 7.709 5.161 11.3 1.862 2.091-2.613.882-6.893-.686-8.3C9.862 1.94 8.629.88 7.6 0Z"/><path fill="#40c4ff" d="M7.826 0H4.051A4.051 4.051 0 0 0 0 4.051V9.13c2.655 2.066 6.8 2.88 9.7.212 2.091-2.613.882-6.893-.686-8.3C8.683.747 8.269.384 7.826 0Z"/><path fill="#00e5ff" d="M4.051 0A4.051 4.051 0 0 0 0 4.051V8.2a6.969 6.969 0 0 0 7.612-1.01C9.3 5.08 8.837 1.893 7.775 0Z"/><path fill="#18ffff" d="M4.051 0A4.051 4.051 0 0 0 0 4.051v2.47a6.468 6.468 0 0 0 5.216-1.643A6 6 0 0 0 6.194 0Z"/><path fill="#212121" d="M3.454 4.636s3.571 5.4 6.574 7.223c-1.136.365-3.6 1.858-7.9-.78 1.1 1.5 3.035 4.513 7.783 4.229a9.979 9.979 0 0 0 3.612-.974 1.857 1.857 0 0 1 2.592 1.053 3.961 3.961 0 0 0-1.1-3.774s1.284-4.894-4.182-8.755c1.136 2.273 1.794 3.554 1.26 6.685a62.381 62.381 0 0 1-6.728-5.609 36.3 36.3 0 0 0 3.562 4.879c-1.293-.89-5.473-4.177-5.473-4.177Z"/></svg>