<svg xmlns="http://www.w3.org/2000/svg" viewBox="0 0 256 256.322"><defs><linearGradient id="a" x1="-.008" x2=".576" y1=".077" y2=".784" gradientUnits="objectBoundingBox"><stop offset="0" stop-color="#41d1ff"/><stop offset="1" stop-color="#bd34fe"/></linearGradient><linearGradient id="b" x1=".434" x2=".503" y1=".022" y2=".89" gradientUnits="objectBoundingBox"><stop offset="0" stop-color="#ffea83"/><stop offset=".083" stop-color="#ffdd35"/><stop offset="1" stop-color="#ffa800"/></linearGradient></defs><path fill="url(#a)" d="M255.153 37.938 134.9 252.976a6.536 6.536 0 0 1-11.382.048L.874 37.958A6.536 6.536 0 0 1 7.7 28.287l120.387 21.518a6.535 6.535 0 0 0 2.322 0l117.867-21.487a6.536 6.536 0 0 1 6.877 9.62Z"/><path fill="url(#b)" d="M185.432.063 96.439 17.5a3.268 3.268 0 0 0-2.634 3.014l-5.474 92.456a3.268 3.268 0 0 0 4 3.378l24.777-5.718a3.267 3.267 0 0 1 3.936 3.838l-7.361 36.047a3.268 3.268 0 0 0 4.151 3.781l15.3-4.65a3.268 3.268 0 0 1 4.15 3.788l-11.7 56.621a3.267 3.267 0 0 0 5.943 2.437l1.313-2.028 72.519-144.718a3.268 3.268 0 0 0-3.541-4.672L176.314 66a3.268 3.268 0 0 1-3.759-4.115L189.2 4.176a3.268 3.268 0 0 0-3.768-4.113Z"/></svg>