<svg viewBox="0 0 104.08653917261984 25" width="104.08653917261984" height="25" xmlns="http://www.w3.org/2000/svg">
<rect x="0.5" y="0.5" width="103.08653917261984" height="24" rx="12" fill="#ffffff" stroke="#eeeeee"/>
<svg xmlns="http://www.w3.org/2000/svg" viewBox="0 0 255.004 270.444" x="11" y="4.5" width="15.086539172619839" height="16"><path fill="#e23237" d="M0 44.825 125.808.003 255 44.028l-20.919 166.45-108.273 59.966-106.584-59.169Z"/><path fill="#b52e31" d="M255 44.028 125.808.003v270.441l108.277-59.866L255 44.028Z"/><path fill="#fff" d="M126.007 31.577 47.614 205.996l29.286-.493 15.739-39.347h70.325l17.236 39.84 27.99.5-82.183-174.919Zm.2 55.882 26.5 55.383H102.9l23.309-55.383Z"/></svg>
<svg xmlns="http://www.w3.org/2000/svg" xmlns:xlink="http://www.w3.org/1999/xlink" width="63" height="19.8" x="31.086539172619837" y="2.5"><path fill="#000000" d="M2.44 15L0.53 15L3.28 4.05L5.70 4.05L8.47 15L6.55 15L5.96 12.35L3.04 12.35L2.44 15ZM4.05 7.86L3.39 10.82L5.61 10.82L4.95 7.88Q4.79 7.14 4.67 6.55Q4.54 5.96 4.50 5.69L4.50 5.69Q4.46 5.96 4.33 6.55Q4.21 7.14 4.05 7.86L4.05 7.86ZM12.03 15L10.15 15L10.15 6.75L11.98 6.75L11.98 8.29Q12.13 7.52 12.72 7.06Q13.30 6.60 14.21 6.60L14.21 6.60Q15.42 6.60 16.15 7.41Q16.88 8.22 16.88 9.59L16.88 9.59L16.88 15L15 15L15 9.81Q15 9.04 14.60 8.63Q14.21 8.22 13.53 8.22L13.53 8.22Q12.82 8.22 12.43 8.64Q12.03 9.06 12.03 9.84L12.03 9.84L12.03 15ZM22.63 17.70L20.28 17.70L20.28 16.14L22.61 16.14Q23.27 16.14 23.63 15.79Q23.98 15.44 23.98 14.84L23.98 14.84L23.98 14.34L24.02 13.05Q23.76 13.74 23.20 14.12Q22.63 14.51 21.82 14.51L21.82 14.51Q20.57 14.51 19.82 13.66Q19.08 12.81 19.08 11.36L19.08 11.36L19.08 9.75Q19.08 8.31 19.82 7.46Q20.57 6.60 21.82 6.60L21.82 6.60Q22.63 6.60 23.20 6.98Q23.76 7.37 24.02 8.07L24.02 8.07L24.02 6.75L25.84 6.75L25.84 14.88Q25.84 16.18 24.98 16.94Q24.12 17.70 22.63 17.70L22.63 17.70ZM22.45 12.90L22.45 12.90Q23.18 12.90 23.57 12.47Q23.97 12.04 23.97 11.28L23.97 11.28L23.97 9.84Q23.97 9.07 23.57 8.65Q23.18 8.22 22.45 8.22L22.45 8.22Q21.73 8.22 21.34 8.63Q20.95 9.04 20.95 9.78L20.95 9.78L20.95 11.34Q20.95 12.07 21.34 12.49Q21.73 12.90 22.45 12.90ZM31.50 15.15L31.50 15.15Q29.93 15.15 29.02 14.27Q28.13 13.39 28.13 11.88L28.13 11.88L28.13 6.75L30 6.75L30 11.87Q30 12.64 30.39 13.08Q30.78 13.52 31.50 13.52L31.50 13.52Q32.20 13.52 32.60 13.08Q33 12.64 33 11.87L33 11.87L33 6.75L34.88 6.75L34.88 11.88Q34.88 13.39 33.96 14.27Q33.05 15.15 31.50 15.15ZM44.38 15L41.84 15Q40.60 15 39.86 14.27Q39.12 13.53 39.12 12.33L39.12 12.33L39.12 5.75L36.41 5.75L36.41 4.05L40.99 4.05L40.99 12.29Q40.99 12.75 41.26 13.03Q41.52 13.30 41.97 13.30L41.97 13.30L44.38 13.30L44.38 15ZM48.59 15.15L48.59 15.15Q47.33 15.15 46.60 14.44Q45.87 13.72 45.87 12.57L45.87 12.57Q45.87 11.37 46.70 10.66Q47.52 9.95 48.96 9.95L48.96 9.95L50.97 9.95L50.97 9.36Q50.97 8.12 49.52 8.12L49.52 8.12Q48.85 8.12 48.47 8.37Q48.08 8.63 48.03 9.09L48.03 9.09L46.23 9.09Q46.29 7.98 47.17 7.29Q48.05 6.60 49.53 6.60L49.53 6.60Q51.10 6.60 51.98 7.33Q52.84 8.07 52.84 9.41L52.84 9.41L52.84 15L51.02 15L51.02 13.46Q50.91 14.25 50.27 14.70Q49.62 15.15 48.59 15.15ZM49.19 13.62L49.19 13.62Q50.01 13.62 50.49 13.21Q50.97 12.81 50.97 12.13L50.97 12.13L50.97 11.16L49.05 11.16Q48.44 11.16 48.08 11.51Q47.72 11.85 47.72 12.39L47.72 12.39Q47.72 12.95 48.10 13.28Q48.48 13.62 49.19 13.62ZM57.33 15L55.45 15L55.45 6.75L57.28 6.75L57.28 8.36Q57.44 7.54 58.03 7.07Q58.62 6.60 59.56 6.60L59.56 6.60Q60.83 6.60 61.53 7.41Q62.23 8.22 62.23 9.68L62.23 9.68L62.23 10.46L60.36 10.46L60.36 9.77Q60.36 9.02 59.97 8.62Q59.58 8.22 58.86 8.22L58.86 8.22Q58.11 8.22 57.72 8.67Q57.33 9.12 57.33 9.95L57.33 9.95L57.33 15Z"/></svg>
</svg>