<svg viewBox="0 0 67.22177747201201 25" width="67.22177747201201" height="25" xmlns="http://www.w3.org/2000/svg">
<rect x="0.5" y="0.5" width="66.22177747201201" height="24" rx="12" fill="#ffffff" stroke="#eeeeee"/>
<svg xmlns="http://www.w3.org/2000/svg" xmlns:xlink="http://www.w3.org/1999/xlink" viewBox="0 0 14.212 15.989" x="11" y="4.5" width="14.221777472012008" height="16"><defs><linearGradient id="a" x1="-10.229" x2="-10.229" y1="13.597" y2="14.597" gradientUnits="objectBoundingBox"><stop offset=".387" stop-color="#d1d3d4" stop-opacity="0"/><stop offset="1" stop-color="#d1d3d4"/></linearGradient><linearGradient xlink:href="#a" id="c" x1="-9.516" x2="-9.516" y1="14.078" y2="15.078"/><linearGradient id="b" x1="-5.39" x2="-4.39" y1="6.703" y2="6.703" gradientUnits="objectBoundingBox"><stop offset="0" stop-color="#e8e7e5"/><stop offset="1" stop-color="#fff"/></linearGradient><linearGradient xlink:href="#b" id="d" x1="-4.964" x2="-3.964" y1="30.297" y2="30.297"/></defs><path fill="#2062af" d="m12.88 14.435-5.773 1.554-5.774-1.554L0 0h14.212Z"/><path fill="#3c9cd7" d="M7.106 1.168v13.579h.013l4.672-1.256 1.078-12.325Z"/><path fill="#fff" d="M7.105 4.777 2.973 6.498l.137 1.7 4-1.713 4.25-1.817.176-1.743Z"/><path fill="url(#a)" d="m171.677 241.377.137 1.7 4-1.713v-1.713Z" transform="translate(-168.709 -234.879)"/><path fill="url(#c)" d="m273.595 196.167-4.427 1.843v1.713l4.25-1.817Z" transform="translate(-262.066 -193.233)"/><path fill="url(#b)" d="m171.827 280.258.137 1.7 6.131.019-.137 2.272-2.017.571-1.942-.49-.114-1.41h-1.8l.235 2.723 3.643 1.077 3.624-1.058.471-5.405Z" transform="translate(-168.852 -273.758)"/><path d="M7.105 6.5H2.973l.137 1.7 4 .013Zm0 4.558h-.019l-1.942-.49-.114-1.41H3.222l.235 2.723L7.1 12.958Z" opacity=".05"/><path fill="url(#d)" d="M162.9 196.167h8.931l-.176 1.743h-8.539Z" transform="translate(-160.302 -193.233)"/><path d="M7.098 2.934h-4.5l.216 1.743h4.29Z" opacity=".05"/></svg>
<svg xmlns="http://www.w3.org/2000/svg" xmlns:xlink="http://www.w3.org/1999/xlink" width="27" height="19.8" x="30.221777472012008" y="2.5"><path fill="#000000" d="M4.62 15.15L4.62 15.15Q3.55 15.15 2.77 14.75Q1.99 14.36 1.57 13.63Q1.14 12.90 1.14 11.91L1.14 11.91L1.14 7.14Q1.14 6.15 1.57 5.42Q1.99 4.70 2.77 4.30Q3.55 3.90 4.62 3.90L4.62 3.90Q5.67 3.90 6.45 4.30Q7.23 4.70 7.67 5.42Q8.10 6.15 8.10 7.14L8.10 7.14L6.21 7.14Q6.21 6.38 5.80 5.96Q5.38 5.55 4.62 5.55L4.62 5.55Q3.85 5.55 3.44 5.96Q3.01 6.38 3.01 7.14L3.01 7.14L3.01 11.91Q3.01 12.68 3.44 13.09Q3.85 13.50 4.62 13.50L4.62 13.50Q5.38 13.50 5.80 13.09Q6.21 12.68 6.21 11.91L6.21 11.91L8.10 11.91Q8.10 12.90 7.67 13.63Q7.23 14.36 6.45 14.75Q5.67 15.15 4.62 15.15ZM13.54 15.15L13.54 15.15Q12.44 15.15 11.60 14.76Q10.77 14.37 10.31 13.64Q9.86 12.91 9.86 11.91L9.86 11.91L11.70 11.91Q11.70 12.64 12.20 13.08Q12.71 13.52 13.54 13.52L13.54 13.52Q14.36 13.52 14.83 13.09Q15.30 12.66 15.30 11.94L15.30 11.94Q15.30 11.40 14.99 10.99Q14.68 10.57 14.12 10.43L14.12 10.43L12.64 10.05Q11.46 9.75 10.77 8.93Q10.08 8.10 10.08 6.96L10.08 6.96Q10.08 5.56 10.99 4.73Q11.91 3.90 13.44 3.90L13.44 3.90Q14.47 3.90 15.25 4.28Q16.02 4.65 16.44 5.33Q16.86 6.02 16.86 6.93L16.86 6.93L15.03 6.93Q15.03 6.30 14.59 5.91Q14.16 5.52 13.44 5.52L13.44 5.52Q12.73 5.52 12.32 5.90Q11.91 6.29 11.91 6.90L11.91 6.90Q11.91 7.41 12.20 7.74Q12.49 8.07 13.02 8.22L13.02 8.22L14.54 8.60Q15.75 8.89 16.45 9.79Q17.14 10.70 17.14 11.94L17.14 11.94Q17.14 12.91 16.70 13.63Q16.26 14.36 15.45 14.75Q14.64 15.15 13.54 15.15ZM22.55 15.15L22.55 15.15Q21.43 15.15 20.60 14.76Q19.77 14.37 19.31 13.64Q18.86 12.91 18.86 11.91L18.86 11.91L20.70 11.91Q20.70 12.64 21.20 13.08Q21.70 13.52 22.55 13.52L22.55 13.52Q23.36 13.52 23.83 13.09Q24.30 12.66 24.30 11.94L24.30 11.94Q24.30 11.40 23.99 10.99Q23.68 10.57 23.12 10.43L23.12 10.43L21.64 10.05Q20.46 9.75 19.77 8.93Q19.08 8.10 19.08 6.96L19.08 6.96Q19.08 5.56 20.00 4.73Q20.91 3.90 22.44 3.90L22.44 3.90Q23.48 3.90 24.25 4.28Q25.02 4.65 25.44 5.33Q25.86 6.02 25.86 6.93L25.86 6.93L24.03 6.93Q24.03 6.30 23.59 5.91Q23.16 5.52 22.44 5.52L22.44 5.52Q21.73 5.52 21.32 5.90Q20.91 6.29 20.91 6.90L20.91 6.90Q20.91 7.41 21.20 7.74Q21.50 8.07 22.02 8.22L22.02 8.22L23.54 8.60Q24.75 8.89 25.45 9.79Q26.14 10.70 26.14 11.94L26.14 11.94Q26.14 12.91 25.70 13.63Q25.26 14.36 24.45 14.75Q23.64 15.15 22.55 15.15Z"/></svg>
</svg>