<svg viewBox="0 0 102.14418272662384 25" width="102.14418272662384" height="25" xmlns="http://www.w3.org/2000/svg">
<rect x="0.5" y="0.5" width="101.14418272662384" height="24" rx="12" fill="#ffffff" stroke="#eeeeee"/>
<svg xmlns="http://www.w3.org/2000/svg" width="22.144182726623843" height="16" viewBox="0 0 19.39 14.01" x="11" y="4.5"><path d="M18.995,5.341a3.447,3.447,0,0,0-2.22-.265,3.044,3.044,0,0,0-1.238-2.007l-.419-.3-.291.436a3.589,3.589,0,0,0-.491,2.121,2.53,2.53,0,0,0,.382,1.156,3.034,3.034,0,0,1-1.474.341H.088l-.036.152a6.806,6.806,0,0,0,1.365,4.944A6.1,6.1,0,0,0,6.42,14c4.768,0,8.3-2.291,9.954-6.439a2.74,2.74,0,0,0,2.766-1.421c.018-.038.055-.114.182-.4l.073-.152ZM10.605,0h-2V1.893h2Zm0,2.272h-2V4.167h2Zm-2.365,0h-2V4.167h2Zm-2.365,0h-2V4.167h2ZM3.509,4.546h-2V6.439h2Zm2.365,0h-2V6.439h2Zm2.365,0h-2V6.439h2Zm2.365,0h-2V6.439h2Zm2.365,0h-2V6.439h2Z" transform="translate(-0.005)" fill="#2396ed"/></svg>
<svg xmlns="http://www.w3.org/2000/svg" xmlns:xlink="http://www.w3.org/1999/xlink" width="54" height="19.8" x="38.14418272662384" y="2.5"><path fill="#000000" d="M4.38 15L1.13 15L1.13 4.05L4.38 4.05Q5.49 4.05 6.31 4.48Q7.13 4.91 7.57 5.67Q8.03 6.44 8.03 7.47L8.03 7.47L8.03 11.56Q8.03 12.60 7.57 13.37Q7.13 14.14 6.31 14.57Q5.49 15 4.38 15L4.38 15ZM3 5.73L3 13.32L4.38 13.32Q5.19 13.32 5.67 12.85Q6.15 12.38 6.15 11.56L6.15 11.56L6.15 7.47Q6.15 6.68 5.67 6.20Q5.19 5.73 4.38 5.73L4.38 5.73L3 5.73ZM13.50 15.13L13.50 15.13Q11.91 15.13 10.98 14.24Q10.05 13.35 10.05 11.84L10.05 11.84L10.05 9.91Q10.05 8.39 10.98 7.50Q11.91 6.62 13.50 6.62L13.50 6.62Q15.09 6.62 16.02 7.50Q16.95 8.39 16.95 9.91L16.95 9.91L16.95 11.84Q16.95 13.35 16.02 14.24Q15.09 15.13 13.50 15.13ZM13.50 13.50L13.50 13.50Q14.25 13.50 14.66 13.09Q15.07 12.68 15.07 11.89L15.07 11.89L15.07 9.86Q15.07 9.07 14.66 8.66Q14.25 8.25 13.50 8.25L13.50 8.25Q12.75 8.25 12.34 8.66Q11.93 9.07 11.93 9.86L11.93 9.86L11.93 11.89Q11.93 12.68 12.34 13.09Q12.75 13.50 13.50 13.50ZM22.63 15.15L22.63 15.15Q21.57 15.15 20.78 14.75Q20.00 14.36 19.56 13.63Q19.13 12.90 19.13 11.91L19.13 11.91L19.13 9.84Q19.13 8.85 19.56 8.12Q20.00 7.40 20.78 7.00Q21.57 6.60 22.63 6.60L22.63 6.60Q24.18 6.60 25.12 7.40Q26.05 8.21 26.10 9.59L26.10 9.59L24.25 9.59Q24.21 8.94 23.77 8.59Q23.32 8.23 22.63 8.23L22.63 8.23Q21.87 8.23 21.43 8.65Q21 9.06 21 9.82L21 9.82L21 11.91Q21 12.68 21.43 13.10Q21.87 13.52 22.63 13.52L22.63 13.52Q23.34 13.52 23.77 13.16Q24.21 12.81 24.25 12.16L24.25 12.16L26.10 12.16Q26.05 13.54 25.12 14.35Q24.18 15.15 22.63 15.15ZM30.11 15L28.23 15L28.23 4.05L30.11 4.05L30.11 9.99L31.43 9.99L33.39 6.75L35.48 6.75L33.03 10.74L35.56 15L33.44 15L31.43 11.58L30.11 11.58L30.11 15ZM40.52 15.15L40.52 15.15Q39.47 15.15 38.69 14.74Q37.91 14.34 37.48 13.60Q37.05 12.86 37.05 11.85L37.05 11.85L37.05 9.90Q37.05 8.89 37.48 8.15Q37.91 7.41 38.69 7.00Q39.47 6.60 40.52 6.60L40.52 6.60Q41.55 6.60 42.32 7.00Q43.09 7.41 43.52 8.14Q43.95 8.87 43.95 9.84L43.95 9.84L43.95 11.34L38.85 11.34L38.85 11.91Q38.85 12.75 39.28 13.18Q39.72 13.61 40.52 13.61L40.52 13.61Q41.10 13.61 41.51 13.40Q41.92 13.20 42 12.81L42 12.81L43.86 12.81Q43.66 13.88 42.75 14.51Q41.84 15.15 40.52 15.15ZM38.85 9.84L38.85 9.84L38.85 10.13L42.15 10.11L42.15 9.82Q42.15 8.97 41.73 8.50Q41.31 8.04 40.52 8.04L40.52 8.04Q39.69 8.04 39.27 8.51Q38.85 8.98 38.85 9.84ZM48.33 15L46.45 15L46.45 6.75L48.28 6.75L48.28 8.36Q48.44 7.54 49.03 7.07Q49.62 6.60 50.56 6.60L50.56 6.60Q51.83 6.60 52.53 7.41Q53.23 8.22 53.23 9.68L53.23 9.68L53.23 10.46L51.36 10.46L51.36 9.77Q51.36 9.02 50.97 8.62Q50.58 8.22 49.86 8.22L49.86 8.22Q49.11 8.22 48.72 8.67Q48.33 9.12 48.33 9.95L48.33 9.95L48.33 15Z"/></svg>
</svg>