<svg viewBox="0 0 110.73869594745656 25" width="110.73869594745656" height="25" xmlns="http://www.w3.org/2000/svg">
<rect x="0.5" y="0.5" width="109.73869594745656" height="24" rx="12" fill="#ffffff" stroke="#eeeeee"/>
<svg xmlns="http://www.w3.org/2000/svg" viewBox="0 0 377.481 474.122" x="11" y="4.5" width="12.738695947456561" height="16"><path fill="#ff9100" d="M118.229 460.493a189.014 189.014 0 0 0 149.626-3.754 266.851 266.851 0 0 1-83.514-52.438 142.989 142.989 0 0 1-66.112 56.192Z"/><path fill="#ffc400" d="M184.338 404.311a266.217 266.217 0 0 1-85.563-205.285c.092-2.622.23-5.244.393-7.864a142.5 142.5 0 0 0-74.4.778 188.765 188.765 0 0 0 93.458 268.561 142.856 142.856 0 0 0 66.112-56.19Z"/><path fill="#ff9100" d="M184.339 404.308a142.4 142.4 0 0 0-85.171-213.149c-.162 2.621-.3 5.242-.392 7.865a266.215 266.215 0 0 0 85.563 205.284Z"/><path fill="#dd2c00" d="M198.71.001a266.191 266.191 0 0 0-99.571 191.176 142.4 142.4 0 0 1 85.17 213.149 266.4 266.4 0 0 0 83.514 52.435 188.678 188.678 0 0 0 109.553-164.8c1.666-47.7-16.662-90.217-42.56-126.1C307.466 127.901 198.71.001 198.71.001Z"/></svg>
<svg xmlns="http://www.w3.org/2000/svg" xmlns:xlink="http://www.w3.org/1999/xlink" width="72" height="19.8" x="28.738695947456563" y="2.5"><path fill="#000000" d="M3.07 15L1.20 15L1.20 4.05L8.01 4.05L8.01 5.79L3.04 5.79L3.04 8.71L7.62 8.71L7.62 10.46L3.07 10.46L3.07 15ZM17.37 15L10.14 15L10.14 13.30L12.96 13.30L12.96 8.45L10.44 8.45L10.44 6.75L14.84 6.75L14.84 13.30L17.37 13.30L17.37 15ZM13.77 5.37L13.77 5.37Q13.20 5.37 12.87 5.08Q12.54 4.79 12.54 4.29L12.54 4.29Q12.54 3.79 12.87 3.50Q13.20 3.21 13.77 3.21L13.77 3.21Q14.34 3.21 14.67 3.50Q15 3.79 15 4.29L15 4.29Q15 4.79 14.67 5.08Q14.34 5.37 13.77 5.37ZM21.33 15L19.45 15L19.45 6.75L21.29 6.75L21.29 8.36Q21.43 7.54 22.03 7.07Q22.62 6.60 23.56 6.60L23.56 6.60Q24.82 6.60 25.53 7.41Q26.23 8.22 26.23 9.68L26.23 9.68L26.23 10.46L24.36 10.46L24.36 9.77Q24.36 9.02 23.97 8.62Q23.58 8.22 22.86 8.22L22.86 8.22Q22.11 8.22 21.72 8.67Q21.33 9.12 21.33 9.95L21.33 9.95L21.33 15ZM31.52 15.15L31.52 15.15Q30.46 15.15 29.68 14.74Q28.91 14.34 28.48 13.60Q28.05 12.86 28.05 11.85L28.05 11.85L28.05 9.90Q28.05 8.89 28.48 8.15Q28.91 7.41 29.68 7.00Q30.46 6.60 31.52 6.60L31.52 6.60Q32.55 6.60 33.32 7.00Q34.09 7.41 34.52 8.14Q34.95 8.87 34.95 9.84L34.95 9.84L34.95 11.34L29.85 11.34L29.85 11.91Q29.85 12.75 30.29 13.18Q30.72 13.61 31.52 13.61L31.52 13.61Q32.10 13.61 32.51 13.40Q32.92 13.20 33 12.81L33 12.81L34.86 12.81Q34.66 13.88 33.75 14.51Q32.84 15.15 31.52 15.15ZM29.85 9.84L29.85 9.84L29.85 10.13L33.15 10.11L33.15 9.82Q33.15 8.97 32.73 8.50Q32.31 8.04 31.52 8.04L31.52 8.04Q30.69 8.04 30.27 8.51Q29.85 8.98 29.85 9.84ZM41.25 15.15L41.25 15.15Q40.38 15.15 39.80 14.71Q39.21 14.28 38.98 13.50L38.98 13.50L38.98 15L37.16 15L37.16 4.05L39.03 4.05L39.03 6.36L38.97 8.25Q39.21 7.47 39.80 7.04Q40.39 6.60 41.25 6.60L41.25 6.60Q42.47 6.60 43.20 7.46Q43.94 8.31 43.94 9.77L43.94 9.77L43.94 12Q43.94 13.44 43.19 14.29Q42.45 15.15 41.25 15.15ZM40.55 13.53L40.55 13.53Q41.27 13.53 41.66 13.14Q42.06 12.75 42.06 11.94L42.06 11.94L42.06 9.81Q42.06 9 41.66 8.61Q41.27 8.22 40.55 8.22L40.55 8.22Q39.83 8.22 39.43 8.66Q39.03 9.09 39.03 9.88L39.03 9.88L39.03 11.87Q39.03 12.66 39.43 13.10Q39.83 13.53 40.55 13.53ZM48.59 15.15L48.59 15.15Q47.33 15.15 46.60 14.44Q45.87 13.72 45.87 12.57L45.87 12.57Q45.87 11.37 46.70 10.66Q47.52 9.95 48.96 9.95L48.96 9.95L50.97 9.95L50.97 9.36Q50.97 8.12 49.52 8.12L49.52 8.12Q48.85 8.12 48.47 8.37Q48.08 8.63 48.03 9.09L48.03 9.09L46.23 9.09Q46.29 7.98 47.17 7.29Q48.05 6.60 49.53 6.60L49.53 6.60Q51.10 6.60 51.98 7.33Q52.84 8.07 52.84 9.41L52.84 9.41L52.84 15L51.02 15L51.02 13.46Q50.91 14.25 50.27 14.70Q49.62 15.15 48.59 15.15ZM49.19 13.62L49.19 13.62Q50.01 13.62 50.49 13.21Q50.97 12.81 50.97 12.13L50.97 12.13L50.97 11.16L49.05 11.16Q48.44 11.16 48.08 11.51Q47.72 11.85 47.72 12.39L47.72 12.39Q47.72 12.95 48.10 13.28Q48.48 13.62 49.19 13.62ZM58.81 15.13L58.16 15.13Q56.69 15.13 55.83 14.47Q54.98 13.80 54.98 12.66L54.98 12.66L56.82 12.66Q56.82 13.14 57.17 13.39Q57.52 13.65 58.16 13.65L58.16 13.65L58.81 13.65Q59.49 13.65 59.86 13.39Q60.23 13.14 60.23 12.66L60.23 12.66Q60.23 12.21 59.97 11.99Q59.72 11.78 59.19 11.70L59.19 11.70L57.13 11.43Q56.15 11.29 55.61 10.66Q55.08 10.04 55.08 9.03L55.08 9.03Q55.08 7.86 55.86 7.24Q56.64 6.62 58.11 6.62L58.11 6.62L58.80 6.62Q60.18 6.62 61.02 7.25Q61.86 7.88 61.89 8.93L61.89 8.93L60.03 8.93Q60.02 8.54 59.69 8.30Q59.35 8.07 58.80 8.07L58.80 8.07L58.11 8.07Q57.51 8.07 57.20 8.32Q56.88 8.57 56.88 8.98L56.88 8.98Q56.88 9.36 57.11 9.54Q57.34 9.72 57.80 9.77L57.80 9.77L59.73 10.04Q60.87 10.17 61.45 10.84Q62.02 11.51 62.02 12.63L62.02 12.63Q62.02 13.83 61.21 14.48Q60.39 15.13 58.81 15.13L58.81 15.13ZM67.52 15.15L67.52 15.15Q66.47 15.15 65.69 14.74Q64.91 14.34 64.48 13.60Q64.05 12.86 64.05 11.85L64.05 11.85L64.05 9.90Q64.05 8.89 64.48 8.15Q64.91 7.41 65.69 7.00Q66.47 6.60 67.52 6.60L67.52 6.60Q68.55 6.60 69.32 7.00Q70.09 7.41 70.52 8.14Q70.95 8.87 70.95 9.84L70.95 9.84L70.95 11.34L65.85 11.34L65.85 11.91Q65.85 12.75 66.28 13.18Q66.72 13.61 67.52 13.61L67.52 13.61Q68.10 13.61 68.51 13.40Q68.92 13.20 69 12.81L69 12.81L70.86 12.81Q70.67 13.88 69.75 14.51Q68.83 15.15 67.52 15.15ZM65.85 9.84L65.85 9.84L65.85 10.13L69.15 10.11L69.15 9.82Q69.15 8.97 68.73 8.50Q68.31 8.04 67.52 8.04L67.52 8.04Q66.69 8.04 66.27 8.51Q65.85 8.98 65.85 9.84Z"/></svg>
</svg>