<svg viewBox="0 0 121 25" width="121" height="25" xmlns="http://www.w3.org/2000/svg">
<rect x="0.5" y="0.5" width="120" height="24" rx="12" fill="#ffffff" stroke="#eeeeee"/>
<svg xmlns="http://www.w3.org/2000/svg" width="31.999999999999996" height="11.96466710613052" viewBox="0 0 30.34 11.344" x="11" y="6.51766644693474"><g transform="translate(0 0.05)"><g transform="translate(2.23 2.848)"><g transform="translate(0 0)"><path d="M15.159,20.046c-.059,0-.074-.029-.045-.074l.31-.4a.211.211,0,0,1,.162-.074h5.271c.059,0,.074.045.045.088l-.251.384a.225.225,0,0,1-.147.088Z" transform="translate(-15.1 -19.5)" fill="#00acd7"/></g></g><g transform="translate(0 4.205)"><g transform="translate(0 0)"><path d="M.059,29.246c-.059,0-.074-.029-.045-.074l.309-.4A.211.211,0,0,1,.486,28.7H7.22a.068.068,0,0,1,.074.088l-.118.355a.129.129,0,0,1-.133.088Z" transform="translate(0 -28.699)" fill="#00acd7"/></g></g><g transform="translate(3.573 5.565)"><g transform="translate(0 0)"><path d="M24.259,38.447c-.059,0-.074-.045-.045-.088l.206-.369a.2.2,0,0,1,.147-.088h2.953c.059,0,.088.045.088.1l-.029.355a.111.111,0,0,1-.1.1Z" transform="translate(-24.2 -37.901)" fill="#00acd7"/></g></g><g transform="translate(8.053 -0.05)"><g transform="translate(0 0)"><path d="M65.43,3.128c-.93.236-1.565.414-2.481.647-.222.059-.236.074-.428-.147a1.976,1.976,0,0,0-.694-.561,2.567,2.567,0,0,0-2.671.222A3.14,3.14,0,0,0,57.644,6.1a2.315,2.315,0,0,0,1.993,2.318,2.725,2.725,0,0,0,2.509-.971c.133-.162.251-.34.4-.546H59.7c-.31,0-.384-.192-.281-.443.192-.458.546-1.225.753-1.61a.4.4,0,0,1,.369-.236h5.378c-.029.4-.029.8-.088,1.2A6.3,6.3,0,0,1,64.613,8.7,6.151,6.151,0,0,1,60.4,11.207a5.231,5.231,0,0,1-3.972-.971,4.638,4.638,0,0,1-1.874-3.285,5.8,5.8,0,0,1,1.255-4.327A6.556,6.556,0,0,1,59.947.071a5.089,5.089,0,0,1,3.913.724,4.629,4.629,0,0,1,1.713,2.083C65.662,3.009,65.6,3.084,65.43,3.128Z" transform="translate(-54.518 0.05)" fill="#00acd7"/><g transform="translate(10.526 0.132)"><path d="M131.069,12.082a5.539,5.539,0,0,1-3.6-1.3,4.631,4.631,0,0,1-1.594-2.85,5.637,5.637,0,0,1,1.2-4.46A6.19,6.19,0,0,1,131.2,1.007a5.478,5.478,0,0,1,4.209.753,4.6,4.6,0,0,1,2.082,3.293,5.7,5.7,0,0,1-1.7,5.006,6.766,6.766,0,0,1-3.544,1.89C131.851,12.023,131.453,12.038,131.069,12.082Zm3.514-5.966a4.251,4.251,0,0,0-.045-.486,2.432,2.432,0,0,0-3.012-1.964,3.226,3.226,0,0,0-2.584,2.57A2.428,2.428,0,0,0,130.3,9.027a2.707,2.707,0,0,0,2.407-.088,3.232,3.232,0,0,0,1.875-2.822Z" transform="translate(-125.799 -0.87)" fill="#00acd7"/></g></g></g></g></svg>
<svg xmlns="http://www.w3.org/2000/svg" xmlns:xlink="http://www.w3.org/1999/xlink" width="63" height="19.8" x="48" y="2.5"><path fill="#000000" d="M4.56 15.15L4.56 15.15Q3.49 15.15 2.71 14.75Q1.93 14.36 1.51 13.63Q1.08 12.90 1.08 11.91L1.08 11.91L1.08 7.14Q1.08 6.15 1.51 5.42Q1.93 4.70 2.71 4.30Q3.49 3.90 4.56 3.90L4.56 3.90Q5.61 3.90 6.39 4.30Q7.17 4.70 7.60 5.42Q8.04 6.15 8.04 7.14L8.04 7.14L6.15 7.14Q6.15 6.38 5.74 5.96Q5.33 5.55 4.56 5.55L4.56 5.55Q3.79 5.55 3.38 5.96Q2.96 6.36 2.96 7.13L2.96 7.13L2.96 11.91Q2.96 12.68 3.38 13.10Q3.79 13.52 4.56 13.52L4.56 13.52Q5.33 13.52 5.74 13.10Q6.15 12.68 6.15 11.91L6.15 11.91L6.15 10.70L4.29 10.70L4.29 9.07L8.04 9.07L8.04 11.91Q8.04 12.90 7.60 13.63Q7.17 14.36 6.39 14.75Q5.61 15.15 4.56 15.15ZM13.50 15.13L13.50 15.13Q11.91 15.13 10.98 14.24Q10.05 13.35 10.05 11.84L10.05 11.84L10.05 9.91Q10.05 8.39 10.98 7.50Q11.91 6.62 13.50 6.62L13.50 6.62Q15.09 6.62 16.02 7.50Q16.95 8.39 16.95 9.91L16.95 9.91L16.95 11.84Q16.95 13.35 16.02 14.24Q15.09 15.13 13.50 15.13ZM13.50 13.50L13.50 13.50Q14.25 13.50 14.66 13.09Q15.07 12.68 15.07 11.89L15.07 11.89L15.07 9.86Q15.07 9.07 14.66 8.66Q14.25 8.25 13.50 8.25L13.50 8.25Q12.75 8.25 12.34 8.66Q11.93 9.07 11.93 9.86L11.93 9.86L11.93 11.89Q11.93 12.68 12.34 13.09Q12.75 13.50 13.50 13.50ZM35.38 15L32.84 15Q31.61 15 30.86 14.27Q30.12 13.53 30.12 12.33L30.12 12.33L30.12 5.75L27.41 5.75L27.41 4.05L32.00 4.05L32.00 12.29Q32.00 12.75 32.26 13.03Q32.52 13.30 32.97 13.30L32.97 13.30L35.38 13.30L35.38 15ZM39.59 15.15L39.59 15.15Q38.33 15.15 37.60 14.44Q36.87 13.72 36.87 12.57L36.87 12.57Q36.87 11.37 37.70 10.66Q38.52 9.95 39.96 9.95L39.96 9.95L41.97 9.95L41.97 9.36Q41.97 8.12 40.52 8.12L40.52 8.12Q39.85 8.12 39.47 8.37Q39.08 8.63 39.03 9.09L39.03 9.09L37.23 9.09Q37.29 7.98 38.17 7.29Q39.05 6.60 40.53 6.60L40.53 6.60Q42.10 6.60 42.98 7.33Q43.84 8.07 43.84 9.41L43.84 9.41L43.84 15L42.02 15L42.02 13.46Q41.91 14.25 41.27 14.70Q40.62 15.15 39.59 15.15ZM40.19 13.62L40.19 13.62Q41.01 13.62 41.49 13.21Q41.97 12.81 41.97 12.13L41.97 12.13L41.97 11.16L40.05 11.16Q39.44 11.16 39.08 11.51Q38.72 11.85 38.72 12.39L38.72 12.39Q38.72 12.95 39.10 13.28Q39.48 13.62 40.19 13.62ZM48.03 15L46.16 15L46.16 6.75L47.98 6.75L47.98 8.29Q48.13 7.52 48.72 7.06Q49.30 6.60 50.20 6.60L50.20 6.60Q51.42 6.60 52.15 7.41Q52.88 8.22 52.88 9.59L52.88 9.59L52.88 15L51 15L51 9.81Q51 9.04 50.60 8.63Q50.20 8.22 49.53 8.22L49.53 8.22Q48.83 8.22 48.43 8.64Q48.03 9.06 48.03 9.84L48.03 9.84L48.03 15ZM58.63 17.70L56.28 17.70L56.28 16.14L58.60 16.14Q59.27 16.14 59.63 15.79Q59.98 15.44 59.98 14.84L59.98 14.84L59.98 14.34L60.02 13.05Q59.76 13.74 59.20 14.12Q58.63 14.51 57.83 14.51L57.83 14.51Q56.56 14.51 55.82 13.66Q55.08 12.81 55.08 11.36L55.08 11.36L55.08 9.75Q55.08 8.31 55.82 7.46Q56.56 6.60 57.83 6.60L57.83 6.60Q58.63 6.60 59.20 6.98Q59.76 7.37 60.02 8.07L60.02 8.07L60.02 6.75L61.84 6.75L61.84 14.88Q61.84 16.18 60.98 16.94Q60.12 17.70 58.63 17.70L58.63 17.70ZM58.45 12.90L58.45 12.90Q59.17 12.90 59.57 12.47Q59.97 12.04 59.97 11.28L59.97 11.28L59.97 9.84Q59.97 9.07 59.57 8.65Q59.17 8.22 58.45 8.22L58.45 8.22Q57.73 8.22 57.34 8.63Q56.95 9.04 56.95 9.78L56.95 9.78L56.95 11.34Q56.95 12.07 57.34 12.49Q57.73 12.90 58.45 12.90Z"/></svg>
</svg>