<svg viewBox="0 0 74 25" width="74" height="25" xmlns="http://www.w3.org/2000/svg">
<rect x="0.5" y="0.5" width="73" height="24" rx="12" fill="#ffffff" stroke="#eeeeee"/>
<svg xmlns="http://www.w3.org/2000/svg" viewBox="0 0 12 16" x="11" y="4.5" width="12" height="16"><path fill="#f44336" d="M5.86 8.36a12.331 12.331 0 0 1-1.09-2.182C4.092 4.478 8.896 2.947 6.948 0c.844 2.036-3.031 3.294-3.391 4.989C3.228 6.548 5.858 8.36 5.86 8.36Z"/><path fill="#f44336" d="M5.951 5.308c-.077 1.006.892 1.543.92 2.278a1.615 1.615 0 0 1-.579 1.1 2.047 2.047 0 0 0 1.432-1.127c.378-1.014-.734-1.708-.619-2.519.107-.775 2.412-2.217 2.412-2.217s-3.392.222-3.566 2.485Z"/><g fill="#1565c0"><path d="M9.233 8.422a.99.99 0 0 1 1.293.8c0 1.16-1.608 2.257-1.608 2.257s2.49-.3 2.49-2.2c0-1.257-1.218-1.572-2.175-.857Zm-1.182.936s.776-.553.983-.761c-1.905.4-6.255.459-6.255.108 0-.324 1.4-.655 1.4-.655s-3.109-.045-3.109.872c.003.956 4.073 1.025 6.981.436Z"/><path d="M7.574 10.229c-1.8.6-5.126.408-4.142-.4-.479 0-1.19.385-1.19.756 0 .743 3.593 1.316 6.252.229Z"/><path d="M3.874 11.496c-.654 0-1.078.422-1.078.729 0 .956 3.9 1.053 5.451.082l-.983-.653c-1.159.503-4.059.578-3.39-.158Z"/><path d="M10.912 13.053c0-.374-.422-.551-.573-.635.891 2.149-8.927 1.982-8.927.714 0-.288.723-.571 1.391-.437l-.568-.336C.9 12.15 0 12.735 0 13.207c0 2.201 10.912 2.095 10.912-.154Z"/><path d="M12 13.838c-1.661 1.642-5.861 2.239-10.092 1.227 4.231 1.801 10.072.787 10.092-1.227Z"/></g></svg>
<svg xmlns="http://www.w3.org/2000/svg" xmlns:xlink="http://www.w3.org/1999/xlink" width="36" height="19.8" x="28" y="2.5"><path fill="#000000" d="M4.05 15.15L4.05 15.15Q2.38 15.15 1.42 14.23Q0.45 13.32 0.45 11.76L0.45 11.76L2.32 11.76Q2.32 12.57 2.78 13.04Q3.24 13.52 4.05 13.52L4.05 13.52Q4.84 13.52 5.31 13.05Q5.77 12.59 5.77 11.78L5.77 11.78L5.77 4.05L7.65 4.05L7.65 11.78Q7.65 13.34 6.68 14.24Q5.71 15.15 4.05 15.15ZM12.59 15.15L12.59 15.15Q11.32 15.15 10.60 14.44Q9.87 13.72 9.87 12.57L9.87 12.57Q9.87 11.37 10.70 10.66Q11.52 9.95 12.96 9.95L12.96 9.95L14.97 9.95L14.97 9.36Q14.97 8.12 13.52 8.12L13.52 8.12Q12.86 8.12 12.46 8.37Q12.07 8.63 12.03 9.09L12.03 9.09L10.23 9.09Q10.29 7.98 11.17 7.29Q12.04 6.60 13.53 6.60L13.53 6.60Q15.11 6.60 15.97 7.33Q16.84 8.07 16.84 9.41L16.84 9.41L16.84 15L15.02 15L15.02 13.46Q14.91 14.25 14.27 14.70Q13.62 15.15 12.59 15.15ZM13.18 13.62L13.18 13.62Q14.01 13.62 14.49 13.21Q14.97 12.81 14.97 12.13L14.97 12.13L14.97 11.16L13.05 11.16Q12.44 11.16 12.07 11.51Q11.71 11.85 11.71 12.39L11.71 12.39Q11.71 12.95 12.10 13.28Q12.48 13.62 13.18 13.62ZM23.70 15L21.32 15L18.54 6.75L20.50 6.75L22.09 11.76Q22.25 12.21 22.36 12.67Q22.47 13.13 22.52 13.46L22.52 13.46Q22.57 13.13 22.67 12.67Q22.77 12.21 22.91 11.78L22.91 11.78L24.48 6.75L26.46 6.75L23.70 15ZM30.59 15.15L30.59 15.15Q29.32 15.15 28.60 14.44Q27.87 13.72 27.87 12.57L27.87 12.57Q27.87 11.37 28.70 10.66Q29.52 9.95 30.96 9.95L30.96 9.95L32.97 9.95L32.97 9.36Q32.97 8.12 31.52 8.12L31.52 8.12Q30.86 8.12 30.46 8.37Q30.07 8.63 30.03 9.09L30.03 9.09L28.23 9.09Q28.29 7.98 29.17 7.29Q30.05 6.60 31.53 6.60L31.53 6.60Q33.10 6.60 33.98 7.33Q34.84 8.07 34.84 9.41L34.84 9.41L34.84 15L33.02 15L33.02 13.46Q32.91 14.25 32.27 14.70Q31.62 15.15 30.59 15.15ZM31.18 13.62L31.18 13.62Q32.01 13.62 32.49 13.21Q32.97 12.81 32.97 12.13L32.97 12.13L32.97 11.16L31.05 11.16Q30.43 11.16 30.07 11.51Q29.71 11.85 29.71 12.39L29.71 12.39Q29.71 12.95 30.10 13.28Q30.48 13.62 31.18 13.62Z"/></svg>
</svg>