<svg viewBox="0 0 132 25" width="132" height="25" xmlns="http://www.w3.org/2000/svg">
<rect x="0.5" y="0.5" width="131" height="24" rx="12" fill="#ffffff" stroke="#eeeeee"/>
<svg xmlns="http://www.w3.org/2000/svg" viewBox="0 0 15.998 15.998" x="11" y="4.5" width="16" height="16"><rect width="15.998" height="15.998" fill="#f7df1e" rx="1"/><path d="M10.915 12.694a1.663 1.663 0 0 0 1.506.927c.633 0 1.036-.317 1.036-.753 0-.523-.415-.708-1.112-1.014l-.382-.163c-1.1-.47-1.828-1.057-1.828-2.3a2.04 2.04 0 0 1 2.236-2.017 2.257 2.257 0 0 1 2.171 1.223l-1.188.763a1.039 1.039 0 0 0-.983-.655.664.664 0 0 0-.73.655c0 .457.283.643.939.927l.382.163c1.3.557 2.029 1.123 2.029 2.4 0 1.371-1.08 2.128-2.53 2.128a2.933 2.933 0 0 1-2.783-1.561Zm-5.394.133c.24.425.457.785.983.785.5 0 .818-.2.818-.96V7.461h1.527v5.212a2.073 2.073 0 0 1-2.285 2.3 2.37 2.37 0 0 1-2.285-1.394Z" fill="black"/></svg>
<svg xmlns="http://www.w3.org/2000/svg" xmlns:xlink="http://www.w3.org/1999/xlink" width="90" height="19.8" x="32" y="2.5"><path fill="#000000" d="M4.05 15.15L4.05 15.15Q2.38 15.15 1.42 14.23Q0.45 13.32 0.45 11.76L0.45 11.76L2.32 11.76Q2.32 12.57 2.78 13.04Q3.24 13.52 4.05 13.52L4.05 13.52Q4.84 13.52 5.31 13.05Q5.77 12.59 5.77 11.78L5.77 11.78L5.77 4.05L7.65 4.05L7.65 11.78Q7.65 13.34 6.68 14.24Q5.71 15.15 4.05 15.15ZM12.59 15.15L12.59 15.15Q11.32 15.15 10.60 14.44Q9.87 13.72 9.87 12.57L9.87 12.57Q9.87 11.37 10.70 10.66Q11.52 9.95 12.96 9.95L12.96 9.95L14.97 9.95L14.97 9.36Q14.97 8.12 13.52 8.12L13.52 8.12Q12.86 8.12 12.46 8.37Q12.07 8.63 12.03 9.09L12.03 9.09L10.23 9.09Q10.29 7.98 11.17 7.29Q12.04 6.60 13.53 6.60L13.53 6.60Q15.11 6.60 15.97 7.33Q16.84 8.07 16.84 9.41L16.84 9.41L16.84 15L15.02 15L15.02 13.46Q14.91 14.25 14.27 14.70Q13.62 15.15 12.59 15.15ZM13.18 13.62L13.18 13.62Q14.01 13.62 14.49 13.21Q14.97 12.81 14.97 12.13L14.97 12.13L14.97 11.16L13.05 11.16Q12.44 11.16 12.07 11.51Q11.71 11.85 11.71 12.39L11.71 12.39Q11.71 12.95 12.10 13.28Q12.48 13.62 13.18 13.62ZM23.70 15L21.32 15L18.54 6.75L20.50 6.75L22.09 11.76Q22.25 12.21 22.36 12.67Q22.47 13.13 22.52 13.46L22.52 13.46Q22.57 13.13 22.67 12.67Q22.77 12.21 22.91 11.78L22.91 11.78L24.48 6.75L26.46 6.75L23.70 15ZM30.59 15.15L30.59 15.15Q29.32 15.15 28.60 14.44Q27.87 13.72 27.87 12.57L27.87 12.57Q27.87 11.37 28.70 10.66Q29.52 9.95 30.96 9.95L30.96 9.95L32.97 9.95L32.97 9.36Q32.97 8.12 31.52 8.12L31.52 8.12Q30.86 8.12 30.46 8.37Q30.07 8.63 30.03 9.09L30.03 9.09L28.23 9.09Q28.29 7.98 29.17 7.29Q30.05 6.60 31.53 6.60L31.53 6.60Q33.10 6.60 33.98 7.33Q34.84 8.07 34.84 9.41L34.84 9.41L34.84 15L33.02 15L33.02 13.46Q32.91 14.25 32.27 14.70Q31.62 15.15 30.59 15.15ZM31.18 13.62L31.18 13.62Q32.01 13.62 32.49 13.21Q32.97 12.81 32.97 12.13L32.97 12.13L32.97 11.16L31.05 11.16Q30.43 11.16 30.07 11.51Q29.71 11.85 29.71 12.39L29.71 12.39Q29.71 12.95 30.10 13.28Q30.48 13.62 31.18 13.62ZM40.55 15.15L40.55 15.15Q39.44 15.15 38.60 14.76Q37.77 14.37 37.31 13.64Q36.85 12.91 36.85 11.91L36.85 11.91L38.70 11.91Q38.70 12.64 39.20 13.08Q39.70 13.52 40.55 13.52L40.55 13.52Q41.35 13.52 41.83 13.09Q42.30 12.66 42.30 11.94L42.30 11.94Q42.30 11.40 41.99 10.99Q41.69 10.57 41.12 10.43L41.12 10.43L39.65 10.05Q38.46 9.75 37.77 8.93Q37.08 8.10 37.08 6.96L37.08 6.96Q37.08 5.56 37.99 4.73Q38.91 3.90 40.44 3.90L40.44 3.90Q41.48 3.90 42.25 4.28Q43.02 4.65 43.44 5.33Q43.86 6.02 43.86 6.93L43.86 6.93L42.03 6.93Q42.03 6.30 41.59 5.91Q41.16 5.52 40.44 5.52L40.44 5.52Q39.73 5.52 39.32 5.90Q38.91 6.29 38.91 6.90L38.91 6.90Q38.91 7.41 39.20 7.74Q39.49 8.07 40.02 8.22L40.02 8.22L41.53 8.60Q42.75 8.89 43.45 9.79Q44.14 10.70 44.14 11.94L44.14 11.94Q44.14 12.91 43.70 13.63Q43.26 14.36 42.45 14.75Q41.64 15.15 40.55 15.15ZM49.63 15.15L49.63 15.15Q48.57 15.15 47.78 14.75Q46.99 14.36 46.56 13.63Q46.13 12.90 46.13 11.91L46.13 11.91L46.13 9.84Q46.13 8.85 46.56 8.12Q46.99 7.40 47.78 7.00Q48.57 6.60 49.63 6.60L49.63 6.60Q51.18 6.60 52.12 7.40Q53.05 8.21 53.10 9.59L53.10 9.59L51.26 9.59Q51.21 8.94 50.77 8.59Q50.33 8.23 49.63 8.23L49.63 8.23Q48.87 8.23 48.44 8.65Q48 9.06 48 9.82L48 9.82L48 11.91Q48 12.68 48.44 13.10Q48.87 13.52 49.63 13.52L49.63 13.52Q50.34 13.52 50.77 13.16Q51.21 12.81 51.26 12.16L51.26 12.16L53.10 12.16Q53.05 13.54 52.12 14.35Q51.18 15.15 49.63 15.15ZM57.33 15L55.45 15L55.45 6.75L57.28 6.75L57.28 8.36Q57.44 7.54 58.03 7.07Q58.62 6.60 59.56 6.60L59.56 6.60Q60.83 6.60 61.53 7.41Q62.23 8.22 62.23 9.68L62.23 9.68L62.23 10.46L60.36 10.46L60.36 9.77Q60.36 9.02 59.97 8.62Q59.58 8.22 58.86 8.22L58.86 8.22Q58.11 8.22 57.72 8.67Q57.33 9.12 57.33 9.95L57.33 9.95L57.33 15ZM71.37 15L64.14 15L64.14 13.30L66.96 13.30L66.96 8.45L64.44 8.45L64.44 6.75L68.83 6.75L68.83 13.30L71.37 13.30L71.37 15ZM67.77 5.37L67.77 5.37Q67.20 5.37 66.87 5.08Q66.54 4.79 66.54 4.29L66.54 4.29Q66.54 3.79 66.87 3.50Q67.20 3.21 67.77 3.21L67.77 3.21Q68.34 3.21 68.67 3.50Q69 3.79 69 4.29L69 4.29Q69 4.79 68.67 5.08Q68.34 5.37 67.77 5.37ZM75.03 17.70L73.16 17.70L73.16 6.75L74.98 6.75L74.98 8.27Q75.21 7.49 75.80 7.04Q76.38 6.60 77.25 6.60L77.25 6.60Q78.05 6.60 78.65 6.99Q79.26 7.38 79.60 8.09Q79.94 8.80 79.94 9.75L79.94 9.75L79.94 11.98Q79.94 13.41 79.20 14.28Q78.47 15.15 77.25 15.15L77.25 15.15Q76.38 15.15 75.79 14.70Q75.19 14.25 74.97 13.44L74.97 13.44L75.03 15.39L75.03 17.70ZM76.55 13.53L76.55 13.53Q77.27 13.53 77.66 13.14Q78.06 12.75 78.06 11.94L78.06 11.94L78.06 9.81Q78.06 9 77.66 8.61Q77.27 8.22 76.55 8.22L76.55 8.22Q75.83 8.22 75.43 8.66Q75.03 9.09 75.03 9.88L75.03 9.88L75.03 11.87Q75.03 12.66 75.43 13.10Q75.83 13.53 76.55 13.53ZM88.91 15L86.33 15Q85.17 15 84.49 14.33Q83.81 13.66 83.81 12.53L83.81 12.53L83.81 8.45L81.53 8.45L81.53 6.75L83.81 6.75L83.81 4.43L85.69 4.43L85.69 6.75L88.98 6.75L88.98 8.45L85.69 8.45L85.69 12.48Q85.69 12.84 85.90 13.07Q86.10 13.30 86.46 13.30L86.46 13.30L88.91 13.30L88.91 15Z"/></svg>
</svg>