<svg viewBox="0 0 76.05051262815704 25" width="76.05051262815704" height="25" xmlns="http://www.w3.org/2000/svg">
<rect x="0.5" y="0.5" width="75.05051262815704" height="24" rx="12" fill="#ffffff" stroke="#eeeeee"/>
<svg xmlns="http://www.w3.org/2000/svg" viewBox="0 0 14.047 15.996" x="11" y="4.5" width="14.05051262815704" height="16"><defs><linearGradient id="a" x1=".682" x2=".278" y1=".175" y2=".898" gradientUnits="objectBoundingBox"><stop offset="0" stop-color="#41873f"/><stop offset=".329" stop-color="#418b3d"/><stop offset=".635" stop-color="#419637"/><stop offset=".932" stop-color="#3fa92d"/><stop offset="1" stop-color="#3fae2a"/></linearGradient><linearGradient id="b" x1=".433" x2="1.592" y1=".552" y2="-.183" gradientUnits="objectBoundingBox"><stop offset=".138" stop-color="#41873f"/><stop offset=".403" stop-color="#54a044"/><stop offset=".714" stop-color="#66b848"/><stop offset=".908" stop-color="#6cc04a"/></linearGradient><linearGradient id="c" x1="-.044" x2="1.015" y1=".5" y2=".5" gradientUnits="objectBoundingBox"><stop offset=".092" stop-color="#6cc04a"/><stop offset=".286" stop-color="#66b848"/><stop offset=".597" stop-color="#54a044"/><stop offset=".862" stop-color="#41873f"/></linearGradient></defs><path fill="url(#a)" d="M7.388.1a.767.767 0 0 0-.758 0L.371 3.713A.743.743 0 0 0 0 4.367v7.24a.775.775 0 0 0 .371.655l6.255 3.611a.767.767 0 0 0 .759 0l6.259-3.613a.743.743 0 0 0 .371-.655V4.367a.775.775 0 0 0-.371-.655Z" transform="translate(0 .005)"/><path fill="url(#b)" d="M15.971 4.16 9.683.549A1.028 1.028 0 0 0 9.49.475L2.443 12.546a.784.784 0 0 0 .208.178l6.284 3.613a.724.724 0 0 0 .579.074l6.615-12.1a.78.78 0 0 0-.163-.149Z" transform="translate(-2.309 -.445)"/><path fill="url(#c)" d="M20.091 12.22a.845.845 0 0 0 .371-.475L13.565-.03a.755.755 0 0 0-.535.089l-6.244 3.6 6.734 12.279a1.038 1.038 0 0 0 .282-.089l6.284-3.627Z" transform="translate(-6.416 .045)"/></svg>
<svg xmlns="http://www.w3.org/2000/svg" xmlns:xlink="http://www.w3.org/1999/xlink" width="36" height="19.8" x="30.05051262815704" y="2.5"><path fill="#000000" d="M2.79 15L1.08 15L1.08 4.05L3.38 4.05L6.42 12.90Q6.38 12.42 6.33 11.77Q6.29 11.12 6.25 10.44Q6.21 9.77 6.21 9.24L6.21 9.24L6.21 4.05L7.92 4.05L7.92 15L5.63 15L2.61 6.15Q2.64 6.59 2.69 7.20Q2.73 7.82 2.76 8.46Q2.79 9.11 2.79 9.64L2.79 9.64L2.79 15ZM13.50 15.13L13.50 15.13Q11.91 15.13 10.98 14.24Q10.05 13.35 10.05 11.84L10.05 11.84L10.05 9.91Q10.05 8.39 10.98 7.50Q11.91 6.62 13.50 6.62L13.50 6.62Q15.09 6.62 16.02 7.50Q16.95 8.39 16.95 9.91L16.95 9.91L16.95 11.84Q16.95 13.35 16.02 14.24Q15.09 15.13 13.50 15.13ZM13.50 13.50L13.50 13.50Q14.25 13.50 14.66 13.09Q15.07 12.68 15.07 11.89L15.07 11.89L15.07 9.86Q15.07 9.07 14.66 8.66Q14.25 8.25 13.50 8.25L13.50 8.25Q12.75 8.25 12.34 8.66Q11.93 9.07 11.93 9.86L11.93 9.86L11.93 11.89Q11.93 12.68 12.34 13.09Q12.75 13.50 13.50 13.50ZM21.75 15.15L21.75 15.15Q20.55 15.15 19.81 14.29Q19.07 13.44 19.07 12L19.07 12L19.07 9.77Q19.07 8.31 19.80 7.46Q20.54 6.60 21.75 6.60L21.75 6.60Q22.61 6.60 23.20 7.04Q23.79 7.47 24.03 8.25L24.03 8.25L23.97 6.36L23.97 4.05L25.84 4.05L25.84 15L24.02 15L24.02 13.50Q23.79 14.28 23.20 14.71Q22.62 15.15 21.75 15.15ZM22.45 13.53L22.45 13.53Q23.18 13.53 23.57 13.10Q23.97 12.66 23.97 11.87L23.97 11.87L23.97 9.88Q23.97 9.09 23.57 8.66Q23.18 8.22 22.45 8.22L22.45 8.22Q21.73 8.22 21.34 8.61Q20.94 9 20.94 9.81L20.94 9.81L20.94 11.94Q20.94 12.75 21.34 13.14Q21.73 13.53 22.45 13.53ZM31.52 15.15L31.52 15.15Q30.46 15.15 29.68 14.74Q28.91 14.34 28.48 13.60Q28.05 12.86 28.05 11.85L28.05 11.85L28.05 9.90Q28.05 8.89 28.48 8.15Q28.91 7.41 29.68 7.00Q30.46 6.60 31.52 6.60L31.52 6.60Q32.55 6.60 33.32 7.00Q34.09 7.41 34.52 8.14Q34.95 8.87 34.95 9.84L34.95 9.84L34.95 11.34L29.85 11.34L29.85 11.91Q29.85 12.75 30.29 13.18Q30.72 13.61 31.52 13.61L31.52 13.61Q32.10 13.61 32.51 13.40Q32.92 13.20 33 12.81L33 12.81L34.86 12.81Q34.66 13.88 33.75 14.51Q32.84 15.15 31.52 15.15ZM29.85 9.84L29.85 9.84L29.85 10.13L33.15 10.11L33.15 9.82Q33.15 8.97 32.73 8.50Q32.31 8.04 31.52 8.04L31.52 8.04Q30.69 8.04 30.27 8.51Q29.85 8.98 29.85 9.84Z"/></svg>
</svg>