<svg viewBox="0 0 96 25" width="96" height="25" xmlns="http://www.w3.org/2000/svg">
<rect x="0.5" y="0.5" width="95" height="24" rx="12" fill="#ffffff" stroke="#eeeeee"/>
<svg viewBox="-27 0 310 310" version="1.1" xmlns="http://www.w3.org/2000/svg" xmlns:xlink="http://www.w3.org/1999/xlink" preserveAspectRatio="xMidYMid" fill="#000000" x="11" y="4.5" width="16" height="16"><g id="SVGRepo_bgCarrier" stroke-width="0"/><g id="SVGRepo_tracerCarrier" stroke-linecap="round" stroke-linejoin="round"/><g id="SVGRepo_iconCarrier"><g><path d="M254.312882,235.518775 L148.000961,9.74987264 C145.309805,4.08935083 139.731924,0.359884549 133.472618,0.0359753113 C127.198908,-0.384374336 121.212054,2.71925839 117.939655,8.08838662 L2.63252565,194.847143 C-0.947129465,200.604248 -0.871814894,207.912774 2.8257217,213.594888 L59.2003287,300.896318 C63.5805009,307.626626 71.8662281,310.673635 79.5631922,308.384597 L243.161606,259.992851 C248.145475,258.535702 252.252801,254.989363 254.421072,250.271225 C256.559881,245.57581 256.523135,240.176915 254.32061,235.511047 L254.312882,235.518775 Z M230.511129,245.201761 L91.6881763,286.252058 C87.4533189,287.511696 83.388474,283.840971 84.269448,279.567474 L133.866738,42.0831633 C134.794079,37.6396542 140.929985,36.9364206 142.869673,41.0476325 L234.684164,236.021085 C235.505704,237.779423 235.515611,239.809427 234.711272,241.575701 C233.906934,243.341974 232.369115,244.667163 230.503401,245.201761 L230.511129,245.201761 Z" fill="#0C344B" fill-rule="nonzero"/></g></g></svg>
<svg xmlns="http://www.w3.org/2000/svg" xmlns:xlink="http://www.w3.org/1999/xlink" width="54" height="19.8" x="32" y="2.5"><path fill="#000000" d="M3.03 15L1.16 15L1.16 4.05L4.80 4.05Q5.89 4.05 6.71 4.47Q7.53 4.89 7.98 5.65Q8.43 6.41 8.43 7.43L8.43 7.43Q8.43 8.45 7.98 9.20Q7.53 9.96 6.71 10.38Q5.89 10.80 4.80 10.80L4.80 10.80L3.03 10.80L3.03 15ZM3.03 5.70L3.03 9.15L4.80 9.15Q5.59 9.15 6.06 8.67Q6.52 8.19 6.52 7.43L6.52 7.43Q6.52 6.66 6.06 6.18Q5.59 5.70 4.80 5.70L4.80 5.70L3.03 5.70ZM12.33 15L10.46 15L10.46 6.75L12.29 6.75L12.29 8.36Q12.44 7.54 13.03 7.07Q13.62 6.60 14.56 6.60L14.56 6.60Q15.82 6.60 16.53 7.41Q17.23 8.22 17.23 9.68L17.23 9.68L17.23 10.46L15.36 10.46L15.36 9.77Q15.36 9.02 14.97 8.62Q14.58 8.22 13.86 8.22L13.86 8.22Q13.11 8.22 12.72 8.67Q12.33 9.12 12.33 9.95L12.33 9.95L12.33 15ZM26.37 15L19.14 15L19.14 13.30L21.96 13.30L21.96 8.45L19.44 8.45L19.44 6.75L23.84 6.75L23.84 13.30L26.37 13.30L26.37 15ZM22.77 5.37L22.77 5.37Q22.20 5.37 21.87 5.08Q21.54 4.79 21.54 4.29L21.54 4.29Q21.54 3.79 21.87 3.50Q22.20 3.21 22.77 3.21L22.77 3.21Q23.34 3.21 23.67 3.50Q24 3.79 24 4.29L24 4.29Q24 4.79 23.67 5.08Q23.34 5.37 22.77 5.37ZM31.81 15.13L31.16 15.13Q29.68 15.13 28.83 14.47Q27.98 13.80 27.98 12.66L27.98 12.66L29.82 12.66Q29.82 13.14 30.17 13.39Q30.52 13.65 31.16 13.65L31.16 13.65L31.81 13.65Q32.49 13.65 32.86 13.39Q33.23 13.14 33.23 12.66L33.23 12.66Q33.23 12.21 32.97 11.99Q32.72 11.78 32.19 11.70L32.19 11.70L30.13 11.43Q29.14 11.29 28.61 10.66Q28.08 10.04 28.08 9.03L28.08 9.03Q28.08 7.86 28.86 7.24Q29.64 6.62 31.11 6.62L31.11 6.62L31.80 6.62Q33.18 6.62 34.02 7.25Q34.86 7.88 34.89 8.93L34.89 8.93L33.03 8.93Q33.02 8.54 32.69 8.30Q32.35 8.07 31.80 8.07L31.80 8.07L31.11 8.07Q30.51 8.07 30.20 8.32Q29.88 8.57 29.88 8.98L29.88 8.98Q29.88 9.36 30.11 9.54Q30.34 9.72 30.80 9.77L30.80 9.77L32.73 10.04Q33.87 10.17 34.45 10.84Q35.02 11.51 35.02 12.63L35.02 12.63Q35.02 13.83 34.21 14.48Q33.39 15.13 31.81 15.13L31.81 15.13ZM38.35 15L36.70 15L36.70 6.75L38.27 6.75L38.27 7.95L38.31 7.95Q38.35 7.35 38.73 6.97Q39.10 6.60 39.67 6.60L39.67 6.60Q40.23 6.60 40.62 6.95Q41.01 7.31 41.14 7.91L41.14 7.91Q41.20 7.31 41.59 6.95Q41.97 6.60 42.55 6.60L42.55 6.60Q43.30 6.60 43.80 7.19Q44.30 7.79 44.30 8.71L44.30 8.71L44.30 15L42.64 15L42.64 8.85Q42.64 8.45 42.46 8.21Q42.27 7.98 41.92 7.98L41.92 7.98Q41.25 7.98 41.25 8.85L41.25 8.85L41.25 15L39.75 15L39.75 8.85Q39.75 8.45 39.58 8.21Q39.41 7.98 39.08 7.98L39.08 7.98Q38.35 7.98 38.35 8.85L38.35 8.85L38.35 15ZM48.59 15.15L48.59 15.15Q47.33 15.15 46.60 14.44Q45.87 13.72 45.87 12.57L45.87 12.57Q45.87 11.37 46.70 10.66Q47.52 9.95 48.96 9.95L48.96 9.95L50.97 9.95L50.97 9.36Q50.97 8.12 49.52 8.12L49.52 8.12Q48.85 8.12 48.47 8.37Q48.08 8.63 48.03 9.09L48.03 9.09L46.23 9.09Q46.29 7.98 47.17 7.29Q48.05 6.60 49.53 6.60L49.53 6.60Q51.10 6.60 51.98 7.33Q52.84 8.07 52.84 9.41L52.84 9.41L52.84 15L51.02 15L51.02 13.46Q50.91 14.25 50.27 14.70Q49.62 15.15 48.59 15.15ZM49.19 13.62L49.19 13.62Q50.01 13.62 50.49 13.21Q50.97 12.81 50.97 12.13L50.97 12.13L50.97 11.16L49.05 11.16Q48.44 11.16 48.08 11.51Q47.72 11.85 47.72 12.39L47.72 12.39Q47.72 12.95 48.10 13.28Q48.48 13.62 49.19 13.62Z"/></svg>
</svg>