<svg viewBox="0 0 93.29932326913067 25" width="93.29932326913067" height="25" xmlns="http://www.w3.org/2000/svg">
<rect x="0.5" y="0.5" width="92.29932326913067" height="24" rx="12" fill="#ffffff" stroke="#eeeeee"/>
<svg xmlns="http://www.w3.org/2000/svg" viewBox="0 0 19.161 23.052" x="11" y="4.5" width="13.299323269130662" height="16"><path fill="#ff3e00" d="M17.935 3.05a7.037 7.037 0 0 0-9.41-2.036L3.149 4.456A6.1 6.1 0 0 0 .376 8.577a6.394 6.394 0 0 0 .649 4.161 5.9 5.9 0 0 0-.918 2.3 6.572 6.572 0 0 0 1.113 4.961 7.041 7.041 0 0 0 9.405 2.036l5.376-3.421a6.1 6.1 0 0 0 2.773-4.121 6.394 6.394 0 0 0-.645-4.16 5.9 5.9 0 0 0 .918-2.3 6.435 6.435 0 0 0-1.112-4.983"/><path fill="#fff" d="M7.994 20.292a4.254 4.254 0 0 1-4.568-1.7 3.954 3.954 0 0 1-.683-2.987c.039-.176.078-.332.117-.508l.1-.312.273.2a7.12 7.12 0 0 0 2.108 1.054l.2.059-.02.2a1.307 1.307 0 0 0 .215.8 1.292 1.292 0 0 0 1.386.527 1.688 1.688 0 0 0 .332-.137l5.348-3.416a1.106 1.106 0 0 0 .508-.742 1.212 1.212 0 0 0-.2-.9 1.281 1.281 0 0 0-1.386-.508 1.688 1.688 0 0 0-.332.137l-2.05 1.308a3.631 3.631 0 0 1-1.093.469 4.254 4.254 0 0 1-4.568-1.7 3.944 3.944 0 0 1-.664-2.987A3.7 3.7 0 0 1 4.696 6.67l5.368-3.416a4.133 4.133 0 0 1 5.661 1.21 3.954 3.954 0 0 1 .683 2.987 4.891 4.891 0 0 1-.137.508l-.1.312-.273-.2a7.12 7.12 0 0 0-2.108-1.054l-.2-.059.02-.2a1.307 1.307 0 0 0-.215-.8 1.281 1.281 0 0 0-1.386-.508 1.689 1.689 0 0 0-.332.137L6.329 9.003a1.106 1.106 0 0 0-.508.742 1.212 1.212 0 0 0 .2.9 1.281 1.281 0 0 0 1.386.508 1.689 1.689 0 0 0 .332-.137l2.05-1.308a4.133 4.133 0 0 1 5.661 1.21 3.954 3.954 0 0 1 .683 2.987 3.7 3.7 0 0 1-1.679 2.479l-5.367 3.42a4.248 4.248 0 0 1-1.093.488"/></svg>
<svg xmlns="http://www.w3.org/2000/svg" xmlns:xlink="http://www.w3.org/1999/xlink" width="54" height="19.8" x="29.29932326913066" y="2.5"><path fill="#000000" d="M4.54 15.15L4.54 15.15Q3.44 15.15 2.60 14.76Q1.77 14.37 1.31 13.64Q0.85 12.91 0.85 11.91L0.85 11.91L2.70 11.91Q2.70 12.64 3.20 13.08Q3.71 13.52 4.54 13.52L4.54 13.52Q5.35 13.52 5.83 13.09Q6.30 12.66 6.30 11.94L6.30 11.94Q6.30 11.40 5.99 10.99Q5.68 10.57 5.12 10.43L5.12 10.43L3.65 10.05Q2.46 9.75 1.77 8.93Q1.08 8.10 1.08 6.96L1.08 6.96Q1.08 5.56 1.99 4.73Q2.91 3.90 4.44 3.90L4.44 3.90Q5.47 3.90 6.25 4.28Q7.02 4.65 7.44 5.33Q7.86 6.02 7.86 6.93L7.86 6.93L6.03 6.93Q6.03 6.30 5.59 5.91Q5.16 5.52 4.44 5.52L4.44 5.52Q3.73 5.52 3.32 5.90Q2.91 6.29 2.91 6.90L2.91 6.90Q2.91 7.41 3.20 7.74Q3.49 8.07 4.02 8.22L4.02 8.22L5.54 8.60Q6.75 8.89 7.45 9.79Q8.14 10.70 8.14 11.94L8.14 11.94Q8.14 12.91 7.70 13.63Q7.26 14.36 6.45 14.75Q5.64 15.15 4.54 15.15ZM14.70 15L12.31 15L9.54 6.75L11.50 6.75L13.09 11.76Q13.25 12.21 13.36 12.67Q13.47 13.13 13.52 13.46L13.52 13.46Q13.57 13.13 13.67 12.67Q13.77 12.21 13.91 11.78L13.91 11.78L15.48 6.75L17.46 6.75L14.70 15ZM22.52 15.15L22.52 15.15Q21.46 15.15 20.68 14.74Q19.91 14.34 19.48 13.60Q19.05 12.86 19.05 11.85L19.05 11.85L19.05 9.90Q19.05 8.89 19.48 8.15Q19.91 7.41 20.68 7.00Q21.46 6.60 22.52 6.60L22.52 6.60Q23.55 6.60 24.32 7.00Q25.09 7.41 25.52 8.14Q25.95 8.87 25.95 9.84L25.95 9.84L25.95 11.34L20.85 11.34L20.85 11.91Q20.85 12.75 21.29 13.18Q21.72 13.61 22.52 13.61L22.52 13.61Q23.10 13.61 23.51 13.40Q23.93 13.20 24 12.81L24 12.81L25.86 12.81Q25.66 13.88 24.75 14.51Q23.84 15.15 22.52 15.15ZM20.85 9.84L20.85 9.84L20.85 10.13L24.15 10.11L24.15 9.82Q24.15 8.97 23.73 8.50Q23.31 8.04 22.52 8.04L22.52 8.04Q21.69 8.04 21.27 8.51Q20.85 8.98 20.85 9.84ZM35.38 15L32.84 15Q31.61 15 30.86 14.27Q30.12 13.53 30.12 12.33L30.12 12.33L30.12 5.75L27.41 5.75L27.41 4.05L32.00 4.05L32.00 12.29Q32.00 12.75 32.26 13.03Q32.52 13.30 32.97 13.30L32.97 13.30L35.38 13.30L35.38 15ZM43.91 15L41.33 15Q40.17 15 39.49 14.33Q38.80 13.66 38.80 12.53L38.80 12.53L38.80 8.45L36.52 8.45L36.52 6.75L38.80 6.75L38.80 4.43L40.70 4.43L40.70 6.75L43.98 6.75L43.98 8.45L40.70 8.45L40.70 12.48Q40.70 12.84 40.90 13.07Q41.10 13.30 41.46 13.30L41.46 13.30L43.91 13.30L43.91 15ZM49.52 15.15L49.52 15.15Q48.47 15.15 47.69 14.74Q46.91 14.34 46.48 13.60Q46.05 12.86 46.05 11.85L46.05 11.85L46.05 9.90Q46.05 8.89 46.48 8.15Q46.91 7.41 47.69 7.00Q48.47 6.60 49.52 6.60L49.52 6.60Q50.55 6.60 51.32 7.00Q52.09 7.41 52.52 8.14Q52.95 8.87 52.95 9.84L52.95 9.84L52.95 11.34L47.85 11.34L47.85 11.91Q47.85 12.75 48.28 13.18Q48.72 13.61 49.52 13.61L49.52 13.61Q50.10 13.61 50.51 13.40Q50.92 13.20 51 12.81L51 12.81L52.86 12.81Q52.66 13.88 51.75 14.51Q50.84 15.15 49.52 15.15ZM47.85 9.84L47.85 9.84L47.85 10.13L51.15 10.11L51.15 9.82Q51.15 8.97 50.73 8.50Q50.31 8.04 49.52 8.04L49.52 8.04Q48.69 8.04 48.27 8.51Q47.85 8.98 47.85 9.84Z"/></svg>
</svg>