<svg viewBox="0 0 114 25" width="114" height="25" xmlns="http://www.w3.org/2000/svg">
<rect x="0.5" y="0.5" width="113" height="24" rx="12" fill="#ffffff" stroke="#eeeeee"/>
<svg xmlns="http://www.w3.org/2000/svg" viewBox="0 0 18.816 18.816" x="11" y="4.5" width="16" height="16"><path fill="#0d47a1" d="M14.765 18.816H4.051A4.051 4.051 0 0 1 0 14.765V4.051A4.051 4.051 0 0 1 4.051 0h10.713a4.051 4.051 0 0 1 4.052 4.051v10.713a4.051 4.051 0 0 1-4.051 4.052Z"/><path fill="#1565c0" d="M18.816 4.051A4.051 4.051 0 0 0 14.765 0H4.051A4.051 4.051 0 0 0 0 4.051V8.77c1.568 1.683 4.444 3.732 7.132 3.714 3.579-.024 8.889-1.421 11.684-4.431Z"/><path fill="#1e88e5" d="M18.816 4.051A4.051 4.051 0 0 0 14.765 0H4.051A4.051 4.051 0 0 0 0 4.051v4.573c1.568 1.829 3.773 2.539 7.157 2.564 5.461.04 9.739-2.524 11.659-4.92Z"/><path fill="#29b6f6" d="M18.816 4.051A4.051 4.051 0 0 0 14.765 0H4.051A4.051 4.051 0 0 0 0 4.051v4.275a13.133 13.133 0 0 0 6.624 1.744c5.481.031 10.42-2.737 12.192-5.957Z"/><path fill="#00e5ff" d="M14.765 0H4.051A4.051 4.051 0 0 0 0 4.051v3.126a11.7 11.7 0 0 0 6.751 1.8c3.76 0 9.783-2 11.637-6.731A4.048 4.048 0 0 0 14.765 0Z"/><path fill="#18ffff" d="M14.765 0H4.051A4.051 4.051 0 0 0 0 4.051V5.98a11.2 11.2 0 0 0 9.292 1.5c4.674-1.122 7.323-3.62 8.274-6.35A4.034 4.034 0 0 0 14.765 0Z"/><path fill="#448aff" d="M7.6 0H4.051A4.051 4.051 0 0 0 0 4.051v4.983l.033.047c2.221 3.136 7.709 5.161 11.3 1.862 2.091-2.613.882-6.893-.686-8.3C9.862 1.94 8.629.88 7.6 0Z"/><path fill="#40c4ff" d="M7.826 0H4.051A4.051 4.051 0 0 0 0 4.051V9.13c2.655 2.066 6.8 2.88 9.7.212 2.091-2.613.882-6.893-.686-8.3C8.683.747 8.269.384 7.826 0Z"/><path fill="#00e5ff" d="M4.051 0A4.051 4.051 0 0 0 0 4.051V8.2a6.969 6.969 0 0 0 7.612-1.01C9.3 5.08 8.837 1.893 7.775 0Z"/><path fill="#18ffff" d="M4.051 0A4.051 4.051 0 0 0 0 4.051v2.47a6.468 6.468 0 0 0 5.216-1.643A6 6 0 0 0 6.194 0Z"/><path fill="#212121" d="M3.454 4.636s3.571 5.4 6.574 7.223c-1.136.365-3.6 1.858-7.9-.78 1.1 1.5 3.035 4.513 7.783 4.229a9.979 9.979 0 0 0 3.612-.974 1.857 1.857 0 0 1 2.592 1.053 3.961 3.961 0 0 0-1.1-3.774s1.284-4.894-4.182-8.755c1.136 2.273 1.794 3.554 1.26 6.685a62.381 62.381 0 0 1-6.728-5.609 36.3 36.3 0 0 0 3.562 4.879c-1.293-.89-5.473-4.177-5.473-4.177Z"/></svg>
<svg xmlns="http://www.w3.org/2000/svg" xmlns:xlink="http://www.w3.org/1999/xlink" width="72" height="19.8" x="32" y="2.5"><path fill="#000000" d="M4.54 15.15L4.54 15.15Q3.44 15.15 2.60 14.76Q1.77 14.37 1.31 13.64Q0.85 12.91 0.85 11.91L0.85 11.91L2.70 11.91Q2.70 12.64 3.20 13.08Q3.71 13.52 4.54 13.52L4.54 13.52Q5.35 13.52 5.83 13.09Q6.30 12.66 6.30 11.94L6.30 11.94Q6.30 11.40 5.99 10.99Q5.68 10.57 5.12 10.43L5.12 10.43L3.65 10.05Q2.46 9.75 1.77 8.93Q1.08 8.10 1.08 6.96L1.08 6.96Q1.08 5.56 1.99 4.73Q2.91 3.90 4.44 3.90L4.44 3.90Q5.47 3.90 6.25 4.28Q7.02 4.65 7.44 5.33Q7.86 6.02 7.86 6.93L7.86 6.93L6.03 6.93Q6.03 6.30 5.59 5.91Q5.16 5.52 4.44 5.52L4.44 5.52Q3.73 5.52 3.32 5.90Q2.91 6.29 2.91 6.90L2.91 6.90Q2.91 7.41 3.20 7.74Q3.49 8.07 4.02 8.22L4.02 8.22L5.54 8.60Q6.75 8.89 7.45 9.79Q8.14 10.70 8.14 11.94L8.14 11.94Q8.14 12.91 7.70 13.63Q7.26 14.36 6.45 14.75Q5.64 15.15 4.54 15.15ZM12.46 15L10.53 15L9.24 6.75L10.72 6.75L11.46 11.80Q11.52 12.27 11.56 12.81Q11.61 13.35 11.64 13.71L11.64 13.71Q11.65 13.35 11.70 12.81Q11.75 12.27 11.84 11.80L11.84 11.80L12.73 6.75L14.29 6.75L15.16 11.80Q15.25 12.27 15.31 12.82Q15.36 13.37 15.39 13.72L15.39 13.72Q15.42 13.37 15.46 12.82Q15.50 12.27 15.57 11.80L15.57 11.80L16.32 6.75L17.76 6.75L16.44 15L14.50 15L13.72 9.91Q13.65 9.50 13.59 8.95Q13.53 8.40 13.50 8.05L13.50 8.05Q13.48 8.40 13.41 8.95Q13.34 9.50 13.27 9.91L13.27 9.91L12.46 15ZM26.37 15L19.14 15L19.14 13.30L21.96 13.30L21.96 8.45L19.44 8.45L19.44 6.75L23.84 6.75L23.84 13.30L26.37 13.30L26.37 15ZM22.77 5.37L22.77 5.37Q22.20 5.37 21.87 5.08Q21.54 4.79 21.54 4.29L21.54 4.29Q21.54 3.79 21.87 3.50Q22.20 3.21 22.77 3.21L22.77 3.21Q23.34 3.21 23.67 3.50Q24 3.79 24 4.29L24 4.29Q24 4.79 23.67 5.08Q23.34 5.37 22.77 5.37ZM31.88 15L30 15L30 9.57L27.73 9.57L27.73 7.88L30 7.88L30 6.42Q30 5.34 30.72 4.70Q31.44 4.05 32.63 4.05L32.63 4.05L35.04 4.05L35.04 5.70L32.67 5.70Q32.31 5.70 32.09 5.90Q31.88 6.11 31.88 6.45L31.88 6.45L31.88 7.88L35.04 7.88L35.04 9.57L31.88 9.57L31.88 15ZM43.91 15L41.33 15Q40.17 15 39.49 14.33Q38.80 13.66 38.80 12.53L38.80 12.53L38.80 8.45L36.52 8.45L36.52 6.75L38.80 6.75L38.80 4.43L40.70 4.43L40.70 6.75L43.98 6.75L43.98 8.45L40.70 8.45L40.70 12.48Q40.70 12.84 40.90 13.07Q41.10 13.30 41.46 13.30L41.46 13.30L43.91 13.30L43.91 15ZM58.50 15.15L58.50 15.15Q56.90 15.15 55.99 14.27Q55.08 13.39 55.08 11.88L55.08 11.88L55.08 4.05L56.97 4.05L56.97 11.87Q56.97 12.64 57.36 13.08Q57.75 13.52 58.50 13.52L58.50 13.52Q59.23 13.52 59.63 13.08Q60.03 12.64 60.03 11.87L60.03 11.87L60.03 4.05L61.92 4.05L61.92 11.88Q61.92 13.39 61.02 14.27Q60.12 15.15 58.50 15.15ZM70.65 15L64.35 15L64.35 13.30L66.56 13.30L66.56 5.75L64.35 5.75L64.35 4.05L70.65 4.05L70.65 5.75L68.44 5.75L68.44 13.30L70.65 13.30L70.65 15Z"/></svg>
</svg>