<svg viewBox="0 0 132 25" width="132" height="25" xmlns="http://www.w3.org/2000/svg">
<rect x="0.5" y="0.5" width="131" height="24" rx="12" fill="#ffffff" stroke="#eeeeee"/>
<svg xmlns="http://www.w3.org/2000/svg" viewBox="0 0 16.004 16.004" x="11" y="4.5" width="16" height="16"><path fill="#3178c6" d="M1.563 0h12.879A1.563 1.563 0 0 1 16 1.563v12.879A1.563 1.563 0 0 1 14.442 16H1.563A1.563 1.563 0 0 1 0 14.442V1.563A1.563 1.563 0 0 1 1.563 0Z"/><path fill="#fff" fill-rule="evenodd" d="M9.908 12.739v1.563a3.317 3.317 0 0 0 .9.294 5.941 5.941 0 0 0 1.1.1 5.133 5.133 0 0 0 1.069-.107 2.62 2.62 0 0 0 .888-.354 1.806 1.806 0 0 0 .6-.646 2.274 2.274 0 0 0 .095-1.731 1.742 1.742 0 0 0-.367-.572 2.684 2.684 0 0 0-.572-.447 6.164 6.164 0 0 0-.756-.374q-.309-.127-.553-.247a2.8 2.8 0 0 1-.416-.245 1.066 1.066 0 0 1-.264-.264.556.556 0 0 1-.093-.315.527.527 0 0 1 .083-.292.718.718 0 0 1 .234-.223 1.258 1.258 0 0 1 .371-.144 2.157 2.157 0 0 1 .489-.051 3.1 3.1 0 0 1 .414.03 3.268 3.268 0 0 1 .438.09 3.049 3.049 0 0 1 .428.154 2.364 2.364 0 0 1 .384.215V7.711a3.821 3.821 0 0 0-.781-.2 6.361 6.361 0 0 0-.971-.066 4.514 4.514 0 0 0-1.056.114 2.688 2.688 0 0 0-.878.374 1.869 1.869 0 0 0-.6.648 1.9 1.9 0 0 0-.221.941 1.829 1.829 0 0 0 .4 1.193 3.072 3.072 0 0 0 1.225.836q.322.132.6.26a3.349 3.349 0 0 1 .482.264 1.264 1.264 0 0 1 .32.3.608.608 0 0 1 .114.367.561.561 0 0 1-.073.281.651.651 0 0 1-.223.229 1.219 1.219 0 0 1-.372.149 2.233 2.233 0 0 1-.521.054 2.972 2.972 0 0 1-1.008-.178 3.006 3.006 0 0 1-.909-.538ZM7.279 8.883h2.01V7.599h-5.6v1.284h2v5.716h1.59Z"/></svg>
<svg xmlns="http://www.w3.org/2000/svg" xmlns:xlink="http://www.w3.org/1999/xlink" width="90" height="19.8" x="32" y="2.5"><path fill="#000000" d="M5.44 15L3.55 15L3.55 5.75L0.69 5.75L0.69 4.05L8.31 4.05L8.31 5.75L5.44 5.75L5.44 15ZM13.44 17.70L11.47 17.70L12.64 14.55L9.54 6.75L11.52 6.75L13.11 10.96Q13.25 11.34 13.38 11.78Q13.52 12.22 13.57 12.60L13.57 12.60Q13.62 12.22 13.75 11.78Q13.88 11.34 14.01 10.96L14.01 10.96L15.48 6.75L17.46 6.75L13.44 17.70ZM21.03 17.70L19.16 17.70L19.16 6.75L20.98 6.75L20.98 8.27Q21.21 7.49 21.80 7.04Q22.38 6.60 23.25 6.60L23.25 6.60Q24.05 6.60 24.65 6.99Q25.26 7.38 25.60 8.09Q25.93 8.80 25.93 9.75L25.93 9.75L25.93 11.98Q25.93 13.41 25.20 14.28Q24.46 15.15 23.25 15.15L23.25 15.15Q22.38 15.15 21.79 14.70Q21.20 14.25 20.97 13.44L20.97 13.44L21.03 15.39L21.03 17.70ZM22.55 13.53L22.55 13.53Q23.27 13.53 23.66 13.14Q24.06 12.75 24.06 11.94L24.06 11.94L24.06 9.81Q24.06 9 23.66 8.61Q23.27 8.22 22.55 8.22L22.55 8.22Q21.82 8.22 21.43 8.66Q21.03 9.09 21.03 9.88L21.03 9.88L21.03 11.87Q21.03 12.66 21.43 13.10Q21.82 13.53 22.55 13.53ZM31.52 15.15L31.52 15.15Q30.46 15.15 29.68 14.74Q28.91 14.34 28.48 13.60Q28.05 12.86 28.05 11.85L28.05 11.85L28.05 9.90Q28.05 8.89 28.48 8.15Q28.91 7.41 29.68 7.00Q30.46 6.60 31.52 6.60L31.52 6.60Q32.55 6.60 33.32 7.00Q34.09 7.41 34.52 8.14Q34.95 8.87 34.95 9.84L34.95 9.84L34.95 11.34L29.85 11.34L29.85 11.91Q29.85 12.75 30.29 13.18Q30.72 13.61 31.52 13.61L31.52 13.61Q32.10 13.61 32.51 13.40Q32.92 13.20 33 12.81L33 12.81L34.86 12.81Q34.66 13.88 33.75 14.51Q32.84 15.15 31.52 15.15ZM29.85 9.84L29.85 9.84L29.85 10.13L33.15 10.11L33.15 9.82Q33.15 8.97 32.73 8.50Q32.31 8.04 31.52 8.04L31.52 8.04Q30.69 8.04 30.27 8.51Q29.85 8.98 29.85 9.84ZM40.55 15.15L40.55 15.15Q39.44 15.15 38.60 14.76Q37.77 14.37 37.31 13.64Q36.85 12.91 36.85 11.91L36.85 11.91L38.70 11.91Q38.70 12.64 39.20 13.08Q39.70 13.52 40.55 13.52L40.55 13.52Q41.35 13.52 41.83 13.09Q42.30 12.66 42.30 11.94L42.30 11.94Q42.30 11.40 41.99 10.99Q41.69 10.57 41.12 10.43L41.12 10.43L39.65 10.05Q38.46 9.75 37.77 8.93Q37.08 8.10 37.08 6.96L37.08 6.96Q37.08 5.56 37.99 4.73Q38.91 3.90 40.44 3.90L40.44 3.90Q41.48 3.90 42.25 4.28Q43.02 4.65 43.44 5.33Q43.86 6.02 43.86 6.93L43.86 6.93L42.03 6.93Q42.03 6.30 41.59 5.91Q41.16 5.52 40.44 5.52L40.44 5.52Q39.73 5.52 39.32 5.90Q38.91 6.29 38.91 6.90L38.91 6.90Q38.91 7.41 39.20 7.74Q39.49 8.07 40.02 8.22L40.02 8.22L41.53 8.60Q42.75 8.89 43.45 9.79Q44.14 10.70 44.14 11.94L44.14 11.94Q44.14 12.91 43.70 13.63Q43.26 14.36 42.45 14.75Q41.64 15.15 40.55 15.15ZM49.63 15.15L49.63 15.15Q48.57 15.15 47.78 14.75Q46.99 14.36 46.56 13.63Q46.13 12.90 46.13 11.91L46.13 11.91L46.13 9.84Q46.13 8.85 46.56 8.12Q46.99 7.40 47.78 7.00Q48.57 6.60 49.63 6.60L49.63 6.60Q51.18 6.60 52.12 7.40Q53.05 8.21 53.10 9.59L53.10 9.59L51.26 9.59Q51.21 8.94 50.77 8.59Q50.33 8.23 49.63 8.23L49.63 8.23Q48.87 8.23 48.44 8.65Q48 9.06 48 9.82L48 9.82L48 11.91Q48 12.68 48.44 13.10Q48.87 13.52 49.63 13.52L49.63 13.52Q50.34 13.52 50.77 13.16Q51.21 12.81 51.26 12.16L51.26 12.16L53.10 12.16Q53.05 13.54 52.12 14.35Q51.18 15.15 49.63 15.15ZM57.33 15L55.45 15L55.45 6.75L57.28 6.75L57.28 8.36Q57.44 7.54 58.03 7.07Q58.62 6.60 59.56 6.60L59.56 6.60Q60.83 6.60 61.53 7.41Q62.23 8.22 62.23 9.68L62.23 9.68L62.23 10.46L60.36 10.46L60.36 9.77Q60.36 9.02 59.97 8.62Q59.58 8.22 58.86 8.22L58.86 8.22Q58.11 8.22 57.72 8.67Q57.33 9.12 57.33 9.95L57.33 9.95L57.33 15ZM71.37 15L64.14 15L64.14 13.30L66.96 13.30L66.96 8.45L64.44 8.45L64.44 6.75L68.83 6.75L68.83 13.30L71.37 13.30L71.37 15ZM67.77 5.37L67.77 5.37Q67.20 5.37 66.87 5.08Q66.54 4.79 66.54 4.29L66.54 4.29Q66.54 3.79 66.87 3.50Q67.20 3.21 67.77 3.21L67.77 3.21Q68.34 3.21 68.67 3.50Q69 3.79 69 4.29L69 4.29Q69 4.79 68.67 5.08Q68.34 5.37 67.77 5.37ZM75.03 17.70L73.16 17.70L73.16 6.75L74.98 6.75L74.98 8.27Q75.21 7.49 75.80 7.04Q76.38 6.60 77.25 6.60L77.25 6.60Q78.05 6.60 78.65 6.99Q79.26 7.38 79.60 8.09Q79.94 8.80 79.94 9.75L79.94 9.75L79.94 11.98Q79.94 13.41 79.20 14.28Q78.47 15.15 77.25 15.15L77.25 15.15Q76.38 15.15 75.79 14.70Q75.19 14.25 74.97 13.44L74.97 13.44L75.03 15.39L75.03 17.70ZM76.55 13.53L76.55 13.53Q77.27 13.53 77.66 13.14Q78.06 12.75 78.06 11.94L78.06 11.94L78.06 9.81Q78.06 9 77.66 8.61Q77.27 8.22 76.55 8.22L76.55 8.22Q75.83 8.22 75.43 8.66Q75.03 9.09 75.03 9.88L75.03 9.88L75.03 11.87Q75.03 12.66 75.43 13.10Q75.83 13.53 76.55 13.53ZM88.91 15L86.33 15Q85.17 15 84.49 14.33Q83.81 13.66 83.81 12.53L83.81 12.53L83.81 8.45L81.53 8.45L81.53 6.75L83.81 6.75L83.81 4.43L85.69 4.43L85.69 6.75L88.98 6.75L88.98 8.45L85.69 8.45L85.69 12.48Q85.69 12.84 85.90 13.07Q86.10 13.30 86.46 13.30L86.46 13.30L88.91 13.30L88.91 15Z"/></svg>
</svg>