<svg viewBox="0 0 93.8130348304732 25" width="93.8130348304732" height="25" xmlns="http://www.w3.org/2000/svg">
<rect x="0.5" y="0.5" width="92.8130348304732" height="24" rx="12" fill="#ffffff" stroke="#eeeeee"/>
<svg xmlns="http://www.w3.org/2000/svg" viewBox="0 0 18.664 21.619" x="11" y="4.5" width="13.813034830473196" height="16"><path fill="#2396f3" d="M12.733 2.073 9.165 0 5.442 2.313l3.618 2 3.674-2.238Zm1.706.893-3.684 2.241 4.176 2.414V14L9.3 17.2 3.733 14V9.021L0 7.167v9.008l9.165 5.444 9.5-5.4V5.406l-4.225-2.44Z"/></svg>
<svg xmlns="http://www.w3.org/2000/svg" xmlns:xlink="http://www.w3.org/1999/xlink" width="54" height="19.8" x="29.813034830473196" y="2.5"><path fill="#000000" d="M4.50 15.15L4.50 15.15Q2.90 15.15 1.99 14.27Q1.08 13.39 1.08 11.88L1.08 11.88L1.08 4.05L2.97 4.05L2.97 11.87Q2.97 12.64 3.36 13.08Q3.75 13.52 4.50 13.52L4.50 13.52Q5.23 13.52 5.63 13.08Q6.03 12.64 6.03 11.87L6.03 11.87L6.03 4.05L7.92 4.05L7.92 11.88Q7.92 13.39 7.02 14.27Q6.12 15.15 4.50 15.15ZM16.65 15L10.35 15L10.35 13.30L12.55 13.30L12.55 5.75L10.35 5.75L10.35 4.05L16.65 4.05L16.65 5.75L14.45 5.75L14.45 13.30L16.65 13.30L16.65 15ZM30.02 15L28.14 15L28.14 4.05L30.02 4.05L30.02 8.52L31.30 8.52L33.39 4.05L35.41 4.05L32.95 9.27L35.53 15L33.45 15L31.29 10.16L30.02 10.16L30.02 15ZM44.37 15L37.14 15L37.14 13.30L39.96 13.30L39.96 8.45L37.44 8.45L37.44 6.75L41.84 6.75L41.84 13.30L44.37 13.30L44.37 15ZM40.77 5.37L40.77 5.37Q40.20 5.37 39.87 5.08Q39.54 4.79 39.54 4.29L39.54 4.29Q39.54 3.79 39.87 3.50Q40.20 3.21 40.77 3.21L40.77 3.21Q41.34 3.21 41.67 3.50Q42 3.79 42 4.29L42 4.29Q42 4.79 41.67 5.08Q41.34 5.37 40.77 5.37ZM52.91 15L50.33 15Q49.17 15 48.49 14.33Q47.80 13.66 47.80 12.53L47.80 12.53L47.80 8.45L45.52 8.45L45.52 6.75L47.80 6.75L47.80 4.43L49.70 4.43L49.70 6.75L52.98 6.75L52.98 8.45L49.70 8.45L49.70 12.48Q49.70 12.84 49.90 13.07Q50.10 13.30 50.46 13.30L50.46 13.30L52.91 13.30L52.91 15Z"/></svg>
</svg>