<svg viewBox="0 0 98.47453318995014 25" width="98.47453318995014" height="25" xmlns="http://www.w3.org/2000/svg">
<rect x="0.5" y="0.5" width="97.47453318995014" height="24" rx="12" fill="#ffffff" stroke="#eeeeee"/>
<svg xmlns="http://www.w3.org/2000/svg" viewBox="0 0 23.622 20.458" x="11" y="4.500000000000001" width="18.47453318995014" height="15.999999999999998"><path fill="#41b883" d="M14.538 0 11.81 4.724 9.083 0H.001l11.811 20.458L23.622 0Z"/><path fill="#34495e" d="m14.545 0-2.733 4.734L9.078 0H4.71l7.1 12.3L18.91 0Z"/></svg>
<svg xmlns="http://www.w3.org/2000/svg" xmlns:xlink="http://www.w3.org/1999/xlink" width="54" height="19.8" x="34.47453318995014" y="2.5"><path fill="#000000" d="M5.71 15L3.28 15L0.53 4.05L2.46 4.05L4.13 11.19Q4.26 11.71 4.37 12.32Q4.48 12.93 4.54 13.29L4.54 13.29Q4.60 12.93 4.72 12.32Q4.83 11.71 4.96 11.18L4.96 11.18L6.57 4.05L8.47 4.05L5.71 15ZM13.50 15.15L13.50 15.15Q11.93 15.15 11.03 14.27Q10.13 13.39 10.13 11.88L10.13 11.88L10.13 6.75L12 6.75L12 11.87Q12 12.64 12.39 13.08Q12.78 13.52 13.50 13.52L13.50 13.52Q14.21 13.52 14.60 13.08Q15 12.64 15 11.87L15 11.87L15 6.75L16.88 6.75L16.88 11.88Q16.88 13.39 15.96 14.27Q15.04 15.15 13.50 15.15ZM22.52 15.15L22.52 15.15Q21.46 15.15 20.68 14.74Q19.91 14.34 19.48 13.60Q19.05 12.86 19.05 11.85L19.05 11.85L19.05 9.90Q19.05 8.89 19.48 8.15Q19.91 7.41 20.68 7.00Q21.46 6.60 22.52 6.60L22.52 6.60Q23.55 6.60 24.32 7.00Q25.09 7.41 25.52 8.14Q25.95 8.87 25.95 9.84L25.95 9.84L25.95 11.34L20.85 11.34L20.85 11.91Q20.85 12.75 21.29 13.18Q21.72 13.61 22.52 13.61L22.52 13.61Q23.10 13.61 23.51 13.40Q23.93 13.20 24 12.81L24 12.81L25.86 12.81Q25.66 13.88 24.75 14.51Q23.84 15.15 22.52 15.15ZM20.85 9.84L20.85 9.84L20.85 10.13L24.15 10.11L24.15 9.82Q24.15 8.97 23.73 8.50Q23.31 8.04 22.52 8.04L22.52 8.04Q21.69 8.04 21.27 8.51Q20.85 8.98 20.85 9.84ZM31.50 15.15L31.50 15.15Q30.87 15.15 30.49 14.77Q30.11 14.38 30.11 13.77L30.11 13.77Q30.11 13.15 30.49 12.77Q30.87 12.38 31.50 12.38L31.50 12.38Q32.13 12.38 32.51 12.77Q32.89 13.15 32.89 13.77L32.89 13.77Q32.89 14.38 32.51 14.77Q32.13 15.15 31.50 15.15ZM39.49 17.70L37.22 17.70L37.22 16.00L39.39 16.00Q40.11 16.00 40.53 15.58Q40.95 15.15 40.95 14.41L40.95 14.41L40.95 8.45L37.14 8.45L37.14 6.75L42.83 6.75L42.83 14.46Q42.83 15.96 41.92 16.83Q41.02 17.70 39.49 17.70L39.49 17.70ZM41.79 5.37L41.79 5.37Q41.22 5.37 40.89 5.08Q40.56 4.79 40.56 4.29L40.56 4.29Q40.56 3.79 40.89 3.50Q41.22 3.21 41.79 3.21L41.79 3.21Q42.36 3.21 42.69 3.50Q43.02 3.79 43.02 4.29L43.02 4.29Q43.02 4.79 42.69 5.08Q42.36 5.37 41.79 5.37ZM49.81 15.13L49.16 15.13Q47.69 15.13 46.83 14.47Q45.98 13.80 45.98 12.66L45.98 12.66L47.82 12.66Q47.82 13.14 48.17 13.39Q48.52 13.65 49.16 13.65L49.16 13.65L49.81 13.65Q50.49 13.65 50.86 13.39Q51.23 13.14 51.23 12.66L51.23 12.66Q51.23 12.21 50.97 11.99Q50.72 11.78 50.19 11.70L50.19 11.70L48.13 11.43Q47.15 11.29 46.61 10.66Q46.08 10.04 46.08 9.03L46.08 9.03Q46.08 7.86 46.86 7.24Q47.64 6.62 49.11 6.62L49.11 6.62L49.80 6.62Q51.18 6.62 52.02 7.25Q52.86 7.88 52.89 8.93L52.89 8.93L51.03 8.93Q51.02 8.54 50.69 8.30Q50.35 8.07 49.80 8.07L49.80 8.07L49.11 8.07Q48.51 8.07 48.20 8.32Q47.88 8.57 47.88 8.98L47.88 8.98Q47.88 9.36 48.11 9.54Q48.34 9.72 48.80 9.77L48.80 9.77L50.73 10.04Q51.87 10.17 52.45 10.84Q53.02 11.51 53.02 12.63L53.02 12.63Q53.02 13.83 52.21 14.48Q51.39 15.13 49.81 15.13L49.81 15.13Z"/></svg>
</svg>