<svg viewBox="0 0 96.40470273485138 25" width="96.40470273485138" height="25" xmlns="http://www.w3.org/2000/svg">
<rect x="0.5" y="0.5" width="95.40470273485138" height="24" rx="4.5" fill="#292A2D" stroke="#606366"/>
<svg xmlns="http://www.w3.org/2000/svg" viewBox="0 0 1024 998.738" x="11" y="4.500000000000001" width="16.40470273485138" height="15.999999999999998"><path fill="#1b1f23" fill-rule="evenodd" d="M512 0C229.12 0 0 229.12 0 512c0 226.56 146.56 417.92 350.08 485.76 25.6 4.48 35.2-10.88 35.2-24.32 0-12.16-.64-52.48-.64-95.36-128.64 23.68-161.92-31.36-172.16-60.16-5.76-14.72-30.72-60.16-52.48-72.32-17.92-9.6-43.52-33.28-.64-33.92 40.32-.64 69.12 37.12 78.72 52.48 46.08 77.44 119.68 55.68 149.12 42.24 4.48-33.28 17.92-55.68 32.64-68.48-113.92-12.8-232.96-56.96-232.96-252.8 0-55.68 19.84-101.76 52.48-137.6-5.12-12.8-23.04-65.28 5.12-135.68 0 0 42.88-13.44 140.8 52.48a482.714 482.714 0 0 1 256 0c97.92-66.56 140.8-52.48 140.8-52.48 28.16 70.4 10.24 122.88 5.12 135.68 32.64 35.84 52.48 81.28 52.48 137.6 0 196.48-119.68 240-233.6 252.8 18.56 16 34.56 46.72 34.56 94.72 0 68.48-.64 123.52-.64 140.8 0 13.44 9.6 29.44 35.2 24.32C877.44 929.92 1024 737.92 1024 512 1024 229.12 794.88 0 512 0Z"/></svg>
<svg xmlns="http://www.w3.org/2000/svg" xmlns:xlink="http://www.w3.org/1999/xlink" width="54" height="19.8" x="32.404702734851384" y="2.5"><path fill="#ffffff" d="M4.56 15.15L4.56 15.15Q3.49 15.15 2.71 14.75Q1.93 14.36 1.51 13.63Q1.08 12.90 1.08 11.91L1.08 11.91L1.08 7.14Q1.08 6.15 1.51 5.42Q1.93 4.70 2.71 4.30Q3.49 3.90 4.56 3.90L4.56 3.90Q5.61 3.90 6.39 4.30Q7.17 4.70 7.60 5.42Q8.04 6.15 8.04 7.14L8.04 7.14L6.15 7.14Q6.15 6.38 5.74 5.96Q5.33 5.55 4.56 5.55L4.56 5.55Q3.79 5.55 3.38 5.96Q2.96 6.36 2.96 7.13L2.96 7.13L2.96 11.91Q2.96 12.68 3.38 13.10Q3.79 13.52 4.56 13.52L4.56 13.52Q5.33 13.52 5.74 13.10Q6.15 12.68 6.15 11.91L6.15 11.91L6.15 10.70L4.29 10.70L4.29 9.07L8.04 9.07L8.04 11.91Q8.04 12.90 7.60 13.63Q7.17 14.36 6.39 14.75Q5.61 15.15 4.56 15.15ZM17.37 15L10.14 15L10.14 13.30L12.96 13.30L12.96 8.45L10.44 8.45L10.44 6.75L14.84 6.75L14.84 13.30L17.37 13.30L17.37 15ZM13.77 5.37L13.77 5.37Q13.20 5.37 12.87 5.08Q12.54 4.79 12.54 4.29L12.54 4.29Q12.54 3.79 12.87 3.50Q13.20 3.21 13.77 3.21L13.77 3.21Q14.34 3.21 14.67 3.50Q15 3.79 15 4.29L15 4.29Q15 4.79 14.67 5.08Q14.34 5.37 13.77 5.37ZM25.91 15L23.32 15Q22.17 15 21.49 14.33Q20.80 13.66 20.80 12.53L20.80 12.53L20.80 8.45L18.52 8.45L18.52 6.75L20.80 6.75L20.80 4.43L22.70 4.43L22.70 6.75L25.98 6.75L25.98 8.45L22.70 8.45L22.70 12.48Q22.70 12.84 22.90 13.07Q23.10 13.30 23.46 13.30L23.46 13.30L25.91 13.30L25.91 15ZM30.03 15L28.16 15L28.16 4.05L30.03 4.05L30.03 8.49L32.97 8.49L32.97 4.05L34.84 4.05L34.84 15L32.97 15L32.97 10.19L30.03 10.19L30.03 15ZM40.50 15.15L40.50 15.15Q38.92 15.15 38.02 14.27Q37.13 13.39 37.13 11.88L37.13 11.88L37.13 6.75L39 6.75L39 11.87Q39 12.64 39.39 13.08Q39.78 13.52 40.50 13.52L40.50 13.52Q41.20 13.52 41.60 13.08Q42 12.64 42 11.87L42 11.87L42 6.75L43.88 6.75L43.88 11.88Q43.88 13.39 42.96 14.27Q42.05 15.15 40.50 15.15ZM50.25 15.15L50.25 15.15Q49.38 15.15 48.80 14.71Q48.21 14.28 47.98 13.50L47.98 13.50L47.98 15L46.16 15L46.16 4.05L48.03 4.05L48.03 6.36L47.97 8.25Q48.21 7.47 48.80 7.04Q49.39 6.60 50.25 6.60L50.25 6.60Q51.47 6.60 52.20 7.46Q52.94 8.31 52.94 9.77L52.94 9.77L52.94 12Q52.94 13.44 52.19 14.29Q51.45 15.15 50.25 15.15ZM49.55 13.53L49.55 13.53Q50.27 13.53 50.66 13.14Q51.06 12.75 51.06 11.94L51.06 11.94L51.06 9.81Q51.06 9 50.66 8.61Q50.27 8.22 49.55 8.22L49.55 8.22Q48.83 8.22 48.43 8.66Q48.03 9.09 48.03 9.88L48.03 9.88L48.03 11.87Q48.03 12.66 48.43 13.10Q48.83 13.53 49.55 13.53Z"/></svg>
</svg>