<svg viewBox="0 0 118.59255093113362 25" width="118.59255093113362" height="25" xmlns="http://www.w3.org/2000/svg">
<rect x="0.5" y="0.5" width="117.59255093113362" height="24" rx="4.5" fill="#292A2D" stroke="#606366"/>
<svg xmlns="http://www.w3.org/2000/svg" viewBox="0 0 11.594 16.002" x="11" y="4.5" width="11.592550931133609" height="16"><path fill="#ff3c00" d="M5.801 0c.516.029.93.034 1.339.074a9.345 9.345 0 0 1 2.779.671 3.617 3.617 0 0 1 1.378.934.968.968 0 0 1 .045 1.347 2.7 2.7 0 0 1-.491.464 5.709 5.709 0 0 1-1.905.866 11.377 11.377 0 0 1-3.676.384 17.526 17.526 0 0 1-1.815-.218 6.9 6.9 0 0 1-1.956-.613 3.33 3.33 0 0 1-1.11-.78.951.951 0 0 1-.2-1.2 2.2 2.2 0 0 1 .5-.573 4.339 4.339 0 0 1 1.552-.8c.5-.149 1.008-.269 1.518-.384a4.455 4.455 0 0 1 .622-.08C4.893.051 5.398.023 5.801 0Zm5.721 8.4c.006.08.017.138.017.195v1.332a1.693 1.693 0 0 1-.6 1.3 5.072 5.072 0 0 1-1.855 1c-.756.252-1.524.47-2.291.682-.723.195-1.463.355-2.185.545a15.385 15.385 0 0 0-2.986 1.031q-.276.139-.538.3a.2.2 0 0 1-.258-.006 7.008 7.008 0 0 1-.527-.47 1.2 1.2 0 0 1-.123-1.41 2.618 2.618 0 0 1 1.171-1.089 9.61 9.61 0 0 1 2.275-.86c.807-.212 1.619-.4 2.431-.608.639-.16 1.278-.321 1.917-.475a11.9 11.9 0 0 0 2.151-.71c.409-.184.79-.43 1.182-.648.051-.029.1-.063.146-.092a.772.772 0 0 1 .078-.023Zm.017-2.82c0 .2-.006.4 0 .6a1.671 1.671 0 0 1-.774 1.5 6.311 6.311 0 0 1-1.86.877c-.56.178-1.126.338-1.692.487-.644.166-1.288.3-1.933.458-.421.1-.846.207-1.261.315-.443.115-.885.235-1.323.373a8 8 0 0 0-2.5 1.192.754.754 0 0 1-.157.069.935.935 0 0 1-.033-.178 3.516 3.516 0 0 1 .545-2.051 4.226 4.226 0 0 1 1.328-1.249 8.726 8.726 0 0 1 2.207-.963c.751-.217 1.513-.418 2.269-.613.784-.206 1.58-.384 2.365-.6a8.565 8.565 0 0 0 2.219-.849c.146-.086.28-.189.42-.281a.559.559 0 0 1 .135-.057.63.63 0 0 1 .045.143c.005.27 0 .545 0 .826Zm-.023 6.511a1.318 1.318 0 0 1 .023.172v1.318a1.35 1.35 0 0 1-.555 1 4.418 4.418 0 0 1-1.322.756 8.657 8.657 0 0 1-1.765.482A12.316 12.316 0 0 1 5.516 16c-.207-.006-.409-.012-.616-.029a10.993 10.993 0 0 1-2.249-.371c-.179-.051-.359-.115-.538-.178v-.057c.118-.057.236-.12.359-.172a15.636 15.636 0 0 1 2.252-.722l2.4-.6a20.723 20.723 0 0 0 2.734-.854 5.915 5.915 0 0 0 1.474-.814 1.437 1.437 0 0 1 .179-.109Zm0 0"/></svg>
<svg xmlns="http://www.w3.org/2000/svg" xmlns:xlink="http://www.w3.org/1999/xlink" width="81" height="19.8" x="27.59255093113361" y="2.5"><path fill="#ffffff" d="M8.34 15L1.81 15L1.81 4.05L3.69 4.05L3.69 13.30L8.34 13.30L8.34 15ZM17.37 15L10.14 15L10.14 13.30L12.96 13.30L12.96 8.45L10.44 8.45L10.44 6.75L14.84 6.75L14.84 13.30L17.37 13.30L17.37 15ZM13.77 5.37L13.77 5.37Q13.20 5.37 12.87 5.08Q12.54 4.79 12.54 4.29L12.54 4.29Q12.54 3.79 12.87 3.50Q13.20 3.21 13.77 3.21L13.77 3.21Q14.34 3.21 14.67 3.50Q15 3.79 15 4.29L15 4.29Q15 4.79 14.67 5.08Q14.34 5.37 13.77 5.37ZM25.84 17.70L23.97 17.70L23.97 15.39L24.03 13.52L24.02 13.52Q23.77 14.28 23.19 14.71Q22.61 15.15 21.75 15.15L21.75 15.15Q20.54 15.15 19.80 14.29Q19.07 13.44 19.07 11.98L19.07 11.98L19.07 9.75Q19.07 8.31 19.81 7.46Q20.55 6.60 21.75 6.60L21.75 6.60Q22.62 6.60 23.20 7.04Q23.79 7.47 24.02 8.25L24.02 8.25L24.02 6.75L25.84 6.75L25.84 17.70ZM22.45 13.53L22.45 13.53Q23.18 13.53 23.57 13.10Q23.97 12.66 23.97 11.87L23.97 11.87L23.97 9.88Q23.97 9.09 23.57 8.66Q23.18 8.22 22.45 8.22L22.45 8.22Q21.73 8.22 21.34 8.61Q20.94 9 20.94 9.78L20.94 9.78L20.94 11.97Q20.94 12.75 21.34 13.14Q21.73 13.53 22.45 13.53ZM31.50 15.15L31.50 15.15Q29.93 15.15 29.02 14.27Q28.13 13.39 28.13 11.88L28.13 11.88L28.13 6.75L30 6.75L30 11.87Q30 12.64 30.39 13.08Q30.78 13.52 31.50 13.52L31.50 13.52Q32.20 13.52 32.60 13.08Q33 12.64 33 11.87L33 11.87L33 6.75L34.88 6.75L34.88 11.88Q34.88 13.39 33.96 14.27Q33.05 15.15 31.50 15.15ZM44.37 15L37.14 15L37.14 13.30L39.96 13.30L39.96 8.45L37.44 8.45L37.44 6.75L41.84 6.75L41.84 13.30L44.37 13.30L44.37 15ZM40.77 5.37L40.77 5.37Q40.20 5.37 39.87 5.08Q39.54 4.79 39.54 4.29L39.54 4.29Q39.54 3.79 39.87 3.50Q40.20 3.21 40.77 3.21L40.77 3.21Q41.34 3.21 41.67 3.50Q42 3.79 42 4.29L42 4.29Q42 4.79 41.67 5.08Q41.34 5.37 40.77 5.37ZM50.25 15.15L50.25 15.15Q49.38 15.15 48.80 14.71Q48.21 14.28 47.98 13.50L47.98 13.50L47.98 15L46.16 15L46.16 4.05L48.03 4.05L48.03 6.36L47.97 8.25Q48.21 7.47 48.80 7.04Q49.39 6.60 50.25 6.60L50.25 6.60Q51.47 6.60 52.20 7.46Q52.94 8.31 52.94 9.77L52.94 9.77L52.94 12Q52.94 13.44 52.19 14.29Q51.45 15.15 50.25 15.15ZM49.55 13.53L49.55 13.53Q50.27 13.53 50.66 13.14Q51.06 12.75 51.06 11.94L51.06 11.94L51.06 9.81Q51.06 9 50.66 8.61Q50.27 8.22 49.55 8.22L49.55 8.22Q48.83 8.22 48.43 8.66Q48.03 9.09 48.03 9.88L48.03 9.88L48.03 11.87Q48.03 12.66 48.43 13.10Q48.83 13.53 49.55 13.53ZM57.59 15.15L57.59 15.15Q56.33 15.15 55.60 14.44Q54.87 13.72 54.87 12.57L54.87 12.57Q54.87 11.37 55.70 10.66Q56.52 9.95 57.96 9.95L57.96 9.95L59.97 9.95L59.97 9.36Q59.97 8.12 58.52 8.12L58.52 8.12Q57.85 8.12 57.47 8.37Q57.08 8.63 57.03 9.09L57.03 9.09L55.23 9.09Q55.29 7.98 56.17 7.29Q57.05 6.60 58.53 6.60L58.53 6.60Q60.10 6.60 60.98 7.33Q61.84 8.07 61.84 9.41L61.84 9.41L61.84 15L60.02 15L60.02 13.46Q59.91 14.25 59.27 14.70Q58.62 15.15 57.59 15.15ZM58.19 13.62L58.19 13.62Q59.01 13.62 59.49 13.21Q59.97 12.81 59.97 12.13L59.97 12.13L59.97 11.16L58.05 11.16Q57.44 11.16 57.08 11.51Q56.72 11.85 56.72 12.39L56.72 12.39Q56.72 12.95 57.10 13.28Q57.48 13.62 58.19 13.62ZM67.81 15.13L67.16 15.13Q65.69 15.13 64.83 14.47Q63.98 13.80 63.98 12.66L63.98 12.66L65.82 12.66Q65.82 13.14 66.17 13.39Q66.53 13.65 67.16 13.65L67.16 13.65L67.81 13.65Q68.49 13.65 68.86 13.39Q69.22 13.14 69.22 12.66L69.22 12.66Q69.22 12.21 68.97 11.99Q68.72 11.78 68.19 11.70L68.19 11.70L66.14 11.43Q65.14 11.29 64.61 10.66Q64.08 10.04 64.08 9.03L64.08 9.03Q64.08 7.86 64.86 7.24Q65.64 6.62 67.11 6.62L67.11 6.62L67.80 6.62Q69.18 6.62 70.02 7.25Q70.86 7.88 70.89 8.93L70.89 8.93L69.03 8.93Q69.02 8.54 68.69 8.30Q68.36 8.07 67.80 8.07L67.80 8.07L67.11 8.07Q66.51 8.07 66.19 8.32Q65.88 8.57 65.88 8.98L65.88 8.98Q65.88 9.36 66.11 9.54Q66.34 9.72 66.80 9.77L66.80 9.77L68.73 10.04Q69.87 10.17 70.45 10.84Q71.03 11.51 71.03 12.63L71.03 12.63Q71.03 13.83 70.21 14.48Q69.39 15.13 67.81 15.13L67.81 15.13ZM76.52 15.15L76.52 15.15Q75.47 15.15 74.69 14.74Q73.91 14.34 73.48 13.60Q73.05 12.86 73.05 11.85L73.05 11.85L73.05 9.90Q73.05 8.89 73.48 8.15Q73.91 7.41 74.69 7.00Q75.47 6.60 76.52 6.60L76.52 6.60Q77.55 6.60 78.32 7.00Q79.09 7.41 79.52 8.14Q79.95 8.87 79.95 9.84L79.95 9.84L79.95 11.34L74.85 11.34L74.85 11.91Q74.85 12.75 75.28 13.18Q75.72 13.61 76.52 13.61L76.52 13.61Q77.10 13.61 77.51 13.40Q77.92 13.20 78 12.81L78 12.81L79.86 12.81Q79.67 13.88 78.75 14.51Q77.83 15.15 76.52 15.15ZM74.85 9.84L74.85 9.84L74.85 10.13L78.15 10.11L78.15 9.82Q78.15 8.97 77.73 8.50Q77.31 8.04 76.52 8.04L76.52 8.04Q75.69 8.04 75.27 8.51Q74.85 8.98 74.85 9.84Z"/></svg>
</svg>