<svg viewBox="0 0 89.66971428571428 25" width="89.66971428571428" height="25" xmlns="http://www.w3.org/2000/svg">
<rect x="0.5" y="0.5" width="88.66971428571428" height="24" rx="4.5" fill="#292A2D" stroke="#606366"/>
<svg xmlns="http://www.w3.org/2000/svg" viewBox="0 0 16.336 14" x="11" y="4.5" width="18.66971428571428" height="16"><defs><clipPath id="a"><path fill="none" d="M0 0h16.336v14H0z"/></clipPath></defs><g clip-path="url(#a)"><path fill="#a32422" d="M15.694 10.794c-.87.455-5.387 2.313-6.36 2.823a2.126 2.126 0 0 1-2.255.132c-.761-.365-5.55-2.311-6.418-2.728-.438-.205-.661-.383-.661-.544V8.824S6.257 7.466 7.267 7.1a2.544 2.544 0 0 1 2.217-.06c.858.315 6 1.243 6.85 1.551v1.629c0 .17-.2.335-.64.572Z"/><path fill="#dc382c" d="M15.694 9.148c-.87.453-5.387 2.311-6.36 2.812a2.148 2.148 0 0 1-2.255.134C6.318 11.731 1.528 9.783.66 9.372s-.885-.7-.033-1.032 5.63-2.2 6.64-2.572a2.533 2.533 0 0 1 2.217-.06c.858.316 5.355 2.1 6.2 2.413s.884.567.01 1.019Z"/><path fill="#a32422" d="M15.694 8.102c-.87.454-5.387 2.311-6.36 2.812a2.135 2.135 0 0 1-2.25.132c-.761-.365-5.555-2.3-6.423-2.716C.223 8.122 0 7.948 0 7.783V6.136s6.257-1.361 7.267-1.728a2.528 2.528 0 0 1 2.217-.057c.858.319 6 1.238 6.85 1.549v1.629c0 .169-.195.339-.64.573Z"/><path fill="#dc382c" d="M15.693 6.445c-.87.455-5.387 2.312-6.36 2.813a2.146 2.146 0 0 1-2.255.134c-.761-.364-5.551-2.3-6.419-2.719s-.884-.7-.033-1.03 5.63-2.208 6.64-2.566a2.585 2.585 0 0 1 2.217-.069c.858.311 5.355 2.113 6.2 2.416s.884.568.01 1.019Z"/><path fill="#a32422" d="M15.694 5.306c-.87.455-5.387 2.313-6.36 2.813a2.143 2.143 0 0 1-2.25.134C6.323 7.89 1.529 5.948.661 5.534.223 5.334 0 5.157 0 4.992V3.34s6.257-1.358 7.267-1.723a2.548 2.548 0 0 1 2.217-.061c.858.315 6 1.243 6.848 1.553v1.629c.002.168-.193.339-.638.568Z"/><path fill="#dc382c" d="M15.694 3.659c-.87.446-5.387 2.315-6.36 2.812a2.161 2.161 0 0 1-2.255.134c-.761-.362-5.55-2.307-6.418-2.719s-.885-.7-.033-1.032S6.257.647 7.267.283a2.552 2.552 0 0 1 2.217-.06c.858.315 5.355 2.1 6.2 2.413s.884.568.01 1.02Z"/></g><path fill="#fff" d="M8.424 1.314 9.499.96l-.292.7 1.1.411-1.414.147-.318.763-.511-.851-1.635-.149 1.221-.44-.367-.676 1.141.449ZM8.492 5.768l-2.642-1.1 3.785-.581-1.142 1.678ZM4.829 2.493c1.116 0 2.023.351 2.023.781s-.909.781-2.023.781-2.024-.351-2.024-.781.907-.781 2.024-.781Z"/><path fill="#741113" d="m11.981 2.277 2.239.885-2.237.885v-1.77Z"/><path fill="#ac2724" d="M11.98 2.277v1.77l-.243.095-2.236-.885Z"/></svg>
<svg xmlns="http://www.w3.org/2000/svg" xmlns:xlink="http://www.w3.org/1999/xlink" width="45" height="19.8" x="34.66971428571428" y="2.5"><path fill="#ffffff" d="M3.01 15L1.16 15L1.16 4.05L4.60 4.05Q5.70 4.05 6.50 4.46Q7.30 4.86 7.75 5.59Q8.21 6.31 8.21 7.31L8.21 7.31Q8.21 8.40 7.67 9.22Q7.13 10.04 6.21 10.38L6.21 10.38L8.36 15L6.30 15L4.38 10.65L3.01 10.65L3.01 15ZM3.01 5.70L3.01 9L4.60 9Q5.40 9 5.85 8.57Q6.30 8.13 6.30 7.37L6.30 7.37Q6.30 6.60 5.84 6.15Q5.38 5.70 4.60 5.70L4.60 5.70L3.01 5.70ZM13.52 15.15L13.52 15.15Q12.46 15.15 11.69 14.74Q10.90 14.34 10.48 13.60Q10.05 12.86 10.05 11.85L10.05 11.85L10.05 9.90Q10.05 8.89 10.48 8.15Q10.90 7.41 11.69 7.00Q12.46 6.60 13.52 6.60L13.52 6.60Q14.55 6.60 15.32 7.00Q16.09 7.41 16.52 8.14Q16.95 8.87 16.95 9.84L16.95 9.84L16.95 11.34L11.85 11.34L11.85 11.91Q11.85 12.75 12.29 13.18Q12.72 13.61 13.52 13.61L13.52 13.61Q14.10 13.61 14.51 13.40Q14.93 13.20 15 12.81L15 12.81L16.86 12.81Q16.66 13.88 15.75 14.51Q14.84 15.15 13.52 15.15ZM11.85 9.84L11.85 9.84L11.85 10.13L15.15 10.11L15.15 9.82Q15.15 8.97 14.73 8.50Q14.31 8.04 13.52 8.04L13.52 8.04Q12.69 8.04 12.27 8.51Q11.85 8.98 11.85 9.84ZM21.75 15.15L21.75 15.15Q20.55 15.15 19.81 14.29Q19.07 13.44 19.07 12L19.07 12L19.07 9.77Q19.07 8.31 19.80 7.46Q20.54 6.60 21.75 6.60L21.75 6.60Q22.61 6.60 23.20 7.04Q23.79 7.47 24.03 8.25L24.03 8.25L23.97 6.36L23.97 4.05L25.84 4.05L25.84 15L24.02 15L24.02 13.50Q23.79 14.28 23.20 14.71Q22.62 15.15 21.75 15.15ZM22.45 13.53L22.45 13.53Q23.18 13.53 23.57 13.10Q23.97 12.66 23.97 11.87L23.97 11.87L23.97 9.88Q23.97 9.09 23.57 8.66Q23.18 8.22 22.45 8.22L22.45 8.22Q21.73 8.22 21.34 8.61Q20.94 9 20.94 9.81L20.94 9.81L20.94 11.94Q20.94 12.75 21.34 13.14Q21.73 13.53 22.45 13.53ZM35.37 15L28.14 15L28.14 13.30L30.96 13.30L30.96 8.45L28.44 8.45L28.44 6.75L32.84 6.75L32.84 13.30L35.37 13.30L35.37 15ZM31.77 5.37L31.77 5.37Q31.20 5.37 30.87 5.08Q30.54 4.79 30.54 4.29L30.54 4.29Q30.54 3.79 30.87 3.50Q31.20 3.21 31.77 3.21L31.77 3.21Q32.34 3.21 32.67 3.50Q33 3.79 33 4.29L33 4.29Q33 4.79 32.67 5.08Q32.34 5.37 31.77 5.37ZM40.81 15.13L40.16 15.13Q38.69 15.13 37.83 14.47Q36.98 13.80 36.98 12.66L36.98 12.66L38.82 12.66Q38.82 13.14 39.17 13.39Q39.52 13.65 40.16 13.65L40.16 13.65L40.81 13.65Q41.49 13.65 41.86 13.39Q42.23 13.14 42.23 12.66L42.23 12.66Q42.23 12.21 41.97 11.99Q41.72 11.78 41.19 11.70L41.19 11.70L39.13 11.43Q38.15 11.29 37.61 10.66Q37.08 10.04 37.08 9.03L37.08 9.03Q37.08 7.86 37.86 7.24Q38.64 6.62 40.11 6.62L40.11 6.62L40.80 6.62Q42.18 6.62 43.02 7.25Q43.86 7.88 43.89 8.93L43.89 8.93L42.03 8.93Q42.02 8.54 41.69 8.30Q41.35 8.07 40.80 8.07L40.80 8.07L40.11 8.07Q39.51 8.07 39.20 8.32Q38.88 8.57 38.88 8.98L38.88 8.98Q38.88 9.36 39.11 9.54Q39.34 9.72 39.80 9.77L39.80 9.77L41.73 10.04Q42.87 10.17 43.45 10.84Q44.02 11.51 44.02 12.63L44.02 12.63Q44.02 13.83 43.21 14.48Q42.39 15.13 40.81 15.13L40.81 15.13Z"/></svg>
</svg>