<svg viewBox="0 0 96.02032358965403 25" width="96.02032358965403" height="25" xmlns="http://www.w3.org/2000/svg">
<rect x="0.5" y="0.5" width="95.02032358965403" height="24" rx="4.5" fill="#292A2D" stroke="#606366"/>
<svg xmlns="http://www.w3.org/2000/svg" viewBox="0 0 63.061 62.981" x="11" y="4.5" width="16.020323589654023" height="16"><path fill="#5fb832" d="M57.243 45.348c-7.762 10.341-24.343 6.851-34.971 7.353 0 0-1.882.1-3.777.417 0 0 .717-.306 1.631-.621 7.466-2.582 10.994-3.1 15.53-5.431C44.179 42.7 52.662 33.189 54.388 23.31c-3.244 9.5-13.111 17.68-22.1 21-6.149 2.269-17.27 4.478-17.272 4.479s-.443-.233-.449-.238c-7.563-3.68-7.781-20.06 5.955-25.34 6.022-2.317 11.783-1.044 18.293-2.594 6.944-1.651 14.986-6.856 18.255-13.66 3.665 10.869 8.067 27.874.169 38.391Zm.135-41.759a29 29 0 0 1-3.352 5.943A31.386 31.386 0 0 0 31.49 0 31.525 31.525 0 0 0 0 31.489a31.4 31.4 0 0 0 10.079 23.063l.69.611a2.694 2.694 0 0 1-.4-3.783 2.694 2.694 0 0 1 3.784-.4 2.692 2.692 0 0 1 .4 3.786 2.689 2.689 0 0 1-3.781.4l.469.416a31.337 31.337 0 0 0 20.249 7.399 31.522 31.522 0 0 0 31.394-29.22c.864-7.982-1.494-18.118-5.506-30.172"/></svg>
<svg xmlns="http://www.w3.org/2000/svg" xmlns:xlink="http://www.w3.org/1999/xlink" width="54" height="19.8" x="32.020323589654026" y="2.5"><path fill="#ffffff" d="M4.54 15.15L4.54 15.15Q3.44 15.15 2.60 14.76Q1.77 14.37 1.31 13.64Q0.85 12.91 0.85 11.91L0.85 11.91L2.70 11.91Q2.70 12.64 3.20 13.08Q3.71 13.52 4.54 13.52L4.54 13.52Q5.35 13.52 5.83 13.09Q6.30 12.66 6.30 11.94L6.30 11.94Q6.30 11.40 5.99 10.99Q5.68 10.57 5.12 10.43L5.12 10.43L3.65 10.05Q2.46 9.75 1.77 8.93Q1.08 8.10 1.08 6.96L1.08 6.96Q1.08 5.56 1.99 4.73Q2.91 3.90 4.44 3.90L4.44 3.90Q5.47 3.90 6.25 4.28Q7.02 4.65 7.44 5.33Q7.86 6.02 7.86 6.93L7.86 6.93L6.03 6.93Q6.03 6.30 5.59 5.91Q5.16 5.52 4.44 5.52L4.44 5.52Q3.73 5.52 3.32 5.90Q2.91 6.29 2.91 6.90L2.91 6.90Q2.91 7.41 3.20 7.74Q3.49 8.07 4.02 8.22L4.02 8.22L5.54 8.60Q6.75 8.89 7.45 9.79Q8.14 10.70 8.14 11.94L8.14 11.94Q8.14 12.91 7.70 13.63Q7.26 14.36 6.45 14.75Q5.64 15.15 4.54 15.15ZM12.03 17.70L10.15 17.70L10.15 6.75L11.98 6.75L11.98 8.27Q12.21 7.49 12.79 7.04Q13.38 6.60 14.25 6.60L14.25 6.60Q15.04 6.60 15.65 6.99Q16.26 7.38 16.60 8.09Q16.93 8.80 16.93 9.75L16.93 9.75L16.93 11.98Q16.93 13.41 16.20 14.28Q15.46 15.15 14.25 15.15L14.25 15.15Q13.38 15.15 12.79 14.70Q12.20 14.25 11.97 13.44L11.97 13.44L12.03 15.39L12.03 17.70ZM13.54 13.53L13.54 13.53Q14.27 13.53 14.66 13.14Q15.06 12.75 15.06 11.94L15.06 11.94L15.06 9.81Q15.06 9 14.66 8.61Q14.27 8.22 13.54 8.22L13.54 8.22Q12.82 8.22 12.43 8.66Q12.03 9.09 12.03 9.88L12.03 9.88L12.03 11.87Q12.03 12.66 12.43 13.10Q12.82 13.53 13.54 13.53ZM21.33 15L19.45 15L19.45 6.75L21.29 6.75L21.29 8.36Q21.43 7.54 22.03 7.07Q22.62 6.60 23.56 6.60L23.56 6.60Q24.82 6.60 25.53 7.41Q26.23 8.22 26.23 9.68L26.23 9.68L26.23 10.46L24.36 10.46L24.36 9.77Q24.36 9.02 23.97 8.62Q23.58 8.22 22.86 8.22L22.86 8.22Q22.11 8.22 21.72 8.67Q21.33 9.12 21.33 9.95L21.33 9.95L21.33 15ZM35.37 15L28.14 15L28.14 13.30L30.96 13.30L30.96 8.45L28.44 8.45L28.44 6.75L32.84 6.75L32.84 13.30L35.37 13.30L35.37 15ZM31.77 5.37L31.77 5.37Q31.20 5.37 30.87 5.08Q30.54 4.79 30.54 4.29L30.54 4.29Q30.54 3.79 30.87 3.50Q31.20 3.21 31.77 3.21L31.77 3.21Q32.34 3.21 32.67 3.50Q33 3.79 33 4.29L33 4.29Q33 4.79 32.67 5.08Q32.34 5.37 31.77 5.37ZM39.03 15L37.16 15L37.16 6.75L38.98 6.75L38.98 8.29Q39.13 7.52 39.72 7.06Q40.30 6.60 41.20 6.60L41.20 6.60Q42.42 6.60 43.15 7.41Q43.88 8.22 43.88 9.59L43.88 9.59L43.88 15L42 15L42 9.81Q42 9.04 41.60 8.63Q41.20 8.22 40.53 8.22L40.53 8.22Q39.83 8.22 39.43 8.64Q39.03 9.06 39.03 9.84L39.03 9.84L39.03 15ZM49.63 17.70L47.28 17.70L47.28 16.14L49.60 16.14Q50.27 16.14 50.63 15.79Q50.98 15.44 50.98 14.84L50.98 14.84L50.98 14.34L51.02 13.05Q50.76 13.74 50.20 14.12Q49.63 14.51 48.83 14.51L48.83 14.51Q47.56 14.51 46.82 13.66Q46.08 12.81 46.08 11.36L46.08 11.36L46.08 9.75Q46.08 8.31 46.82 7.46Q47.56 6.60 48.83 6.60L48.83 6.60Q49.63 6.60 50.20 6.98Q50.76 7.37 51.02 8.07L51.02 8.07L51.02 6.75L52.84 6.75L52.84 14.88Q52.84 16.18 51.98 16.94Q51.12 17.70 49.63 17.70L49.63 17.70ZM49.45 12.90L49.45 12.90Q50.17 12.90 50.57 12.47Q50.97 12.04 50.97 11.28L50.97 11.28L50.97 9.84Q50.97 9.07 50.57 8.65Q50.17 8.22 49.45 8.22L49.45 8.22Q48.73 8.22 48.34 8.63Q47.95 9.04 47.95 9.78L47.95 9.78L47.95 11.34Q47.95 12.07 48.34 12.49Q48.73 12.90 49.45 12.90Z"/></svg>
</svg>