<svg viewBox="0 0 87 25" width="87" height="25" xmlns="http://www.w3.org/2000/svg">
<rect x="0.5" y="0.5" width="86" height="24" rx="4.5" fill="#292A2D" stroke="#606366"/>
<svg xmlns="http://www.w3.org/2000/svg" viewBox="0 0 16 16" x="11" y="4.5" width="16" height="16"><path fill="#f05138" d="M16 4.432c0-.161 0-.322-.007-.483A7 7 0 0 0 15.9 2.9a3.544 3.544 0 0 0-.329-1A3.36 3.36 0 0 0 14.1.43a3.546 3.546 0 0 0-1-.33 7 7 0 0 0-1.049-.092C11.89 0 11.729 0 11.568 0H4.432c-.161 0-.322 0-.483.007-.088 0-.176.005-.263.01A6.1 6.1 0 0 0 2.9.1a3.656 3.656 0 0 0-.76.219q-.121.05-.24.111a3.355 3.355 0 0 0-.657.439q-.1.086-.194.179A3.357 3.357 0 0 0 .43 1.9a3.545 3.545 0 0 0-.33 1 7.017 7.017 0 0 0-.092 1.049C0 4.11 0 4.271 0 4.432v7.131c0 .161 0 .322.007.483A7.011 7.011 0 0 0 .1 13.1a3.546 3.546 0 0 0 .329 1A3.362 3.362 0 0 0 1.9 15.57a3.545 3.545 0 0 0 1 .329 6.992 6.992 0 0 0 1.051.093c.161 0 .322.006.483.007h7.136c.161 0 .322 0 .483-.007A7 7 0 0 0 13.1 15.9a3.546 3.546 0 0 0 1-.329 3.362 3.362 0 0 0 1.47-1.471 3.544 3.544 0 0 0 .329-1 7 7 0 0 0 .092-1.051c0-.161.006-.322.007-.483V5C16 4.814 16 4.623 16 4.432Z"/><path fill="#fff" d="M12.679 9.876c.018-.06.036-.12.051-.182.664-2.646-.957-5.774-3.7-7.421a6.354 6.354 0 0 1 1.261 5.329 4.479 4.479 0 0 1-.149.445c-.061-.04-.137-.085-.24-.142a34.586 34.586 0 0 1-5.685-4.668 35.408 35.408 0 0 0 3.454 4.348 37.155 37.155 0 0 1-4.91-3.718 7.086 7.086 0 0 0 .67.924 30.05 30.05 0 0 0 5.039 5.258 5.785 5.785 0 0 1-5.465 0 8.256 8.256 0 0 1-1.4-.835 8.38 8.38 0 0 0 3.761 3.225 6.04 6.04 0 0 0 5.209.013l.021-.013a2.32 2.32 0 0 0 .172-.1 1.872 1.872 0 0 1 2.735.689c.176.353.55-1.46-.824-3.152Z"/></svg>
<svg xmlns="http://www.w3.org/2000/svg" xmlns:xlink="http://www.w3.org/1999/xlink" width="45" height="19.8" x="32" y="2.5"><path fill="#ffffff" d="M4.54 15.15L4.54 15.15Q3.44 15.15 2.60 14.76Q1.77 14.37 1.31 13.64Q0.85 12.91 0.85 11.91L0.85 11.91L2.70 11.91Q2.70 12.64 3.20 13.08Q3.71 13.52 4.54 13.52L4.54 13.52Q5.35 13.52 5.83 13.09Q6.30 12.66 6.30 11.94L6.30 11.94Q6.30 11.40 5.99 10.99Q5.68 10.57 5.12 10.43L5.12 10.43L3.65 10.05Q2.46 9.75 1.77 8.93Q1.08 8.10 1.08 6.96L1.08 6.96Q1.08 5.56 1.99 4.73Q2.91 3.90 4.44 3.90L4.44 3.90Q5.47 3.90 6.25 4.28Q7.02 4.65 7.44 5.33Q7.86 6.02 7.86 6.93L7.86 6.93L6.03 6.93Q6.03 6.30 5.59 5.91Q5.16 5.52 4.44 5.52L4.44 5.52Q3.73 5.52 3.32 5.90Q2.91 6.29 2.91 6.90L2.91 6.90Q2.91 7.41 3.20 7.74Q3.49 8.07 4.02 8.22L4.02 8.22L5.54 8.60Q6.75 8.89 7.45 9.79Q8.14 10.70 8.14 11.94L8.14 11.94Q8.14 12.91 7.70 13.63Q7.26 14.36 6.45 14.75Q5.64 15.15 4.54 15.15ZM12.46 15L10.53 15L9.24 6.75L10.72 6.75L11.46 11.80Q11.52 12.27 11.56 12.81Q11.61 13.35 11.64 13.71L11.64 13.71Q11.65 13.35 11.70 12.81Q11.75 12.27 11.84 11.80L11.84 11.80L12.73 6.75L14.29 6.75L15.16 11.80Q15.25 12.27 15.31 12.82Q15.36 13.37 15.39 13.72L15.39 13.72Q15.42 13.37 15.46 12.82Q15.50 12.27 15.57 11.80L15.57 11.80L16.32 6.75L17.76 6.75L16.44 15L14.50 15L13.72 9.91Q13.65 9.50 13.59 8.95Q13.53 8.40 13.50 8.05L13.50 8.05Q13.48 8.40 13.41 8.95Q13.34 9.50 13.27 9.91L13.27 9.91L12.46 15ZM26.37 15L19.14 15L19.14 13.30L21.96 13.30L21.96 8.45L19.44 8.45L19.44 6.75L23.84 6.75L23.84 13.30L26.37 13.30L26.37 15ZM22.77 5.37L22.77 5.37Q22.20 5.37 21.87 5.08Q21.54 4.79 21.54 4.29L21.54 4.29Q21.54 3.79 21.87 3.50Q22.20 3.21 22.77 3.21L22.77 3.21Q23.34 3.21 23.67 3.50Q24 3.79 24 4.29L24 4.29Q24 4.79 23.67 5.08Q23.34 5.37 22.77 5.37ZM31.88 15L30 15L30 9.57L27.73 9.57L27.73 7.88L30 7.88L30 6.42Q30 5.34 30.72 4.70Q31.44 4.05 32.63 4.05L32.63 4.05L35.04 4.05L35.04 5.70L32.67 5.70Q32.31 5.70 32.09 5.90Q31.88 6.11 31.88 6.45L31.88 6.45L31.88 7.88L35.04 7.88L35.04 9.57L31.88 9.57L31.88 15ZM43.91 15L41.33 15Q40.17 15 39.49 14.33Q38.80 13.66 38.80 12.53L38.80 12.53L38.80 8.45L36.52 8.45L36.52 6.75L38.80 6.75L38.80 4.43L40.70 4.43L40.70 6.75L43.98 6.75L43.98 8.45L40.70 8.45L40.70 12.48Q40.70 12.84 40.90 13.07Q41.10 13.30 41.46 13.30L41.46 13.30L43.91 13.30L43.91 15Z"/></svg>
</svg>