<svg viewBox="0 0 104.97990028167695 25" width="104.97990028167695" height="25" xmlns="http://www.w3.org/2000/svg">
<rect x="0.5" y="0.5" width="103.97990028167695" height="24" rx="4.5" fill="#292A2D" stroke="#606366"/>
<svg xmlns="http://www.w3.org/2000/svg" viewBox="0 0 256 256.322" x="11" y="4.5" width="15.979900281676953" height="16"><defs><linearGradient id="a" x1="-.008" x2=".576" y1=".077" y2=".784" gradientUnits="objectBoundingBox"><stop offset="0" stop-color="#41d1ff"/><stop offset="1" stop-color="#bd34fe"/></linearGradient><linearGradient id="b" x1=".434" x2=".503" y1=".022" y2=".89" gradientUnits="objectBoundingBox"><stop offset="0" stop-color="#ffea83"/><stop offset=".083" stop-color="#ffdd35"/><stop offset="1" stop-color="#ffa800"/></linearGradient></defs><path fill="url(#a)" d="M255.153 37.938 134.9 252.976a6.536 6.536 0 0 1-11.382.048L.874 37.958A6.536 6.536 0 0 1 7.7 28.287l120.387 21.518a6.535 6.535 0 0 0 2.322 0l117.867-21.487a6.536 6.536 0 0 1 6.877 9.62Z"/><path fill="url(#b)" d="M185.432.063 96.439 17.5a3.268 3.268 0 0 0-2.634 3.014l-5.474 92.456a3.268 3.268 0 0 0 4 3.378l24.777-5.718a3.267 3.267 0 0 1 3.936 3.838l-7.361 36.047a3.268 3.268 0 0 0 4.151 3.781l15.3-4.65a3.268 3.268 0 0 1 4.15 3.788l-11.7 56.621a3.267 3.267 0 0 0 5.943 2.437l1.313-2.028 72.519-144.718a3.268 3.268 0 0 0-3.541-4.672L176.314 66a3.268 3.268 0 0 1-3.759-4.115L189.2 4.176a3.268 3.268 0 0 0-3.768-4.113Z"/></svg>
<svg xmlns="http://www.w3.org/2000/svg" xmlns:xlink="http://www.w3.org/1999/xlink" width="63" height="19.8" x="31.979900281676954" y="2.5"><path fill="#ffffff" d="M5.71 15L3.28 15L0.53 4.05L2.46 4.05L4.13 11.19Q4.26 11.71 4.37 12.32Q4.48 12.93 4.54 13.29L4.54 13.29Q4.60 12.93 4.72 12.32Q4.83 11.71 4.96 11.18L4.96 11.18L6.57 4.05L8.47 4.05L5.71 15ZM17.37 15L10.14 15L10.14 13.30L12.96 13.30L12.96 8.45L10.44 8.45L10.44 6.75L14.84 6.75L14.84 13.30L17.37 13.30L17.37 15ZM13.77 5.37L13.77 5.37Q13.20 5.37 12.87 5.08Q12.54 4.79 12.54 4.29L12.54 4.29Q12.54 3.79 12.87 3.50Q13.20 3.21 13.77 3.21L13.77 3.21Q14.34 3.21 14.67 3.50Q15 3.79 15 4.29L15 4.29Q15 4.79 14.67 5.08Q14.34 5.37 13.77 5.37ZM25.91 15L23.32 15Q22.17 15 21.49 14.33Q20.80 13.66 20.80 12.53L20.80 12.53L20.80 8.45L18.52 8.45L18.52 6.75L20.80 6.75L20.80 4.43L22.70 4.43L22.70 6.75L25.98 6.75L25.98 8.45L22.70 8.45L22.70 12.48Q22.70 12.84 22.90 13.07Q23.10 13.30 23.46 13.30L23.46 13.30L25.91 13.30L25.91 15ZM31.52 15.15L31.52 15.15Q30.46 15.15 29.68 14.74Q28.91 14.34 28.48 13.60Q28.05 12.86 28.05 11.85L28.05 11.85L28.05 9.90Q28.05 8.89 28.48 8.15Q28.91 7.41 29.68 7.00Q30.46 6.60 31.52 6.60L31.52 6.60Q32.55 6.60 33.32 7.00Q34.09 7.41 34.52 8.14Q34.95 8.87 34.95 9.84L34.95 9.84L34.95 11.34L29.85 11.34L29.85 11.91Q29.85 12.75 30.29 13.18Q30.72 13.61 31.52 13.61L31.52 13.61Q32.10 13.61 32.51 13.40Q32.92 13.20 33 12.81L33 12.81L34.86 12.81Q34.66 13.88 33.75 14.51Q32.84 15.15 31.52 15.15ZM29.85 9.84L29.85 9.84L29.85 10.13L33.15 10.11L33.15 9.82Q33.15 8.97 32.73 8.50Q32.31 8.04 31.52 8.04L31.52 8.04Q30.69 8.04 30.27 8.51Q29.85 8.98 29.85 9.84ZM40.50 15.15L40.50 15.15Q39.87 15.15 39.49 14.77Q39.10 14.38 39.10 13.77L39.10 13.77Q39.10 13.15 39.49 12.77Q39.87 12.38 40.50 12.38L40.50 12.38Q41.13 12.38 41.51 12.77Q41.89 13.15 41.89 13.77L41.89 13.77Q41.89 14.38 41.51 14.77Q41.13 15.15 40.50 15.15ZM48.49 17.70L46.22 17.70L46.22 16.00L48.39 16.00Q49.11 16.00 49.53 15.58Q49.95 15.15 49.95 14.41L49.95 14.41L49.95 8.45L46.14 8.45L46.14 6.75L51.83 6.75L51.83 14.46Q51.83 15.96 50.92 16.83Q50.02 17.70 48.49 17.70L48.49 17.70ZM50.79 5.37L50.79 5.37Q50.22 5.37 49.89 5.08Q49.56 4.79 49.56 4.29L49.56 4.29Q49.56 3.79 49.89 3.50Q50.22 3.21 50.79 3.21L50.79 3.21Q51.36 3.21 51.69 3.50Q52.02 3.79 52.02 4.29L52.02 4.29Q52.02 4.79 51.69 5.08Q51.36 5.37 50.79 5.37ZM58.81 15.13L58.16 15.13Q56.69 15.13 55.83 14.47Q54.98 13.80 54.98 12.66L54.98 12.66L56.82 12.66Q56.82 13.14 57.17 13.39Q57.52 13.65 58.16 13.65L58.16 13.65L58.81 13.65Q59.49 13.65 59.86 13.39Q60.23 13.14 60.23 12.66L60.23 12.66Q60.23 12.21 59.97 11.99Q59.72 11.78 59.19 11.70L59.19 11.70L57.13 11.43Q56.15 11.29 55.61 10.66Q55.08 10.04 55.08 9.03L55.08 9.03Q55.08 7.86 55.86 7.24Q56.64 6.62 58.11 6.62L58.11 6.62L58.80 6.62Q60.18 6.62 61.02 7.25Q61.86 7.88 61.89 8.93L61.89 8.93L60.03 8.93Q60.02 8.54 59.69 8.30Q59.35 8.07 58.80 8.07L58.80 8.07L58.11 8.07Q57.51 8.07 57.20 8.32Q56.88 8.57 56.88 8.98L56.88 8.98Q56.88 9.36 57.11 9.54Q57.34 9.72 57.80 9.77L57.80 9.77L59.73 10.04Q60.87 10.17 61.45 10.84Q62.02 11.51 62.02 12.63L62.02 12.63Q62.02 13.83 61.21 14.48Q60.39 15.13 58.81 15.13L58.81 15.13Z"/></svg>
</svg>